SplineFontDB: 3.2
FontName: hin58md
FullName: hin58md
FamilyName: hin58md
Weight: Book
Copyright: Copyright 2022 The Noto Project Authors (https://github.com/notofonts/devanagari)
Version: 2.003
ItalicAngle: 0
UnderlinePosition: -125
UnderlineWidth: 50
Ascent: 800
Descent: 200
InvalidEm: 0
sfntRevision: 0x000200c5
LayerCount: 2
Layer: 0 1 "Back" 1
Layer: 1 1 "Fore" 0
XUID: [1021 467 -1121320856 3670528]
StyleMap: 0x0040
FSType: 0
OS2Version: 4
OS2_WeightWidthSlopeOnly: 0
OS2_UseTypoMetrics: 1
CreationTime: 1432194851
ModificationTime: 1680728639
PfmFamily: 81
TTFWeight: 400
TTFWidth: 5
LineGap: 0
VLineGap: 0
Panose: 0 0 0 0 0 0 0 0 0 0
OS2TypoAscent: 896
OS2TypoAOffset: 0
OS2TypoDescent: -408
OS2TypoDOffset: 0
OS2TypoLinegap: 0
OS2WinAscent: 896
OS2WinAOffset: 0
OS2WinDescent: 408
OS2WinDOffset: 0
HheadAscent: 896
HheadAOffset: 0
HheadDescent: -408
HheadDOffset: 0
OS2SubXSize: 650
OS2SubYSize: 600
OS2SubXOff: 0
OS2SubYOff: 75
OS2SupXSize: 650
OS2SupYSize: 600
OS2SupXOff: 0
OS2SupYOff: 350
OS2StrikeYSize: 50
OS2StrikeYPos: 322
OS2CapHeight: 622
OS2XHeight: 536
OS2Vendor: 'GOOG'
OS2CodePages: 00000093.00000000
OS2UnicodeRanges: 80008023.00002046.00000000.00000000
Lookup: 1 0 0 "'aalt' Access All Alternates in Devanagari2 lookup 0" { "'aalt' Access All Alternates in Devanagari2 lookup 0 subtable"  } ['aalt' ('DFLT' <'dflt' > 'dev2' <'MAR ' 'NEP ' 'dflt' > 'latn' <'MOL ' 'ROM ' > ) ]
Lookup: 1 0 0 "Single Substitution lookup 1" { "Single Substitution lookup 1 subtable"  } []
Lookup: 1 0 0 "Single Substitution lookup 2" { "Single Substitution lookup 2 subtable"  } []
Lookup: 1 0 0 "Single Substitution lookup 3" { "Single Substitution lookup 3 subtable"  } []
Lookup: 1 0 0 "Single Substitution lookup 4" { "Single Substitution lookup 4 subtable"  } []
Lookup: 1 0 0 "Single Substitution lookup 5" { "Single Substitution lookup 5 subtable"  } []
Lookup: 1 0 0 "Single Substitution lookup 6" { "Single Substitution lookup 6 subtable"  } []

StartChar: exclam.deva
Encoding: 33 33 3
Width: 771
Flags: W
LayerCount: 2
Fore
SplineSet
336.419921875 202 m 1,0,-1
 315.860351562 714 l 1,1,-1
 455.924804688 714 l 1,2,-1
 435.365234375 202 l 1,3,-1
 336.419921875 202 l 1,0,-1
385.25 -10 m 256,4,5
 351.83984375 -10 351.83984375 -10 328.709960938 6 c 128,-1,6
 305.580078125 22 305.580078125 22 305.580078125 58 c 0,7,8
 305.580078125 96 305.580078125 96 328.709960938 111 c 128,-1,9
 351.83984375 126 351.83984375 126 385.25 126 c 256,10,11
 418.66015625 126 418.66015625 126 441.790039062 111 c 128,-1,12
 464.919921875 96 464.919921875 96 464.919921875 58 c 0,13,14
 464.919921875 22 464.919921875 22 441.790039062 6 c 128,-1,15
 418.66015625 -10 418.66015625 -10 385.25 -10 c 256,4,5
EndSplineSet
EndChar

StartChar: quotedbl.deva
Encoding: 34 34 4
Width: 771
Flags: W
LayerCount: 2
Fore
SplineSet
468.775390625 456 m 1,0,-1
 443.075195312 714 l 1,1,-1
 565.150390625 714 l 1,2,-1
 539.450195312 456 l 1,3,-1
 468.775390625 456 l 1,0,-1
231.049804688 456 m 1,4,-1
 205.349609375 714 l 1,5,-1
 327.424804688 714 l 1,6,-1
 301.724609375 456 l 1,7,-1
 231.049804688 456 l 1,4,-1
EndSplineSet
EndChar

StartChar: numbersign.deva
Encoding: 35 35 5
Width: 771
Flags: W
LayerCount: 2
Fore
SplineSet
129.53515625 0 m 1,0,-1
 178.365234375 209 l 1,1,-1
 25.4501953125 209 l 1,2,-1
 25.4501953125 276 l 1,3,-1
 195.0703125 276 l 1,4,-1
 236.190429688 436 l 1,5,-1
 72.9951171875 436 l 1,6,-1
 72.9951171875 502 l 1,7,-1
 251.610351562 502 l 1,8,-1
 303.009765625 714 l 1,9,-1
 395.530273438 714 l 1,10,-1
 344.129882812 502 l 1,11,-1
 503.469726562 502 l 1,12,-1
 554.870117188 714 l 1,13,-1
 643.53515625 714 l 1,14,-1
 592.134765625 502 l 1,15,-1
 745.049804688 502 l 1,16,-1
 745.049804688 436 l 1,17,-1
 575.4296875 436 l 1,18,-1
 535.594726562 276 l 1,19,-1
 701.360351562 276 l 1,20,-1
 701.360351562 209 l 1,21,-1
 518.889648438 209 l 1,22,-1
 466.205078125 0 l 1,23,-1
 374.969726562 0 l 1,24,-1
 427.655273438 209 l 1,25,-1
 269.599609375 209 l 1,26,-1
 219.485351562 0 l 1,27,-1
 129.53515625 0 l 1,0,-1
286.3046875 276 m 1,28,-1
 444.360351562 276 l 1,29,-1
 484.1953125 436 l 1,30,-1
 326.139648438 436 l 1,31,-1
 286.3046875 276 l 1,28,-1
EndSplineSet
EndChar

StartChar: percent.deva
Encoding: 37 37 6
Width: 771
Flags: W
LayerCount: 2
Fore
SplineSet
140.196289062 8.900390625 m 5,0,-1
 542.76171875 687.200195312 l 5,1,-1
 629.83203125 687.200195312 l 5,2,-1
 227.267578125 8.900390625 l 5,3,-1
 140.196289062 8.900390625 l 5,0,-1
561.984375 0.349609375 m 4,4,5
 493.005859375 0.349609375 493.005859375 0.349609375 447.208007812 42.625 c 132,-1,6
 401.411132812 84.900390625 401.411132812 84.900390625 401.411132812 161.849609375 c 260,7,8
 401.411132812 238.799804688 401.411132812 238.799804688 444.947265625 280.599609375 c 132,-1,9
 488.482421875 322.400390625 488.482421875 322.400390625 564.247070312 322.400390625 c 4,10,11
 633.225585938 322.400390625 633.225585938 322.400390625 679.022460938 280.599609375 c 132,-1,12
 724.8203125 238.799804688 724.8203125 238.799804688 724.8203125 161.849609375 c 260,13,14
 724.8203125 84.900390625 724.8203125 84.900390625 680.71875 42.625 c 132,-1,15
 636.6171875 0.349609375 636.6171875 0.349609375 561.984375 0.349609375 c 4,4,5
563.115234375 55.4501953125 m 260,16,17
 601.5625 55.4501953125 601.5625 55.4501953125 620.787109375 81.099609375 c 132,-1,18
 640.009765625 106.75 640.009765625 106.75 640.009765625 161.849609375 c 4,19,20
 640.009765625 217.900390625 640.009765625 217.900390625 620.787109375 242.125 c 132,-1,21
 601.5625 266.349609375 601.5625 266.349609375 563.115234375 266.349609375 c 260,22,23
 524.66796875 266.349609375 524.66796875 266.349609375 504.87890625 242.125 c 132,-1,24
 485.090820312 217.900390625 485.090820312 217.900390625 485.090820312 161.849609375 c 4,25,26
 485.090820312 106.75 485.090820312 106.75 504.87890625 81.099609375 c 132,-1,27
 524.66796875 55.4501953125 524.66796875 55.4501953125 563.115234375 55.4501953125 c 260,16,17
206.913085938 372.75 m 4,28,29
 137.934570312 372.75 137.934570312 372.75 92.1376953125 415.025390625 c 132,-1,30
 46.33984375 457.299804688 46.33984375 457.299804688 46.33984375 534.25 c 260,31,32
 46.33984375 611.200195312 46.33984375 611.200195312 89.8759765625 653 c 132,-1,33
 133.412109375 694.799804688 133.412109375 694.799804688 209.174804688 694.799804688 c 4,34,35
 278.154296875 694.799804688 278.154296875 694.799804688 323.951171875 653 c 132,-1,36
 369.749023438 611.200195312 369.749023438 611.200195312 369.749023438 534.25 c 260,37,38
 369.749023438 457.299804688 369.749023438 457.299804688 325.647460938 415.025390625 c 132,-1,39
 281.546875 372.75 281.546875 372.75 206.913085938 372.75 c 4,28,29
208.043945312 427.849609375 m 260,40,41
 246.4921875 427.849609375 246.4921875 427.849609375 265.71484375 453.5 c 132,-1,42
 284.938476562 479.150390625 284.938476562 479.150390625 284.938476562 534.25 c 4,43,44
 284.938476562 590.299804688 284.938476562 590.299804688 265.71484375 614.525390625 c 132,-1,45
 246.4921875 638.75 246.4921875 638.75 208.043945312 638.75 c 260,46,47
 169.59765625 638.75 169.59765625 638.75 149.807617188 614.525390625 c 132,-1,48
 130.01953125 590.299804688 130.01953125 590.299804688 130.01953125 534.25 c 4,49,50
 130.01953125 479.150390625 130.01953125 479.150390625 149.807617188 453.5 c 132,-1,51
 169.59765625 427.849609375 169.59765625 427.849609375 208.043945312 427.849609375 c 260,40,41
EndSplineSet
EndChar

StartChar: quotesingle.deva
Encoding: 39 39 7
Width: 771
Flags: W
LayerCount: 2
Fore
SplineSet
349.412109375 456 m 1,0,-1
 323.712890625 714 l 1,1,-1
 445.787109375 714 l 1,2,-1
 420.087890625 456 l 1,3,-1
 349.412109375 456 l 1,0,-1
EndSplineSet
EndChar

StartChar: parenleft.deva
Encoding: 40 40 8
Width: 771
Flags: W
LayerCount: 2
Fore
SplineSet
441.370117188 -158 m 1,0,1
 343.709960938 -70 343.709960938 -70 298.092773438 41.5 c 128,-1,2
 252.474609375 153 252.474609375 153 252.474609375 274 c 0,3,4
 252.474609375 396 252.474609375 396 298.092773438 509.5 c 128,-1,5
 343.709960938 623 343.709960938 623 441.370117188 714 c 1,6,-1
 548.025390625 714 l 1,7,8
 458.075195312 620 458.075195312 620 412.45703125 507 c 128,-1,9
 366.83984375 394 366.83984375 394 366.83984375 275 c 0,10,11
 366.83984375 159 366.83984375 159 412.45703125 47.5 c 128,-1,12
 458.075195312 -64 458.075195312 -64 546.740234375 -158 c 1,13,-1
 441.370117188 -158 l 1,0,1
EndSplineSet
EndChar

StartChar: parenright.deva
Encoding: 41 41 9
Width: 771
Flags: W
LayerCount: 2
Fore
SplineSet
329.129882812 714 m 1,0,1
 426.790039062 626 426.790039062 626 472.407226562 514.5 c 128,-1,2
 518.025390625 403 518.025390625 403 518.025390625 282 c 0,3,4
 518.025390625 160 518.025390625 160 472.407226562 46.5 c 128,-1,5
 426.790039062 -67 426.790039062 -67 329.129882812 -158 c 1,6,-1
 222.474609375 -158 l 1,7,8
 312.424804688 -64 312.424804688 -64 358.04296875 49.5 c 128,-1,9
 403.66015625 163 403.66015625 163 403.66015625 281 c 0,10,11
 403.66015625 397 403.66015625 397 358.04296875 508.5 c 128,-1,12
 312.424804688 620 312.424804688 620 223.759765625 714 c 1,13,-1
 329.129882812 714 l 1,0,1
EndSplineSet
EndChar

StartChar: asterisk.deva
Encoding: 42 42 10
Width: 771
Flags: W
LayerCount: 2
Fore
SplineSet
488.907226562 334 m 1,0,-1
 384.822265625 489 l 1,1,-1
 282.022460938 335 l 1,2,-1
 186.932617188 382 l 1,3,-1
 323.142578125 516 l 1,4,-1
 114.97265625 537 l 1,5,-1
 132.962890625 612 l 1,6,-1
 351.412109375 569 l 1,7,-1
 333.422851562 746 l 1,8,-1
 434.9375 746 l 1,9,-1
 419.517578125 569 l 1,10,-1
 639.252929688 616 l 1,11,-1
 658.52734375 534 l 1,12,-1
 451.642578125 514 l 1,13,-1
 587.852539062 381 l 1,14,-1
 488.907226562 334 l 1,0,-1
EndSplineSet
EndChar

StartChar: plus.deva
Encoding: 43 43 11
Width: 771
Flags: W
LayerCount: 2
Fore
SplineSet
340.275390625 121 m 1,0,-1
 340.275390625 317 l 1,1,-1
 102.549804688 317 l 1,2,-1
 102.549804688 388 l 1,3,-1
 340.275390625 388 l 1,4,-1
 340.275390625 585 l 1,5,-1
 432.794921875 585 l 1,6,-1
 432.794921875 388 l 1,7,-1
 667.950195312 388 l 1,8,-1
 667.950195312 317 l 1,9,-1
 432.794921875 317 l 1,10,-1
 432.794921875 121 l 1,11,-1
 340.275390625 121 l 1,0,-1
EndSplineSet
EndChar

StartChar: comma.deva
Encoding: 44 44 12
Width: 771
Flags: W
LayerCount: 2
Fore
SplineSet
272.16796875 -140 m 1,0,1
 286.302734375 -96 286.302734375 -96 299.15234375 -48.5 c 128,-1,2
 312.002929688 -1 312.002929688 -1 323.567382812 45 c 128,-1,3
 335.1328125 91 335.1328125 91 341.557617188 129 c 1,4,-1
 479.052734375 129 l 1,5,-1
 489.33203125 117 l 1,6,7
 480.337890625 88 480.337890625 88 466.202148438 55.5 c 128,-1,8
 452.067382812 23 452.067382812 23 436.004882812 -10.5 c 128,-1,9
 419.942382812 -44 419.942382812 -44 402.594726562 -77 c 128,-1,10
 385.247070312 -110 385.247070312 -110 367.2578125 -140 c 1,11,-1
 272.16796875 -140 l 1,0,1
EndSplineSet
EndChar

StartChar: hyphen.deva
Encoding: 45 45 13
Width: 771
Flags: W
LayerCount: 2
Fore
SplineSet
192.5 230 m 1,0,-1
 192.5 310 l 1,1,-1
 578 310 l 1,2,-1
 578 230 l 1,3,-1
 192.5 230 l 1,0,-1
EndSplineSet
EndChar

StartChar: period.deva
Encoding: 46 46 14
Width: 771
Flags: W
LayerCount: 2
Fore
SplineSet
300 -10 m 256,0,1
 266.58984375 -10 266.58984375 -10 243.459960938 6 c 128,-1,2
 220.330078125 22 220.330078125 22 220.330078125 58 c 0,3,4
 220.330078125 96 220.330078125 96 243.459960938 111 c 128,-1,5
 266.58984375 126 266.58984375 126 300 126 c 256,6,7
 333.41015625 126 333.41015625 126 356.540039062 111 c 128,-1,8
 379.669921875 96 379.669921875 96 379.669921875 58 c 0,9,10
 379.669921875 22 379.669921875 22 356.540039062 6 c 128,-1,11
 333.41015625 -10 333.41015625 -10 300 -10 c 256,0,1
EndSplineSet
EndChar

StartChar: slash.deva
Encoding: 47 47 15
Width: 771
Flags: W
LayerCount: 2
Fore
SplineSet
153.950195312 0 m 1,0,-1
 506.040039062 714 l 1,1,-1
 616.549804688 714 l 1,2,-1
 264.459960938 0 l 1,3,-1
 153.950195312 0 l 1,0,-1
EndSplineSet
EndChar

StartChar: zero.deva
Encoding: 48 48 16
Width: 771
Flags: W
LayerCount: 2
Fore
SplineSet
384 -9 m 0,0,1
 277 -9 277 -9 209 26 c 128,-1,2
 141 61 141 61 109 126.5 c 128,-1,3
 77 192 77 192 77 284 c 128,-1,4
 77 376 77 376 108 441 c 128,-1,5
 139 506 139 506 206 540.5 c 128,-1,6
 273 575 273 575 384 575 c 0,7,8
 492 575 492 575 560.5 541 c 128,-1,9
 629 507 629 507 661.5 441.5 c 128,-1,10
 694 376 694 376 694 284 c 0,11,12
 694 215 694 215 676.5 160.5 c 128,-1,13
 659 106 659 106 622.5 68.5 c 128,-1,14
 586 31 586 31 527 11 c 128,-1,15
 468 -9 468 -9 384 -9 c 0,0,1
237 79 m 1,16,-1
 162 120 l 1,17,-1
 521 497 l 1,18,-1
 588 444 l 1,19,-1
 237 79 l 1,16,-1
384 54 m 0,20,21
 489 54 489 54 539.5 110 c 128,-1,22
 590 166 590 166 590 284 c 0,23,24
 590 360 590 360 568 410 c 128,-1,25
 546 460 546 460 500.5 486 c 128,-1,26
 455 512 455 512 384 512 c 0,27,28
 315 512 315 512 271 487.5 c 128,-1,29
 227 463 227 463 206 412.5 c 128,-1,30
 185 362 185 362 185 284 c 0,31,32
 185 173 185 173 230.5 113.5 c 128,-1,33
 276 54 276 54 384 54 c 0,20,21
EndSplineSet
EndChar

StartChar: one.deva
Encoding: 49 49 17
Width: 771
Flags: W
LayerCount: 2
Fore
SplineSet
361 354 m 2,0,1
 361 376 361 376 361.5 402 c 128,-1,2
 362 428 362 428 363.5 452 c 128,-1,3
 365 476 365 476 366 494 c 1,4,5
 345 487 345 487 328.5 482 c 128,-1,6
 312 477 312 477 279 467 c 2,7,-1
 172 433 l 1,8,-1
 122 487 l 1,9,-1
 378 567 l 1,10,-1
 471 567 l 1,11,-1
 471 -1 l 1,12,-1
 361 -1 l 1,13,-1
 361 354 l 2,0,1
168 -1 m 1,14,-1
 168 47 l 1,15,-1
 361 55 l 1,16,-1
 471 55 l 1,17,-1
 666 47 l 1,18,-1
 666 -1 l 1,19,-1
 168 -1 l 1,14,-1
EndSplineSet
EndChar

StartChar: two.deva
Encoding: 50 50 18
Width: 771
Flags: W
LayerCount: 2
Fore
SplineSet
88 0 m 1,0,-1
 88 60 l 1,1,-1
 332 209 l 2,2,3
 396 248 396 248 441 282 c 128,-1,4
 486 316 486 316 509.5 348.5 c 128,-1,5
 533 381 533 381 533 417 c 0,6,7
 533 468 533 468 488.5 490.5 c 128,-1,8
 444 513 444 513 374 513 c 0,9,10
 314 513 314 513 260.5 498 c 128,-1,11
 207 483 207 483 161 460 c 1,12,-1
 97 509 l 1,13,14
 132 528 132 528 174 543 c 128,-1,15
 216 558 216 558 267.5 567 c 128,-1,16
 319 576 319 576 378 576 c 0,17,18
 460 576 460 576 521 557.5 c 128,-1,19
 582 539 582 539 615.5 504.5 c 128,-1,20
 649 470 649 470 649 419 c 0,21,22
 649 376 649 376 624 337.5 c 128,-1,23
 599 299 599 299 552 262 c 128,-1,24
 505 225 505 225 440 185 c 2,25,-1
 243 67 l 1,26,-1
 243 64 l 1,27,-1
 698 64 l 1,28,-1
 698 0 l 1,29,-1
 88 0 l 1,0,-1
EndSplineSet
EndChar

StartChar: three.deva
Encoding: 51 51 19
Width: 771
Flags: W
LayerCount: 2
Fore
SplineSet
335 -9 m 0,0,1
 280 -9 280 -9 216 -2 c 128,-1,2
 152 5 152 5 95 22 c 1,3,-1
 95 90 l 1,4,5
 152 72 152 72 217.5 63 c 128,-1,6
 283 54 283 54 343 54 c 0,7,8
 455 54 455 54 506.5 83.5 c 128,-1,9
 558 113 558 113 558 160 c 0,10,11
 558 197 558 197 530 219 c 128,-1,12
 502 241 502 241 451 251 c 128,-1,13
 400 261 400 261 325 261 c 2,14,-1
 230 261 l 1,15,-1
 230 324 l 1,16,-1
 325 324 l 2,17,18
 392 324 392 324 437 337.5 c 128,-1,19
 482 351 482 351 505.5 374.5 c 128,-1,20
 529 398 529 398 529 428 c 0,21,22
 529 468 529 468 488.5 490 c 128,-1,23
 448 512 448 512 370 512 c 0,24,25
 304 512 304 512 249.5 498 c 128,-1,26
 195 484 195 484 157 468 c 1,27,-1
 99 517 l 1,28,29
 148 541 148 541 218.5 558 c 128,-1,30
 289 575 289 575 378 575 c 256,31,32
 467 575 467 575 526.5 556.5 c 128,-1,33
 586 538 586 538 616 507 c 128,-1,34
 646 476 646 476 646 434 c 0,35,36
 646 396 646 396 622.5 367.5 c 128,-1,37
 599 339 599 339 556 321.5 c 128,-1,38
 513 304 513 304 455 298 c 1,39,-1
 455 296 l 1,40,41
 527 290 527 290 575.5 272.5 c 128,-1,42
 624 255 624 255 649.5 226 c 128,-1,43
 675 197 675 197 675 157 c 0,44,45
 675 109 675 109 639 71.5 c 128,-1,46
 603 34 603 34 528 12.5 c 128,-1,47
 453 -9 453 -9 335 -9 c 0,0,1
EndSplineSet
EndChar

StartChar: four.deva
Encoding: 52 52 20
Width: 771
Flags: W
LayerCount: 2
Fore
SplineSet
462 -1 m 1,0,-1
 462 127 l 1,1,-1
 64 127 l 1,2,-1
 64 186 l 1,3,-1
 442 571 l 1,4,-1
 573 571 l 1,5,-1
 573 188 l 1,6,-1
 706 188 l 1,7,-1
 706 127 l 1,8,-1
 573 127 l 1,9,-1
 573 -1 l 1,10,-1
 462 -1 l 1,0,-1
176 188 m 1,11,-1
 462 188 l 1,12,-1
 462 330 l 2,13,14
 462 351 462 351 463 375 c 128,-1,15
 464 399 464 399 465 422 c 128,-1,16
 466 445 466 445 467.5 464.5 c 128,-1,17
 469 484 469 484 470 497 c 1,18,-1
 465 497 l 1,19,20
 456 482 456 482 438.5 461.5 c 128,-1,21
 421 441 421 441 408 427 c 2,22,-1
 176 188 l 1,11,-1
EndSplineSet
EndChar

StartChar: five.deva
Encoding: 53 53 21
Width: 771
Flags: W
LayerCount: 2
Fore
SplineSet
330 -10 m 0,0,1
 270 -10 270 -10 208 -2 c 128,-1,2
 146 6 146 6 103 21 c 1,3,-1
 103 89 l 1,4,5
 147 71 147 71 203 62 c 128,-1,6
 259 53 259 53 320 53 c 0,7,8
 428 53 428 53 488.5 81 c 128,-1,9
 549 109 549 109 549 168 c 0,10,11
 549 208 549 208 522 234.5 c 128,-1,12
 495 261 495 261 445.5 274.5 c 128,-1,13
 396 288 396 288 329 288 c 0,14,15
 293 288 293 288 252 284.5 c 128,-1,16
 211 281 211 281 179 276 c 1,17,-1
 122 299 l 1,18,-1
 157 566 l 1,19,-1
 614 566 l 1,20,-1
 614 502 l 1,21,-1
 256 502 l 1,22,-1
 231 338 l 1,23,24
 258 342 258 342 297.5 344 c 128,-1,25
 337 346 337 346 366 346 c 0,26,27
 450 346 450 346 518 327 c 128,-1,28
 586 308 586 308 626.5 269.5 c 128,-1,29
 667 231 667 231 667 173 c 0,30,31
 667 117 667 117 627.5 76 c 128,-1,32
 588 35 588 35 513 12.5 c 128,-1,33
 438 -10 438 -10 330 -10 c 0,0,1
EndSplineSet
EndChar

StartChar: six.deva
Encoding: 54 54 22
Width: 771
Flags: W
LayerCount: 2
Fore
SplineSet
396 -9 m 0,0,1
 323 -9 323 -9 263.5 6.5 c 128,-1,2
 204 22 204 22 163 53.5 c 128,-1,3
 122 85 122 85 99.5 132.5 c 128,-1,4
 77 180 77 180 77 244 c 0,5,6
 77 305 77 305 94.5 364 c 128,-1,7
 112 423 112 423 158 470.5 c 128,-1,8
 204 518 204 518 287.5 546.5 c 128,-1,9
 371 575 371 575 503 575 c 0,10,11
 529 575 529 575 563 573.5 c 128,-1,12
 597 572 597 572 618 568 c 1,13,-1
 618 505 l 1,14,15
 596 510 596 510 566.5 512 c 128,-1,16
 537 514 537 514 507 514 c 0,17,18
 414 514 414 514 354 496.5 c 128,-1,19
 294 479 294 479 259.5 448 c 128,-1,20
 225 417 225 417 209.5 376 c 128,-1,21
 194 335 194 335 191 289 c 1,22,-1
 199 289 l 1,23,24
 216 309 216 309 245.5 324.5 c 128,-1,25
 275 340 275 340 317.5 349.5 c 128,-1,26
 360 359 360 359 414 359 c 0,27,28
 542 359 542 359 618 312.5 c 128,-1,29
 694 266 694 266 694 182 c 0,30,31
 694 123 694 123 657 80 c 128,-1,32
 620 37 620 37 553.5 14 c 128,-1,33
 487 -9 487 -9 396 -9 c 0,0,1
394 51 m 0,34,35
 478 51 478 51 530.5 81.5 c 128,-1,36
 583 112 583 112 583 182 c 0,37,38
 583 241 583 241 536 272 c 128,-1,39
 489 303 489 303 398 303 c 0,40,41
 336 303 336 303 289.5 287 c 128,-1,42
 243 271 243 271 217 246.5 c 128,-1,43
 191 222 191 222 191 195 c 0,44,45
 191 174 191 174 199.5 153.5 c 128,-1,46
 208 133 208 133 224 114.5 c 128,-1,47
 240 96 240 96 264.5 81.5 c 128,-1,48
 289 67 289 67 321.5 59 c 128,-1,49
 354 51 354 51 394 51 c 0,34,35
EndSplineSet
EndChar

StartChar: seven.deva
Encoding: 55 55 23
Width: 771
Flags: W
LayerCount: 2
Fore
SplineSet
223 -1 m 1,0,-1
 577 503 l 1,1,-1
 77 503 l 1,2,-1
 77 567 l 1,3,-1
 694 567 l 1,4,-1
 694 511 l 1,5,-1
 345 -1 l 1,6,-1
 223 -1 l 1,0,-1
EndSplineSet
EndChar

StartChar: eight.deva
Encoding: 56 56 24
Width: 771
Flags: W
LayerCount: 2
Fore
SplineSet
379 -9 m 0,0,1
 290 -9 290 -9 224.5 9.5 c 128,-1,2
 159 28 159 28 123 61.5 c 128,-1,3
 87 95 87 95 87 141 c 0,4,5
 87 182 87 182 113 211 c 128,-1,6
 139 240 139 240 181 261 c 128,-1,7
 223 282 223 282 275 297 c 1,8,9
 234 312 234 312 197.5 332 c 128,-1,10
 161 352 161 352 139 379 c 128,-1,11
 117 406 117 406 117 440 c 0,12,13
 117 485 117 485 154 515 c 128,-1,14
 191 545 191 545 253 560 c 128,-1,15
 315 575 315 575 387 575 c 256,16,17
 459 575 459 575 519 560 c 128,-1,18
 579 545 579 545 616 514.5 c 128,-1,19
 653 484 653 484 653 440 c 0,20,21
 653 387 653 387 603.5 354 c 128,-1,22
 554 321 554 321 479 300 c 1,23,24
 536 282 536 282 582 260 c 128,-1,25
 628 238 628 238 655 209.5 c 128,-1,26
 682 181 682 181 682 142 c 0,27,28
 682 98 682 98 645 64 c 128,-1,29
 608 30 608 30 540.5 10.5 c 128,-1,30
 473 -9 473 -9 379 -9 c 0,0,1
383 49 m 0,31,32
 474 49 474 49 522 76.5 c 128,-1,33
 570 104 570 104 570 146 c 0,34,35
 570 175 570 175 547.5 195 c 128,-1,36
 525 215 525 215 481 232.5 c 128,-1,37
 437 250 437 250 369 269 c 1,38,39
 318 255 318 255 279.5 237 c 128,-1,40
 241 219 241 219 220.5 195.5 c 128,-1,41
 200 172 200 172 200 142 c 0,42,43
 200 101 200 101 244 75 c 128,-1,44
 288 49 288 49 383 49 c 0,31,32
387 328 m 1,45,46
 431 340 431 340 465.5 354.5 c 128,-1,47
 500 369 500 369 520.5 389 c 128,-1,48
 541 409 541 409 541 436 c 0,49,50
 541 475 541 475 498.5 495 c 128,-1,51
 456 515 456 515 384 515 c 0,52,53
 313 515 313 515 271 495.5 c 128,-1,54
 229 476 229 476 229 436 c 0,55,56
 229 407 229 407 252 387 c 128,-1,57
 275 367 275 367 311 353 c 128,-1,58
 347 339 347 339 387 328 c 1,45,46
EndSplineSet
EndChar

StartChar: nine.deva
Encoding: 57 57 25
Width: 771
Flags: W
LayerCount: 2
Fore
SplineSet
279 -9 m 0,0,1
 249 -9 249 -9 218 -7 c 128,-1,2
 187 -5 187 -5 166 -2 c 1,3,-1
 166 61 l 1,4,5
 188 56 188 56 215.5 54 c 128,-1,6
 243 52 243 52 273 52 c 0,7,8
 360 52 360 52 418 69.5 c 128,-1,9
 476 87 476 87 510.5 118.5 c 128,-1,10
 545 150 545 150 561 190.5 c 128,-1,11
 577 231 577 231 579 277 c 1,12,-1
 572 277 l 1,13,14
 555 257 555 257 524.5 241.5 c 128,-1,15
 494 226 494 226 452.5 216.5 c 128,-1,16
 411 207 411 207 357 207 c 0,17,18
 229 207 229 207 153 254 c 128,-1,19
 77 301 77 301 77 387 c 0,20,21
 77 445 77 445 113.5 487 c 128,-1,22
 150 529 150 529 217.5 552 c 128,-1,23
 285 575 285 575 378 575 c 0,24,25
 449 575 449 575 507 560 c 128,-1,26
 565 545 565 545 607 512.5 c 128,-1,27
 649 480 649 480 671.5 430 c 128,-1,28
 694 380 694 380 694 310 c 0,29,30
 694 267 694 267 683.5 222 c 128,-1,31
 673 177 673 177 646.5 135.5 c 128,-1,32
 620 94 620 94 573.5 61.5 c 128,-1,33
 527 29 527 29 454.5 10 c 128,-1,34
 382 -9 382 -9 279 -9 c 0,0,1
369 263 m 0,35,36
 429 263 429 263 476.5 278 c 128,-1,37
 524 293 524 293 551.5 319 c 128,-1,38
 579 345 579 345 579 378 c 0,39,40
 579 399 579 399 567 422.5 c 128,-1,41
 555 446 555 446 530.5 467 c 128,-1,42
 506 488 506 488 467.5 501.5 c 128,-1,43
 429 515 429 515 376 515 c 0,44,45
 290 515 290 515 238.5 483.5 c 128,-1,46
 187 452 187 452 187 386 c 0,47,48
 187 322 187 322 235.5 292.5 c 128,-1,49
 284 263 284 263 369 263 c 0,35,36
EndSplineSet
EndChar

StartChar: colon.deva
Encoding: 58 58 26
Width: 771
Flags: W
LayerCount: 2
Fore
SplineSet
386.53515625 410 m 256,0,1
 353.125 410 353.125 410 329.995117188 426 c 128,-1,2
 306.865234375 442 306.865234375 442 306.865234375 478 c 0,3,4
 306.865234375 516 306.865234375 516 329.995117188 531 c 128,-1,5
 353.125 546 353.125 546 386.53515625 546 c 256,6,7
 419.9453125 546 419.9453125 546 442.432617188 531 c 128,-1,8
 464.919921875 516 464.919921875 516 464.919921875 478 c 0,9,10
 464.919921875 442 464.919921875 442 442.432617188 426 c 128,-1,11
 419.9453125 410 419.9453125 410 386.53515625 410 c 256,0,1
385.25 -10 m 256,12,13
 351.83984375 -10 351.83984375 -10 328.709960938 6 c 128,-1,14
 305.580078125 22 305.580078125 22 305.580078125 58 c 0,15,16
 305.580078125 96 305.580078125 96 328.709960938 111 c 128,-1,17
 351.83984375 126 351.83984375 126 385.25 126 c 256,18,19
 418.66015625 126 418.66015625 126 441.147460938 111 c 128,-1,20
 463.634765625 96 463.634765625 96 463.634765625 58 c 0,21,22
 463.634765625 22 463.634765625 22 441.147460938 6 c 128,-1,23
 418.66015625 -10 418.66015625 -10 385.25 -10 c 256,12,13
EndSplineSet
EndChar

StartChar: semicolon.deva
Encoding: 59 59 27
Width: 771
Flags: W
LayerCount: 2
Fore
SplineSet
271.455078125 -140 m 1,0,1
 285.58984375 -96 285.58984375 -96 298.440429688 -48.5 c 128,-1,2
 311.290039062 -1 311.290039062 -1 322.85546875 45 c 128,-1,3
 334.419921875 91 334.419921875 91 340.844726562 129 c 1,4,-1
 478.33984375 129 l 1,5,-1
 488.620117188 117 l 1,6,7
 479.625 88 479.625 88 465.490234375 55.5 c 128,-1,8
 451.35546875 23 451.35546875 23 435.29296875 -10.5 c 128,-1,9
 419.23046875 -44 419.23046875 -44 401.8828125 -77 c 128,-1,10
 384.53515625 -110 384.53515625 -110 366.544921875 -140 c 1,11,-1
 271.455078125 -140 l 1,0,1
415.375 410 m 256,12,13
 381.96484375 410 381.96484375 410 358.834960938 426 c 128,-1,14
 335.705078125 442 335.705078125 442 335.705078125 478 c 0,15,16
 335.705078125 516 335.705078125 516 358.834960938 531 c 128,-1,17
 381.96484375 546 381.96484375 546 415.375 546 c 256,18,19
 448.78515625 546 448.78515625 546 471.915039062 531 c 128,-1,20
 495.044921875 516 495.044921875 516 495.044921875 478 c 0,21,22
 495.044921875 442 495.044921875 442 471.915039062 426 c 128,-1,23
 448.78515625 410 448.78515625 410 415.375 410 c 256,12,13
EndSplineSet
EndChar

StartChar: less.deva
Encoding: 60 60 28
Width: 771
Flags: W
LayerCount: 2
Fore
SplineSet
655.099609375 116 m 1,0,-1
 115.400390625 323 l 1,1,-1
 115.400390625 373 l 1,2,-1
 655.099609375 608 l 1,3,-1
 655.099609375 530 l 1,4,-1
 236.190429688 351 l 1,5,-1
 655.099609375 194 l 1,6,-1
 655.099609375 116 l 1,0,-1
EndSplineSet
EndChar

StartChar: equal.deva
Encoding: 61 61 29
Width: 771
Flags: W
LayerCount: 2
Fore
SplineSet
89.7001953125 407 m 1,0,-1
 89.7001953125 487 l 1,1,-1
 680.799804688 487 l 1,2,-1
 680.799804688 407 l 1,3,-1
 89.7001953125 407 l 1,0,-1
89.7001953125 217 m 1,4,-1
 89.7001953125 297 l 1,5,-1
 680.799804688 297 l 1,6,-1
 680.799804688 217 l 1,7,-1
 89.7001953125 217 l 1,4,-1
EndSplineSet
EndChar

StartChar: greater.deva
Encoding: 62 62 30
Width: 771
Flags: W
LayerCount: 2
Fore
SplineSet
115.400390625 116 m 1,0,-1
 115.400390625 194 l 1,1,-1
 534.309570312 351 l 1,2,-1
 115.400390625 530 l 1,3,-1
 115.400390625 608 l 1,4,-1
 655.099609375 373 l 1,5,-1
 655.099609375 323 l 1,6,-1
 115.400390625 116 l 1,0,-1
EndSplineSet
EndChar

StartChar: question.deva
Encoding: 63 63 31
Width: 771
Flags: W
LayerCount: 2
Fore
SplineSet
295.299804688 220 m 2,0,1
 295.299804688 258 295.299804688 258 306.865234375 286 c 128,-1,2
 318.4296875 314 318.4296875 314 347.342773438 339.5 c 128,-1,3
 376.254882812 365 376.254882812 365 425.084960938 392 c 0,4,5
 468.775390625 416 468.775390625 416 495.1171875 437 c 128,-1,6
 521.459960938 458 521.459960938 458 533.66796875 483 c 128,-1,7
 545.875 508 545.875 508 545.875 545 c 0,8,9
 545.875 589 545.875 589 504.112304688 617.5 c 128,-1,10
 462.349609375 646 462.349609375 646 382.6796875 646 c 0,11,12
 315.860351562 646 315.860351562 646 262.532226562 633.5 c 128,-1,13
 209.205078125 621 209.205078125 621 156.51953125 602 c 1,14,-1
 115.400390625 677 l 1,15,16
 168.084960938 695 168.084960938 695 229.122070312 709.5 c 128,-1,17
 290.16015625 724 290.16015625 724 376.254882812 724 c 256,18,19
 462.349609375 724 462.349609375 724 524.672851562 702.5 c 128,-1,20
 586.995117188 681 586.995117188 681 621.047851562 642 c 128,-1,21
 655.099609375 603 655.099609375 603 655.099609375 549 c 0,22,23
 655.099609375 502 655.099609375 502 639.6796875 468 c 128,-1,24
 624.259765625 434 624.259765625 434 592.77734375 406.5 c 128,-1,25
 561.294921875 379 561.294921875 379 511.1796875 350 c 256,26,27
 461.065429688 321 461.065429688 321 436.0078125 300.5 c 128,-1,28
 410.950195312 280 410.950195312 280 403.240234375 260 c 128,-1,29
 395.530273438 240 395.530273438 240 395.530273438 211 c 2,30,-1
 395.530273438 202 l 1,31,-1
 295.299804688 202 l 1,32,-1
 295.299804688 220 l 2,0,1
350.5546875 -10 m 256,33,34
 317.14453125 -10 317.14453125 -10 294.014648438 6 c 128,-1,35
 270.884765625 22 270.884765625 22 270.884765625 58 c 0,36,37
 270.884765625 96 270.884765625 96 294.014648438 111 c 128,-1,38
 317.14453125 126 317.14453125 126 350.5546875 126 c 256,39,40
 383.96484375 126 383.96484375 126 407.094726562 111 c 128,-1,41
 430.224609375 96 430.224609375 96 430.224609375 58 c 0,42,43
 430.224609375 22 430.224609375 22 407.094726562 6 c 128,-1,44
 383.96484375 -10 383.96484375 -10 350.5546875 -10 c 256,33,34
EndSplineSet
EndChar

StartChar: bracketleft.deva
Encoding: 91 91 32
Width: 771
Flags: W
LayerCount: 2
Fore
SplineSet
108 832 m 1,0,-1
 302 832 l 1,1,-1
 302 762 l 1,2,-1
 188 762 l 1,3,-1
 188 -96 l 1,4,-1
 302 -96 l 1,5,-1
 302 -166 l 1,6,-1
 108 -166 l 1,7,-1
 108 832 l 1,0,-1
EndSplineSet
EndChar

StartChar: backslash.deva
Encoding: 92 92 33
Width: 771
Flags: W
LayerCount: 2
Fore
SplineSet
42 832 m 1,0,-1
 124 832 l 1,1,-1
 387 -166 l 1,2,-1
 305 -166 l 1,3,-1
 42 832 l 1,0,-1
EndSplineSet
EndChar

StartChar: bracketright.deva
Encoding: 93 93 34
Width: 771
Flags: W
LayerCount: 2
Fore
SplineSet
54 -96 m 1,0,-1
 167 -96 l 1,1,-1
 167 762 l 1,2,-1
 54 762 l 1,3,-1
 54 832 l 1,4,-1
 248 832 l 1,5,-1
 248 -166 l 1,6,-1
 54 -166 l 1,7,-1
 54 -96 l 1,0,-1
EndSplineSet
EndChar

StartChar: asciicircum.deva
Encoding: 94 94 35
Width: 771
Flags: W
LayerCount: 2
Fore
SplineSet
253 719 m 1,0,-1
 303 719 l 1,1,-1
 521 268 l 1,2,-1
 443 268 l 1,3,-1
 278 627 l 1,4,-1
 108 268 l 1,5,-1
 29 268 l 1,6,-1
 253 719 l 1,0,-1
EndSplineSet
EndChar

StartChar: underscore.deva
Encoding: 95 95 36
Width: 771
Flags: W
LayerCount: 2
Fore
SplineSet
-2 -90 m 1,0,-1
 413 -90 l 1,1,-1
 413 -158 l 1,2,-1
 -2 -158 l 1,3,-1
 -2 -90 l 1,0,-1
EndSplineSet
EndChar

StartChar: braceleft.deva
Encoding: 123 123 37
Width: 771
Flags: W
LayerCount: 2
Fore
SplineSet
590.849609375 -158 m 1,0,1
 512.46484375 -157 512.46484375 -157 455.282226562 -140 c 128,-1,2
 398.099609375 -123 398.099609375 -123 367.259765625 -87.5 c 128,-1,3
 336.419921875 -52 336.419921875 -52 336.419921875 1 c 2,4,-1
 336.419921875 148 l 2,5,6
 336.419921875 199 336.419921875 199 295.942382812 220.5 c 128,-1,7
 255.46484375 242 255.46484375 242 179.650390625 242 c 1,8,-1
 179.650390625 315 l 1,9,10
 255.46484375 316 255.46484375 316 295.942382812 337 c 128,-1,11
 336.419921875 358 336.419921875 358 336.419921875 408 c 2,12,-1
 336.419921875 556 l 2,13,14
 336.419921875 609 336.419921875 609 368.544921875 644 c 128,-1,15
 400.669921875 679 400.669921875 679 458.495117188 696.5 c 128,-1,16
 516.3203125 714 516.3203125 714 590.849609375 714 c 1,17,-1
 590.849609375 642 l 1,18,19
 547.16015625 641 547.16015625 641 515.03515625 631 c 128,-1,20
 482.91015625 621 482.91015625 621 465.5625 601 c 128,-1,21
 448.21484375 581 448.21484375 581 448.21484375 548 c 2,22,-1
 448.21484375 404 l 2,23,24
 448.21484375 353 448.21484375 353 413.51953125 322.5 c 128,-1,25
 378.825195312 292 378.825195312 292 308.150390625 282 c 1,26,-1
 308.150390625 276 l 1,27,28
 380.110351562 266 380.110351562 266 414.162109375 235.5 c 128,-1,29
 448.21484375 205 448.21484375 205 448.21484375 154 c 2,30,-1
 448.21484375 7 l 2,31,32
 448.21484375 -42 448.21484375 -42 485.48046875 -63.5 c 128,-1,33
 522.745117188 -85 522.745117188 -85 590.849609375 -86 c 1,34,-1
 590.849609375 -158 l 1,0,1
EndSplineSet
EndChar

StartChar: bar.deva
Encoding: 124 124 38
Width: 771
Flags: W
LayerCount: 2
Fore
SplineSet
338.84765625 -240 m 1,0,-1
 338.84765625 760 l 1,1,-1
 432.65234375 760 l 1,2,-1
 432.65234375 -240 l 1,3,-1
 338.84765625 -240 l 1,0,-1
EndSplineSet
EndChar

StartChar: braceright.deva
Encoding: 125 125 39
Width: 771
Flags: W
LayerCount: 2
Fore
SplineSet
179.650390625 714 m 1,0,1
 259.3203125 714 259.3203125 714 315.860351562 696.5 c 128,-1,2
 372.400390625 679 372.400390625 679 403.240234375 644 c 128,-1,3
 434.080078125 609 434.080078125 609 434.080078125 555 c 2,4,-1
 434.080078125 408 l 2,5,6
 434.080078125 357 434.080078125 357 474.557617188 335.5 c 128,-1,7
 515.03515625 314 515.03515625 314 590.849609375 314 c 1,8,-1
 590.849609375 241 l 1,9,10
 515.03515625 240 515.03515625 240 474.557617188 219 c 128,-1,11
 434.080078125 198 434.080078125 198 434.080078125 148 c 2,12,-1
 434.080078125 0 l 2,13,14
 434.080078125 -53 434.080078125 -53 401.955078125 -88 c 128,-1,15
 369.830078125 -123 369.830078125 -123 312.647460938 -140.5 c 128,-1,16
 255.46484375 -158 255.46484375 -158 179.650390625 -158 c 1,17,-1
 179.650390625 -86 l 1,18,19
 224.625 -85 224.625 -85 256.107421875 -75 c 128,-1,20
 287.58984375 -65 287.58984375 -65 304.9375 -44.5 c 128,-1,21
 322.28515625 -24 322.28515625 -24 322.28515625 8 c 2,22,-1
 322.28515625 152 l 2,23,24
 322.28515625 203 322.28515625 203 356.98046875 233.5 c 128,-1,25
 391.674804688 264 391.674804688 264 462.349609375 274 c 1,26,-1
 462.349609375 280 l 1,27,28
 391.674804688 290 391.674804688 290 356.98046875 320.5 c 128,-1,29
 322.28515625 351 322.28515625 351 322.28515625 402 c 2,30,-1
 322.28515625 549 l 2,31,32
 322.28515625 598 322.28515625 598 285.01953125 619.5 c 128,-1,33
 247.754882812 641 247.754882812 641 179.650390625 642 c 1,34,-1
 179.650390625 714 l 1,0,1
EndSplineSet
EndChar

StartChar: asciitilde.deva
Encoding: 126 126 40
Width: 771
Flags: W
LayerCount: 2
Fore
SplineSet
95.125 287 m 1,0,1
 98.98046875 316 98.98046875 316 106.690429688 346.5 c 128,-1,2
 114.400390625 377 114.400390625 377 131.10546875 403.5 c 128,-1,3
 147.809570312 430 147.809570312 430 176.72265625 446 c 128,-1,4
 205.634765625 462 205.634765625 462 251.89453125 462 c 0,5,6
 281.450195312 462 281.450195312 462 306.5078125 454.5 c 128,-1,7
 331.565429688 447 331.565429688 447 357.264648438 432.5 c 128,-1,8
 382.96484375 418 382.96484375 418 412.51953125 396 c 0,9,10
 439.504882812 377 439.504882812 377 465.205078125 361.5 c 128,-1,11
 490.905273438 346 490.905273438 346 517.889648438 346 c 0,12,13
 553.870117188 346 553.870117188 346 570.575195312 376.5 c 128,-1,14
 587.280273438 407 587.280273438 407 596.275390625 462 c 1,15,-1
 673.375 462 l 1,16,17
 669.51953125 436 669.51953125 436 661.16796875 406 c 128,-1,18
 652.815429688 376 652.815429688 376 636.110351562 349 c 128,-1,19
 619.405273438 322 619.405273438 322 590.4921875 304.5 c 128,-1,20
 561.580078125 287 561.580078125 287 516.60546875 287 c 0,21,22
 487.049804688 287 487.049804688 287 460.70703125 295 c 128,-1,23
 434.365234375 303 434.365234375 303 410.592773438 317.5 c 128,-1,24
 386.8203125 332 386.8203125 332 362.405273438 350 c 0,25,26
 332.849609375 373 332.849609375 373 307.150390625 388 c 128,-1,27
 281.450195312 403 281.450195312 403 251.89453125 403 c 0,28,29
 214.629882812 403 214.629882812 403 195.997070312 374.5 c 128,-1,30
 177.365234375 346 177.365234375 346 170.940429688 287 c 1,31,-1
 95.125 287 l 1,0,1
EndSplineSet
EndChar

StartChar: A
Encoding: 65 65 42
Width: 771
Flags: W
LayerCount: 2
Fore
SplineSet
675 551 m 1,0,-1
 675 0 l 1,1,-1
 594 0 l 1,2,-1
 594 551 l 1,3,-1
 521 551 l 1,4,-1
 521 622 l 1,5,-1
 755 622 l 5,6,-1
 755 551 l 5,7,-1
 675 551 l 1,0,-1
298 632 m 0,8,9
 376 632 376 632 417.5 593 c 128,-1,10
 459 554 459 554 459 495 c 0,11,12
 459 452 459 452 436.5 417.5 c 128,-1,13
 414 383 414 383 370 363 c 128,-1,14
 326 343 326 343 260 341 c 1,15,-1
 255 411 l 1,16,17
 323 413 323 413 351.5 435 c 128,-1,18
 380 457 380 457 380 494 c 0,19,20
 380 530 380 530 356.5 546 c 128,-1,21
 333 562 333 562 302 562 c 0,22,23
 265 562 265 562 235 552 c 128,-1,24
 205 542 205 542 171 525 c 1,25,-1
 146 594 l 1,26,27
 172 608 172 608 210.5 620 c 128,-1,28
 249 632 249 632 298 632 c 0,8,9
470 218 m 0,29,30
 470 172 470 172 449 141 c 128,-1,31
 428 110 428 110 392.5 95 c 128,-1,32
 357 80 357 80 312 80 c 0,33,34
 255 80 255 80 206.5 108 c 128,-1,35
 158 136 158 136 114.5 197 c 128,-1,36
 71 258 71 258 29 356 c 1,37,-1
 100 382 l 1,38,39
 129 311 129 311 160.5 259.5 c 128,-1,40
 192 208 192 208 228 180.5 c 128,-1,41
 264 153 264 153 305 153 c 0,42,43
 343 153 343 153 367 170.5 c 128,-1,44
 391 188 391 188 391 227 c 0,45,46
 391 275 391 275 358 310 c 128,-1,47
 325 345 325 345 278 374 c 1,48,-1
 337 377 l 1,49,-1
 380 386 l 1,50,51
 394 374 394 374 411 357 c 128,-1,52
 428 340 428 340 438 323 c 1,53,-1
 443 304 l 1,54,55
 456 285 456 285 463 264 c 128,-1,56
 470 243 470 243 470 218 c 0,29,30
486 350 m 0,57,58
 534 350 534 350 569 357.5 c 128,-1,59
 604 365 604 365 651 382 c 1,60,-1
 651 310 l 1,61,62
 608 291 608 291 573.5 285 c 128,-1,63
 539 279 539 279 498 279 c 0,64,65
 483 279 483 279 463 281.5 c 128,-1,66
 443 284 443 284 425.5 287.5 c 128,-1,67
 408 291 408 291 400 294 c 1,68,-1
 353 350 l 1,69,-1
 359 365 l 1,70,71
 388 358 388 358 420 354 c 128,-1,72
 452 350 452 350 486 350 c 0,57,58
EndSplineSet
EndChar

StartChar: B
Encoding: 66 66 43
Width: 771
Flags: W
AnchorPoint: "Anchor-1" 373 798 basechar 0
LayerCount: 2
Fore
SplineSet
327 638 m 5,0,1
 314 661 314 661 292 687.5 c 132,-1,2
 270 714 270 714 246 740 c 132,-1,3
 222 766 222 766 204 785 c 5,4,-1
 204 798 l 5,5,-1
 264 798 l 5,6,7
 290 781 290 781 318 757 c 132,-1,8
 346 733 346 733 371 706 c 5,9,10
 398 733 398 733 426 757 c 132,-1,11
 454 781 454 781 480 798 c 5,12,-1
 542 798 l 5,13,-1
 542 785 l 5,14,15
 523 766 523 766 498.5 740 c 132,-1,16
 474 714 474 714 451.5 687.5 c 132,-1,17
 429 661 429 661 417 638 c 5,18,-1
 327 638 l 5,0,1
673 551 m 5,19,-1
 570 551 l 5,20,-1
 570 0 l 5,21,-1
 489 0 l 5,22,-1
 489 201 l 5,23,-1
 504 175 l 5,24,25
 486 162 486 162 461.5 148.5 c 132,-1,26
 437 135 437 135 404.5 126.5 c 132,-1,27
 372 118 372 118 329 118 c 4,28,29
 273 118 273 118 228.5 139 c 132,-1,30
 184 160 184 160 159 197.5 c 132,-1,31
 134 235 134 235 134 286 c 4,32,33
 134 343 134 343 161.5 383 c 132,-1,34
 189 423 189 423 238.5 443.5 c 132,-1,35
 288 464 288 464 353 464 c 4,36,37
 367 464 367 464 387 462.5 c 132,-1,38
 407 461 407 461 426.5 459 c 132,-1,39
 446 457 446 457 457 454 c 5,40,-1
 451 385 l 5,41,42
 431 389 431 389 406 392 c 132,-1,43
 381 395 381 395 356 395 c 4,44,45
 290 395 290 395 252.5 367.5 c 132,-1,46
 215 340 215 340 215 287 c 4,47,48
 215 235 215 235 248.5 209.5 c 132,-1,49
 282 184 282 184 330 184 c 4,50,51
 371 184 371 184 403.5 197 c 132,-1,52
 436 210 436 210 460.5 230 c 132,-1,53
 485 250 485 250 502 271 c 5,54,-1
 489 220 l 5,55,-1
 489 551 l 5,56,-1
 88 551 l 5,57,-1
 88 622 l 5,58,-1
 673 622 l 5,59,-1
 673 551 l 5,19,-1
293 424 m 5,60,-1
 465 209 l 5,61,-1
 419 167 l 5,62,-1
 231 401 l 5,63,-1
 293 424 l 5,60,-1
EndSplineSet
EndChar

StartChar: C
Encoding: 67 67 44
Width: 771
Flags: W
LayerCount: 2
Fore
SplineSet
305 637 m 5,0,1
 292 660 292 660 270 686.5 c 132,-1,2
 248 713 248 713 224 739 c 132,-1,3
 200 765 200 765 182 784 c 5,4,-1
 182 797 l 5,5,-1
 242 797 l 5,6,7
 268 780 268 780 296 756 c 132,-1,8
 324 732 324 732 349 705 c 5,9,10
 376 732 376 732 404 756 c 132,-1,11
 432 780 432 780 458 797 c 5,12,-1
 520 797 l 5,13,-1
 520 784 l 5,14,15
 501 765 501 765 476.5 739 c 132,-1,16
 452 713 452 713 429.5 686.5 c 132,-1,17
 407 660 407 660 395 637 c 5,18,-1
 305 637 l 5,0,1
480.959960938 -10 m 0,19,20
 329 -10 329 -10 245.8046875 57 c 0,21,22
 162 124 162 124 162.280273438 245 c 0,23,24
 162 325 162 325 199.544921875 380.5 c 128,-1,25
 237 436 237 436 306.200195312 465 c 1,26,-1
 47.294921875 465 l 1,27,-1
 47.294921875 537 l 1,28,-1
 668.57 537 l 1,29,-1
 668.57 465 l 1,30,-1
 537.5 465 l 2,31,32
 417 465 417 465 347.962890625 411.5 c 128,-1,33
 279 358 279 358 279.21484375 252 c 0,34,35
 279 165 279 165 334.469726562 114.5 c 128,-1,36
 390 64 390 64 492.525390625 64 c 0,37,38
 540 64 540 64 583.759765625 73.5 c 0,39,40
 627 83 627 83 668.5703125 99 c 1,41,-1
 668.5703125 21 l 1,42,43
 631 5 631 5 586.330078125 -2.5 c 0,44,45
 541 -10 541 -10 480.959960938 -10 c 0,19,20
EndSplineSet
EndChar

StartChar: D
Encoding: 68 68 45
Width: 771
Flags: W
AnchorPoint: "Anchor-2" 393 0 basechar 0
AnchorPoint: "Anchor-1" 510 0 basechar 0
AnchorPoint: "Anchor-0" 409 622 basechar 0
LayerCount: 2
Fore
SplineSet
527 -58 m 5,0,1
 511 -32 511 -32 496 -5 c 132,-1,2
 481 22 481 22 469 46.5 c 132,-1,3
 457 71 457 71 449 89 c 6,4,-1
 435 121 l 6,5,6
 429 129 429 129 424.5 147 c 132,-1,7
 420 165 420 165 420 176 c 4,8,9
 420 211 420 211 441 225.5 c 132,-1,10
 462 240 462 240 487 240 c 4,11,12
 530 240 530 240 552.5 215.5 c 132,-1,13
 575 191 575 191 575 162 c 4,14,15
 575 135 575 135 565 118.5 c 132,-1,16
 555 102 555 102 538 93 c 132,-1,17
 521 84 521 84 500 79 c 6,18,-1
 475 77 l 6,19,20
 462 73 462 73 442.5 70.5 c 132,-1,21
 423 68 423 68 401 68 c 4,22,23
 359 68 359 68 316.5 78.5 c 132,-1,24
 274 89 274 89 238.5 112.5 c 132,-1,25
 203 136 203 136 181.5 175.5 c 132,-1,26
 160 215 160 215 160 272 c 4,27,28
 160 316 160 316 175.5 347.5 c 132,-1,29
 191 379 191 379 216 401 c 4,30,31
 249 430 249 430 297 443 c 132,-1,32
 345 456 345 456 404 456 c 6,33,-1
 445 456 l 5,34,-1
 409 420 l 5,35,-1
 409 551 l 5,36,-1
 114 551 l 5,37,-1
 114 622 l 5,38,-1
 648 622 l 5,39,-1
 648 551 l 5,40,-1
 490 551 l 5,41,-1
 490 385 l 5,42,-1
 441 385 l 6,43,44
 383 385 383 385 347.5 378 c 132,-1,45
 312 371 312 371 287 355 c 4,46,47
 265 340 265 340 252.5 317 c 132,-1,48
 240 294 240 294 240 262 c 4,49,50
 240 209 240 209 279.5 174.5 c 132,-1,51
 319 140 319 140 401 140 c 4,52,53
 413 140 413 140 426 141 c 132,-1,54
 439 142 439 142 467 148 c 5,55,-1
 515 104 l 5,56,57
 529 75 529 75 546.5 46 c 132,-1,58
 564 17 564 17 594 -24 c 5,59,-1
 527 -58 l 5,0,1
EndSplineSet
EndChar

StartChar: E
Encoding: 69 69 46
Width: 771
Flags: W
AnchorPoint: "Anchor-2" 409.525 536 basechar 0
AnchorPoint: "Anchor-1" 428.8 0 basechar 0
LayerCount: 2
Fore
SplineSet
418.51953125 -10 m 0,0,1
 270.745117188 -10 270.745117188 -10 200.0703125 34.5 c 128,-1,2
 129.39453125 79 129.39453125 79 129.39453125 146 c 0,3,4
 129.39453125 186 129.39453125 186 150.59765625 211.5 c 128,-1,5
 171.799804688 237 171.799804688 237 206.495117188 252.5 c 128,-1,6
 241.190429688 268 241.190429688 268 282.309570312 277 c 1,7,-1
 282.309570312 282 l 1,8,9
 243.759765625 291 243.759765625 291 214.84765625 307 c 128,-1,10
 185.934570312 323 185.934570312 323 169.872070312 347.5 c 128,-1,11
 153.809570312 372 153.809570312 372 153.809570312 404 c 0,12,13
 153.809570312 449 153.809570312 449 187.862304688 481 c 128,-1,14
 221.915039062 513 221.915039062 513 281.66796875 529.5 c 128,-1,15
 341.419921875 546 341.419921875 546 418.51953125 546 c 0,16,17
 493.049804688 546 493.049804688 546 546.377929688 536 c 128,-1,18
 599.705078125 526 599.705078125 526 651.10546875 508 c 1,19,-1
 608.700195312 438 l 1,20,21
 566.294921875 453 566.294921875 453 521.962890625 463 c 128,-1,22
 477.629882812 473 477.629882812 473 417.235351562 473 c 0,23,24
 340.134765625 473 340.134765625 473 300.942382812 454 c 128,-1,25
 261.75 435 261.75 435 261.75 397 c 0,26,27
 261.75 353 261.75 353 315.077148438 334 c 128,-1,28
 368.405273438 315 368.405273438 315 458.35546875 315 c 2,29,-1
 530.315429688 315 l 1,30,-1
 530.315429688 243 l 1,31,-1
 436.509765625 243 l 2,32,33
 338.849609375 243 338.849609375 243 290.662109375 220 c 128,-1,34
 242.474609375 197 242.474609375 197 242.474609375 151 c 0,35,36
 242.474609375 118 242.474609375 118 266.889648438 98.5 c 128,-1,37
 291.3046875 79 291.3046875 79 332.424804688 70.5 c 128,-1,38
 373.544921875 62 373.544921875 62 424.9453125 62 c 0,39,40
 496.905273438 62 496.905273438 62 551.517578125 75 c 128,-1,41
 606.129882812 88 606.129882812 88 648.53515625 104 c 1,42,-1
 648.53515625 27 l 1,43,44
 608.700195312 11 608.700195312 11 553.4453125 0.5 c 128,-1,45
 498.190429688 -10 498.190429688 -10 418.51953125 -10 c 0,0,1
EndSplineSet
EndChar

StartChar: F
Encoding: 70 70 47
Width: 771
Flags: W
AnchorPoint: "Anchor-3" 742.2 572 basechar 0
AnchorPoint: "Anchor-2" 408.1 572 basechar 0
AnchorPoint: "Anchor-1" 408.1 0 basechar 0
LayerCount: 2
Fore
SplineSet
171.66015625 0 m 1,0,-1
 171.66015625 572 l 1,1,-1
 618.83984375 572 l 1,2,-1
 618.83984375 501 l 1,3,-1
 283.455078125 501 l 1,4,-1
 283.455078125 309 l 1,5,-1
 599.565429688 309 l 1,6,-1
 599.565429688 238 l 1,7,-1
 283.455078125 238 l 1,8,-1
 283.455078125 0 l 1,9,-1
 171.66015625 0 l 1,0,-1
EndSplineSet
EndChar

StartChar: G
Encoding: 71 71 48
Width: 771
Flags: W
LayerCount: 2
Fore
SplineSet
305 637 m 5,0,1
 292 660 292 660 270 686.5 c 132,-1,2
 248 713 248 713 224 739 c 132,-1,3
 200 765 200 765 182 784 c 5,4,-1
 182 797 l 5,5,-1
 242 797 l 5,6,7
 268 780 268 780 296 756 c 132,-1,8
 324 732 324 732 349 705 c 5,9,10
 376 732 376 732 404 756 c 132,-1,11
 432 780 432 780 458 797 c 5,12,-1
 520 797 l 5,13,-1
 520 784 l 5,14,15
 501 765 501 765 476.5 739 c 132,-1,16
 452 713 452 713 429.5 686.5 c 132,-1,17
 407 660 407 660 395 637 c 5,18,-1
 305 637 l 5,0,1
360 546 m 0,19,20
 413 546 413 546 455.5 526 c 128,-1,21
 498 506 498 506 528 465 c 1,22,-1
 533 465 l 1,23,-1
 545 536 l 1,24,-1
 615 536 l 1,25,-1
 615 -9 l 2,26,27
 615 -85 615 -85 589 -136.5 c 128,-1,28
 563 -188 563 -188 510 -214 c 128,-1,29
 457 -240 457 -240 375 -240 c 0,30,31
 317 -240 317 -240 268.5 -231.5 c 128,-1,32
 220 -223 220 -223 182 -206 c 1,33,-1
 182 -125 l 1,34,35
 220 -145 220 -145 271 -156 c 128,-1,36
 322 -167 322 -167 380 -167 c 0,37,38
 449 -167 449 -167 488.5 -126.5 c 128,-1,39
 528 -86 528 -86 528 -16 c 2,40,-1
 528 5 l 2,41,42
 528 17 528 17 529 39.5 c 128,-1,43
 530 62 530 62 531 71 c 1,44,-1
 527 71 l 1,45,46
 499 30 499 30 457.5 10 c 128,-1,47
 416 -10 416 -10 361 -10 c 0,48,49
 257 -10 257 -10 198.5 63 c 128,-1,50
 140 136 140 136 140 267 c 0,51,52
 140 395 140 395 198.5 470.5 c 128,-1,53
 257 546 257 546 360 546 c 0,19,20
372 472 m 0,54,55
 327 472 327 472 295.5 448 c 128,-1,56
 264 424 264 424 247.5 378 c 128,-1,57
 231 332 231 332 231 266 c 0,58,59
 231 167 231 167 267.5 114.5 c 128,-1,60
 304 62 304 62 374 62 c 0,61,62
 415 62 415 62 444 72.5 c 128,-1,63
 473 83 473 83 492 105.5 c 128,-1,64
 511 128 511 128 520 163 c 128,-1,65
 529 198 529 198 529 246 c 2,66,-1
 529 267 l 2,67,68
 529 340 529 340 512.5 385 c 128,-1,69
 496 430 496 430 461 451 c 128,-1,70
 426 472 426 472 372 472 c 0,54,55
EndSplineSet
EndChar

StartChar: H
Encoding: 72 72 49
Width: 771
Flags: W
AnchorPoint: "Anchor-2" 372 0 basechar 0
LayerCount: 2
Fore
SplineSet
243 229 m 5,0,1
 218 247 218 247 196.5 277.5 c 132,-1,2
 175 308 175 308 175 352 c 4,3,4
 175 380 175 380 185 400 c 132,-1,5
 195 420 195 420 212 433 c 4,6,7
 227 445 227 445 245 452 c 132,-1,8
 263 459 263 459 285.5 462 c 132,-1,9
 308 465 308 465 335 465 c 6,10,-1
 467 465 l 5,11,-1
 467 551 l 5,12,-1
 106 551 l 5,13,-1
 106 622 l 5,14,-1
 652 622 l 5,15,-1
 652 551 l 5,16,-1
 548 551 l 5,17,-1
 548 394 l 5,18,-1
 336 394 l 6,19,20
 305 394 305 394 292 391 c 132,-1,21
 279 388 279 388 270 381 c 4,22,23
 263 375 263 375 259 366.5 c 132,-1,24
 255 358 255 358 255 347 c 4,25,26
 255 323 255 323 269.5 305 c 132,-1,27
 284 287 284 287 303 274 c 5,28,-1
 243 229 l 5,0,1
427 69 m 5,29,30
 463 80 463 80 486 98 c 132,-1,31
 509 116 509 116 509 148 c 4,32,33
 509 186 509 186 480 207.5 c 132,-1,34
 451 229 451 229 386 229 c 4,35,36
 317 229 317 229 280.5 200.5 c 132,-1,37
 244 172 244 172 244 124 c 4,38,39
 244 101 244 101 250 79.5 c 132,-1,40
 256 58 256 58 273 34 c 132,-1,41
 290 10 290 10 322.5 -20 c 132,-1,42
 355 -50 355 -50 408 -89 c 5,43,-1
 354 -142 l 5,44,45
 293 -94 293 -94 250.5 -51.5 c 132,-1,46
 208 -9 208 -9 186 35 c 132,-1,47
 164 79 164 79 164 130 c 4,48,49
 164 186 164 186 196.5 224 c 132,-1,50
 229 262 229 262 280.5 281 c 132,-1,51
 332 300 332 300 390 300 c 4,52,53
 459 300 459 300 502.5 279 c 132,-1,54
 546 258 546 258 566.5 224.5 c 132,-1,55
 587 191 587 191 587 153 c 4,56,57
 587 95 587 95 553 57 c 132,-1,58
 519 19 519 19 454 2 c 5,59,-1
 427 69 l 5,29,30
EndSplineSet
EndChar

StartChar: I
Encoding: 73 73 50
Width: 771
Flags: W
AnchorPoint: "Anchor-4" 416.85 283 basechar 0
AnchorPoint: "Anchor-3" 645.58 760 basechar 0
AnchorPoint: "Anchor-1" 418.135 0 basechar 0
LayerCount: 2
Fore
SplineSet
331 638 m 5,0,1
 318 661 318 661 296 687.5 c 132,-1,2
 274 714 274 714 250 740 c 132,-1,3
 226 766 226 766 208 785 c 5,4,-1
 208 798 l 5,5,-1
 268 798 l 5,6,7
 294 781 294 781 322 757 c 132,-1,8
 350 733 350 733 375 706 c 5,9,10
 402 733 402 733 430 757 c 132,-1,11
 458 781 458 781 484 798 c 5,12,-1
 546 798 l 5,13,-1
 546 785 l 5,14,15
 527 766 527 766 502.5 740 c 132,-1,16
 478 714 478 714 455.5 687.5 c 132,-1,17
 433 661 433 661 421 638 c 5,18,-1
 331 638 l 5,0,1
108.450195312 0 m 1,19,-1
 108.450195312 60 l 1,20,-1
 353.884765625 75 l 1,21,-1
 353.884765625 461 l 1,22,-1
 129.009765625 474 l 1,23,-1
 129.009765625 536 l 1,24,-1
 469.53515625 536 l 1,25,-1
 469.53515625 75 l 1,26,-1
 699.549804688 60 l 1,27,-1
 699.549804688 0 l 1,28,-1
 108.450195312 0 l 1,19,-1
EndSplineSet
EndChar

StartChar: J
Encoding: 74 74 51
Width: 771
Flags: W
AnchorPoint: "Anchor-3" 744.338 572 basechar 0
AnchorPoint: "Anchor-2" 534.883 572 basechar 0
AnchorPoint: "Anchor-1" 384.537 -15 basechar 0
LayerCount: 2
Fore
SplineSet
348.557617188 -15 m 0,0,1
 306.15234375 -15 306.15234375 -15 260.53515625 -7 c 128,-1,2
 214.91796875 1 214.91796875 1 178.9375 14 c 1,3,-1
 178.9375 99 l 1,4,5
 208.4921875 89 208.4921875 89 251.540039062 78.5 c 128,-1,6
 294.587890625 68 294.587890625 68 339.5625 68 c 0,7,8
 403.8125 68 403.8125 68 442.362304688 103.5 c 128,-1,9
 480.912109375 139 480.912109375 139 480.912109375 224 c 2,10,-1
 480.912109375 572 l 1,11,-1
 596.5625 572 l 1,12,-1
 596.5625 212 l 2,13,14
 596.5625 140 596.5625 140 568.29296875 89 c 128,-1,15
 540.022460938 38 540.022460938 38 485.41015625 11.5 c 128,-1,16
 430.797851562 -15 430.797851562 -15 348.557617188 -15 c 0,0,1
EndSplineSet
EndChar

StartChar: K
Encoding: 75 75 52
Width: 771
Flags: W
AnchorPoint: "Anchor-2" 411 0 basechar 0
AnchorPoint: "Anchor-1" 371 0 basechar 0
AnchorPoint: "Anchor-0" 371 622 basechar 0
LayerCount: 2
Fore
SplineSet
372 637 m 1,0,1
 359 660 359 660 337 686.5 c 128,-1,2
 315 713 315 713 291 739 c 128,-1,3
 267 765 267 765 249 784 c 1,4,-1
 249 797 l 1,5,-1
 309 797 l 1,6,7
 335 780 335 780 363 756 c 128,-1,8
 391 732 391 732 416 705 c 1,9,10
 443 732 443 732 471 756 c 128,-1,11
 499 780 499 780 525 797 c 1,12,-1
 587 797 l 1,13,-1
 587 784 l 1,14,15
 568 765 568 765 543.5 739 c 128,-1,16
 519 713 519 713 496.5 686.5 c 128,-1,17
 474 660 474 660 462 637 c 1,18,-1
 372 637 l 1,0,1
726 551 m 5,19,-1
 452 551 l 1,20,-1
 452 336 l 1,21,-1
 448 345 l 1,22,23
 472 371 472 371 503 385 c 128,-1,24
 534 399 534 399 569 399 c 0,25,26
 634 399 634 399 675 357.5 c 128,-1,27
 716 316 716 316 716 239 c 0,28,29
 716 193 716 193 701 141 c 128,-1,30
 686 89 686 89 651 39 c 1,31,-1
 579 80 l 1,32,33
 604 112 604 112 620 154 c 128,-1,34
 636 196 636 196 636 237 c 0,35,36
 636 284 636 284 616.5 307 c 128,-1,37
 597 330 597 330 562 330 c 0,38,39
 535 330 535 330 506 311 c 128,-1,40
 477 292 477 292 447 252 c 1,41,-1
 452 277 l 1,42,-1
 452 0 l 1,43,-1
 371 0 l 1,44,-1
 371 210 l 1,45,-1
 385 186 l 1,46,47
 369 172 369 172 346.5 156 c 128,-1,48
 324 140 324 140 294.5 129 c 128,-1,49
 265 118 265 118 226 118 c 0,50,51
 179 118 179 118 137.5 137 c 128,-1,52
 96 156 96 156 71 194.5 c 128,-1,53
 46 233 46 233 46 290 c 0,54,55
 46 344 46 344 71 383 c 128,-1,56
 96 422 96 422 141 443 c 128,-1,57
 186 464 186 464 244 464 c 0,58,59
 267 464 267 464 295.5 460.5 c 128,-1,60
 324 457 324 457 339 454 c 1,61,-1
 333 381 l 1,62,63
 317 385 317 385 292.5 388 c 128,-1,64
 268 391 268 391 249 391 c 0,65,66
 191 391 191 391 159 365 c 128,-1,67
 127 339 127 339 127 292 c 0,68,69
 127 239 127 239 157.5 213.5 c 128,-1,70
 188 188 188 188 228 188 c 0,71,72
 278 188 278 188 316.5 215 c 128,-1,73
 355 242 355 242 388 278 c 1,74,-1
 371 224 l 1,75,-1
 371 551 l 1,76,-1
 37 551 l 1,77,-1
 37 622 l 1,78,-1
 726 622 l 5,79,-1
 726 551 l 5,19,-1
EndSplineSet
EndChar

StartChar: L
Encoding: 76 76 53
Width: 771
Flags: W
LayerCount: 2
Fore
SplineSet
453.392578125 599 m 4,0,1
 524 599 524 599 580.607421875 587 c 4,2,3
 637 575 637 575 680.837890625 558 c 5,4,-1
 641.002929688 488 l 5,5,6
 602 502 602 502 555.549804688 514 c 132,-1,7
 509 526 509 526 455.962890625 526 c 4,8,9
 383 526 383 526 344.16796875 496.5 c 4,10,11
 305.6171875 466.70412445 305.6171875 466.70412445 305.6171875 401 c 6,12,-1
 305.6171875 359 l 5,13,-1
 567.7578125 359 l 5,14,-1
 567.7578125 293 l 5,15,-1
 305.6171875 293 l 5,16,-1
 305.6171875 217 l 2,17,18
 305.979491127 177.250116369 305.979491127 177.250116369 293.41015625 157.5 c 0,19,20
 281 138 281 138 261.28515625 122 c 0,21,22
 241 106 241 106 218.237304688 95 c 1,23,-1
 711.677734375 95 l 1,24,-1
 711.677734375 15 l 1,25,-1
 65.322265625 15 l 1,26,-1
 65.322265625 89 l 1,27,28
 103 96 103 96 130.857421875 112.5 c 0,29,30
 151 124 151 124 175.83203125 150.5 c 0,31,32
 192.537109375 168.501194539 192.537109375 168.501194539 192.537109375 216 c 2,33,-1
 192.537109375 293 l 5,34,-1
 69.177734375 293 l 5,35,-1
 69.177734375 359 l 5,36,-1
 192.537109375 359 l 5,37,-1
 192.537109375 410 l 6,38,39
 193.023207071 470.907836254 193.023207071 470.907836254 224.662109375 512 c 4,40,41
 257 554 257 554 315.897460938 576.5 c 4,42,43
 375 599 375 599 453.392578125 599 c 4,0,1
EndSplineSet
EndChar

StartChar: M
Encoding: 77 77 54
Width: 771
Flags: W
AnchorPoint: "Anchor-1" 377 798 basechar 0
LayerCount: 2
Fore
SplineSet
331 638 m 5,0,1
 318 661 318 661 296 687.5 c 132,-1,2
 274 714 274 714 250 740 c 132,-1,3
 226 766 226 766 208 785 c 5,4,-1
 208 798 l 5,5,-1
 268 798 l 5,6,7
 294 781 294 781 322 757 c 132,-1,8
 350 733 350 733 375 706 c 5,9,10
 402 733 402 733 430 757 c 132,-1,11
 458 781 458 781 484 798 c 5,12,-1
 546 798 l 5,13,-1
 546 785 l 5,14,15
 527 766 527 766 502.5 740 c 132,-1,16
 478 714 478 714 455.5 687.5 c 132,-1,17
 433 661 433 661 421 638 c 5,18,-1
 331 638 l 5,0,1
580 551 m 1,19,-1
 580 0 l 1,20,-1
 499 0 l 1,21,-1
 499 250 l 1,22,-1
 278 250 l 1,23,-1
 278 213 l 2,24,25
 278 180 278 180 263.5 165.5 c 128,-1,26
 249 151 249 151 230 151 c 256,27,28
 211 151 211 151 190 163.5 c 128,-1,29
 169 176 169 176 151 195.5 c 128,-1,30
 133 215 133 215 121.5 237 c 128,-1,31
 110 259 110 259 110 278 c 0,32,33
 110 296 110 296 123.5 308.5 c 128,-1,34
 137 321 137 321 171 321 c 2,35,-1
 197 321 l 1,36,-1
 197 551 l 1,37,-1
 71 551 l 1,38,-1
 71 622 l 1,39,-1
 683 622 l 1,40,-1
 683 551 l 1,41,-1
 580 551 l 1,19,-1
499 551 m 1,42,-1
 278 551 l 1,43,-1
 278 321 l 1,44,-1
 499 321 l 1,45,-1
 499 551 l 1,42,-1
EndSplineSet
EndChar

StartChar: N
Encoding: 78 78 55
Width: 771
Flags: W
AnchorPoint: "Anchor-1" 375 798 basechar 0
LayerCount: 2
Fore
SplineSet
329 638 m 5,0,1
 316 661 316 661 294 687.5 c 132,-1,2
 272 714 272 714 248 740 c 132,-1,3
 224 766 224 766 206 785 c 5,4,-1
 206 798 l 5,5,-1
 266 798 l 5,6,7
 292 781 292 781 320 757 c 132,-1,8
 348 733 348 733 373 706 c 5,9,10
 400 733 400 733 428 757 c 132,-1,11
 456 781 456 781 482 798 c 5,12,-1
 544 798 l 5,13,-1
 544 785 l 5,14,15
 525 766 525 766 500.5 740 c 132,-1,16
 476 714 476 714 453.5 687.5 c 132,-1,17
 431 661 431 661 419 638 c 5,18,-1
 329 638 l 5,0,1
90 622 m 5,19,-1
 659 622 l 5,20,-1
 659 551 l 5,21,-1
 556 551 l 5,22,-1
 556 0 l 5,23,-1
 475 0 l 5,24,-1
 475 298 l 5,25,-1
 294 298 l 5,26,-1
 294 244 l 6,27,28
 294 216 294 216 280 202 c 132,-1,29
 266 188 266 188 243 188 c 4,30,31
 225 188 225 188 204.5 200 c 132,-1,32
 184 212 184 212 166.5 232 c 132,-1,33
 149 252 149 252 138 274.5 c 132,-1,34
 127 297 127 297 127 318 c 4,35,36
 127 341 127 341 140.5 355 c 132,-1,37
 154 369 154 369 188 369 c 6,38,-1
 475 369 l 5,39,-1
 475 551 l 5,40,-1
 90 551 l 5,41,-1
 90 622 l 5,19,-1
EndSplineSet
EndChar

StartChar: O
Encoding: 79 79 56
Width: 771
Flags: W
AnchorPoint: "Anchor-1" 379 794 basechar 0
LayerCount: 2
Fore
SplineSet
333 634 m 5,0,1
 320 657 320 657 298 683.5 c 132,-1,2
 276 710 276 710 252 736 c 132,-1,3
 228 762 228 762 210 781 c 5,4,-1
 210 794 l 5,5,-1
 270 794 l 5,6,7
 296 777 296 777 324 753 c 132,-1,8
 352 729 352 729 377 702 c 5,9,10
 404 729 404 729 432 753 c 132,-1,11
 460 777 460 777 486 794 c 5,12,-1
 548 794 l 5,13,-1
 548 781 l 5,14,15
 529 762 529 762 504.5 736 c 132,-1,16
 480 710 480 710 457.5 683.5 c 132,-1,17
 435 657 435 657 423 634 c 5,18,-1
 333 634 l 5,0,1
628 269 m 0,19,20
 628 202 628 202 610.5 150.5 c 128,-1,21
 593 99 593 99 560.5 63 c 128,-1,22
 528 27 528 27 481.5 8.5 c 128,-1,23
 435 -10 435 -10 378 -10 c 0,24,25
 325 -10 325 -10 280 8.5 c 128,-1,26
 235 27 235 27 202 63 c 128,-1,27
 169 99 169 99 150.5 150.5 c 128,-1,28
 132 202 132 202 132 269 c 0,29,30
 132 358 132 358 162 419.5 c 128,-1,31
 192 481 192 481 248 513.5 c 128,-1,32
 304 546 304 546 381 546 c 0,33,34
 454 546 454 546 509.5 513.5 c 128,-1,35
 565 481 565 481 596.5 419.5 c 128,-1,36
 628 358 628 358 628 269 c 0,19,20
223 269 m 0,37,38
 223 206 223 206 239.5 159.5 c 128,-1,39
 256 113 256 113 291 88 c 128,-1,40
 326 63 326 63 380 63 c 256,41,42
 434 63 434 63 469 88 c 128,-1,43
 504 113 504 113 520.5 159.5 c 128,-1,44
 537 206 537 206 537 269 c 0,45,46
 537 333 537 333 520 378 c 128,-1,47
 503 423 503 423 468.5 447.5 c 128,-1,48
 434 472 434 472 379 472 c 0,49,50
 297 472 297 472 260 418 c 128,-1,51
 223 364 223 364 223 269 c 0,37,38
EndSplineSet
EndChar

StartChar: P
Encoding: 80 80 57
Width: 771
Flags: W
AnchorPoint: "Anchor-1" 379 797 basechar 0
LayerCount: 2
Fore
SplineSet
333 637 m 5,0,1
 320 660 320 660 298 686.5 c 132,-1,2
 276 713 276 713 252 739 c 132,-1,3
 228 765 228 765 210 784 c 5,4,-1
 210 797 l 5,5,-1
 270 797 l 5,6,7
 296 780 296 780 324 756 c 132,-1,8
 352 732 352 732 377 705 c 5,9,10
 404 732 404 732 432 756 c 132,-1,11
 460 780 460 780 486 797 c 5,12,-1
 548 797 l 5,13,-1
 548 784 l 5,14,15
 529 765 529 765 504.5 739 c 132,-1,16
 480 713 480 713 457.5 686.5 c 132,-1,17
 435 660 435 660 423 637 c 5,18,-1
 333 637 l 5,0,1
573 551 m 1,19,-1
 573 0 l 1,20,-1
 492 0 l 1,21,-1
 492 227 l 1,22,-1
 511 203 l 1,23,24
 490 189 490 189 466 175.5 c 128,-1,25
 442 162 442 162 413.5 154 c 128,-1,26
 385 146 385 146 348 146 c 0,27,28
 308 146 308 146 275.5 159.5 c 128,-1,29
 243 173 243 173 222 194 c 0,30,31
 205 212 205 212 194 233.5 c 128,-1,32
 183 255 183 255 178 285 c 128,-1,33
 173 315 173 315 173 358 c 2,34,-1
 173 551 l 1,35,-1
 94 551 l 1,36,-1
 94 622 l 1,37,-1
 677 622 l 1,38,-1
 677 551 l 1,39,-1
 573 551 l 1,19,-1
492 551 m 1,40,-1
 254 551 l 1,41,-1
 254 369 l 2,42,43
 254 328 254 328 257 304 c 128,-1,44
 260 280 260 280 266.5 265.5 c 128,-1,45
 273 251 273 251 284 240 c 0,46,47
 296 228 296 228 314 222.5 c 128,-1,48
 332 217 332 217 357 217 c 0,49,50
 388 217 388 217 416.5 229 c 128,-1,51
 445 241 445 241 468.5 259.5 c 128,-1,52
 492 278 492 278 508 298 c 1,53,-1
 492 246 l 1,54,-1
 492 551 l 1,40,-1
EndSplineSet
EndChar

StartChar: Q
Encoding: 81 81 58
Width: 771
Flags: W
LayerCount: 2
Fore
SplineSet
700.53515625 -1 m 5,0,1
 674.834960938 -1 674.834960938 -1 650.419921875 6 c 132,-1,2
 626.004882812 13 626.004882812 13 608.014648438 30 c 5,3,-1
 608.014648438 235 l 5,4,5
 572.03515625 210 572.03515625 210 524.490234375 194.5 c 132,-1,6
 476.9453125 179 476.9453125 179 412.6953125 179 c 4,7,8
 358.724609375 179 358.724609375 179 295.759765625 202 c 132,-1,9
 232.794921875 225 232.794921875 225 178.825195312 262 c 132,-1,10
 124.85546875 299 124.85546875 299 88.875 345 c 132,-1,11
 52.89453125 391 52.89453125 391 52.89453125 437 c 4,12,13
 52.89453125 485 52.89453125 485 75.3828125 522 c 132,-1,14
 97.8701171875 559 97.8701171875 559 136.419921875 584.5 c 132,-1,15
 174.969726562 610 174.969726562 610 227.012695312 623 c 132,-1,16
 279.0546875 636 279.0546875 636 338.165039062 636 c 4,17,18
 381.85546875 636 381.85546875 636 420.405273438 628 c 4,19,20
 483.370117188 615 483.370117188 615 492.365234375 606.5 c 4,21,22
 537.33984375 566 537.33984375 566 554.6875 575.5 c 4,23,24
 559.184570312 578 559.184570312 578 608.014648438 662 c 5,25,-1
 605.4453125 661 l 5,26,-1
 703.10546875 661 l 6,27,-1
 700.53515625 -1 l 5,0,1
339.450195312 236 m 4,28,29
 388.280273438 236 388.280273438 236 434.540039062 248.5 c 132,-1,30
 480.799804688 261 480.799804688 261 519.349609375 284 c 5,31,-1
 219.9453125 524 l 5,32,33
 185.25 500 185.25 500 165.974609375 465.5 c 132,-1,34
 146.700195312 431 146.700195312 431 146.700195312 386 c 4,35,36
 146.700195312 350 146.700195312 350 161.477539062 322 c 132,-1,37
 176.254882812 294 176.254882812 294 201.955078125 275 c 132,-1,38
 227.655273438 256 227.655273438 256 262.9921875 246 c 132,-1,39
 298.330078125 236 298.330078125 236 339.450195312 236 c 4,28,29
608.014648438 515 m 5,40,41
 563.040039062 542 563.040039062 542 514.852539062 557.5 c 132,-1,42
 466.665039062 573 466.665039062 573 403.700195312 573 c 4,43,44
 311.1796875 573 311.1796875 573 245.64453125 540 c 5,45,-1
 542.48046875 300 l 5,46,47
 563.040039062 315 563.040039062 315 579.745117188 333 c 132,-1,48
 596.450195312 351 596.450195312 351 608.014648438 371 c 5,49,-1
 608.014648438 515 l 5,40,41
EndSplineSet
EndChar

StartChar: R
Encoding: 82 82 59
Width: 771
Flags: W
AnchorPoint: "Anchor-2" 366 0 basechar 0
AnchorPoint: "Anchor-1" 377 0 basechar 0
LayerCount: 2
Fore
SplineSet
324 637 m 1,0,1
 311 660 311 660 289 686.5 c 128,-1,2
 267 713 267 713 243 739 c 128,-1,3
 219 765 219 765 201 784 c 1,4,-1
 201 797 l 1,5,-1
 261 797 l 1,6,7
 287 780 287 780 315 756 c 128,-1,8
 343 732 343 732 368 705 c 1,9,10
 395 732 395 732 423 756 c 128,-1,11
 451 780 451 780 477 797 c 1,12,-1
 539 797 l 1,13,-1
 539 784 l 1,14,15
 520 765 520 765 495.5 739 c 128,-1,16
 471 713 471 713 448.5 686.5 c 128,-1,17
 426 660 426 660 414 637 c 1,18,-1
 324 637 l 1,0,1
445 551 m 1,19,-1
 473 566 l 1,20,21
 484 550 484 550 490.5 523 c 128,-1,22
 497 496 497 496 497 458 c 0,23,24
 497 402 497 402 474 363.5 c 128,-1,25
 451 325 451 325 411 298 c 128,-1,26
 371 271 371 271 320 251 c 1,27,-1
 324 259 l 1,28,29
 354 224 354 224 391.5 186.5 c 128,-1,30
 429 149 429 149 471 112.5 c 128,-1,31
 513 76 513 76 556 42 c 1,32,-1
 502 -12 l 1,33,34
 443 37 443 37 391 87 c 128,-1,35
 339 137 339 137 299 181 c 128,-1,36
 259 225 259 225 236 256 c 0,37,38
 214 287 214 287 207.5 305 c 128,-1,39
 201 323 201 323 201 340 c 0,40,41
 201 359 201 359 216 376 c 128,-1,42
 231 393 231 393 265 393 c 0,43,44
 303 393 303 393 327 368 c 128,-1,45
 351 343 351 343 370 300 c 1,46,-1
 308 335 l 1,47,48
 365 354 365 354 391 387.5 c 128,-1,49
 417 421 417 421 417 468 c 0,50,51
 417 497 417 497 409.5 525.5 c 128,-1,52
 402 554 402 554 391 565 c 1,53,-1
 436 551 l 1,54,-1
 78 551 l 5,55,-1
 78 622 l 5,56,-1
 692 622 l 1,57,-1
 692 551 l 1,58,-1
 445 551 l 1,19,-1
EndSplineSet
EndChar

StartChar: S
Encoding: 83 83 60
Width: 771
Flags: W
AnchorPoint: "Anchor-1" 408 796 basechar 0
LayerCount: 2
Fore
SplineSet
362 636 m 5,0,1
 349 659 349 659 327 685.5 c 132,-1,2
 305 712 305 712 281 738 c 132,-1,3
 257 764 257 764 239 783 c 5,4,-1
 239 796 l 5,5,-1
 299 796 l 5,6,7
 325 779 325 779 353 755 c 132,-1,8
 381 731 381 731 406 704 c 5,9,10
 433 731 433 731 461 755 c 132,-1,11
 489 779 489 779 515 796 c 5,12,-1
 577 796 l 5,13,-1
 577 783 l 5,14,15
 558 764 558 764 533.5 738 c 132,-1,16
 509 712 509 712 486.5 685.5 c 132,-1,17
 464 659 464 659 452 636 c 5,18,-1
 362 636 l 5,0,1
284 551 m 5,19,-1
 312 566 l 5,20,21
 323 550 323 550 330 523 c 132,-1,22
 337 496 337 496 337 458 c 4,23,24
 337 414 337 414 326.5 381.5 c 132,-1,25
 316 349 316 349 297 328 c 5,26,-1
 296 319 l 5,27,28
 278 296 278 296 253.5 279 c 132,-1,29
 229 262 229 262 198 250 c 5,30,-1
 202 259 l 5,31,32
 243 206 243 206 299.5 149 c 132,-1,33
 356 92 356 92 419 42 c 5,34,-1
 365 -12 l 5,35,36
 309 37 309 37 259.5 87 c 132,-1,37
 210 137 210 137 172 181 c 132,-1,38
 134 225 134 225 112 256 c 260,39,40
 90 287 90 287 84.5 305 c 132,-1,41
 79 323 79 323 79 340 c 4,42,43
 79 359 79 359 94 376 c 132,-1,44
 109 393 109 393 143 393 c 4,45,46
 168 393 168 393 186.5 381.5 c 132,-1,47
 205 370 205 370 220 349.5 c 132,-1,48
 235 329 235 329 248 300 c 5,49,-1
 187 331 l 5,50,51
 215 339 215 339 229.5 359 c 132,-1,52
 244 379 244 379 250 405.5 c 132,-1,53
 256 432 256 432 256 458 c 4,54,55
 256 496 256 496 249 523.5 c 132,-1,56
 242 551 242 551 233 564 c 5,57,-1
 276 551 l 5,58,-1
 39 551 l 5,59,-1
 39 622 l 5,60,-1
 456 622 l 5,61,-1
 456 551 l 5,62,-1
 284 551 l 5,19,-1
626 551 m 5,63,-1
 626 0 l 5,64,-1
 545 0 l 5,65,-1
 545 551 l 5,66,-1
 435 551 l 5,67,-1
 435 622 l 5,68,-1
 730 622 l 5,69,-1
 730 551 l 5,70,-1
 626 551 l 5,63,-1
408 322 m 4,71,72
 442 322 442 322 470 325 c 132,-1,73
 498 328 498 328 526 334.5 c 132,-1,74
 554 341 554 341 586 353 c 5,75,-1
 586 280 l 5,76,77
 543 263 543 263 507.5 257 c 132,-1,78
 472 251 472 251 419 251 c 4,79,80
 386 251 386 251 349.5 255.5 c 132,-1,81
 313 260 313 260 281 268.5 c 132,-1,82
 249 277 249 277 229 287 c 5,83,-1
 249 347 l 5,84,85
 269 340 269 340 295 334 c 132,-1,86
 321 328 321 328 350 325 c 132,-1,87
 379 322 379 322 408 322 c 4,71,72
EndSplineSet
EndChar

StartChar: T
Encoding: 84 84 61
Width: 771
Flags: W
LayerCount: 2
Fore
SplineSet
564 551 m 5,0,-1
 564 0 l 5,1,-1
 483 0 l 5,2,-1
 483 328 l 5,3,-1
 374 328 l 6,4,5
 313 328 313 328 282.5 322 c 132,-1,6
 252 316 252 316 233 299 c 4,7,8
 221 289 221 289 215 274 c 132,-1,9
 209 259 209 259 209 237 c 4,10,11
 209 204 209 204 225.5 173.5 c 132,-1,12
 242 143 242 143 274.5 110.5 c 132,-1,13
 307 78 307 78 354 40 c 5,14,-1
 300 -12 l 5,15,16
 254 28 254 28 214.5 68 c 132,-1,17
 175 108 175 108 151.5 151 c 132,-1,18
 128 194 128 194 128 242 c 4,19,20
 128 277 128 277 141.5 305 c 132,-1,21
 155 333 155 333 176 351 c 4,22,23
 195 368 195 368 219 378.5 c 132,-1,24
 243 389 243 389 276.5 394 c 132,-1,25
 310 399 310 399 355 399 c 6,26,-1
 483 399 l 5,27,-1
 483 551 l 5,28,-1
 83 551 l 5,29,-1
 83 622 l 5,30,-1
 667 622 l 5,31,-1
 667 551 l 5,32,-1
 564 551 l 5,0,-1
EndSplineSet
EndChar

StartChar: U
Encoding: 85 85 62
Width: 771
Flags: W
AnchorPoint: "Anchor-3" 751.475 572 basechar 0
AnchorPoint: "Anchor-2" 385.25 572 basechar 0
AnchorPoint: "Anchor-1" 385.25 0 basechar 0
LayerCount: 2
Fore
SplineSet
381.39453125 -8 m 0,0,1
 245.184570312 -8 245.184570312 -8 170.655273438 49.5 c 128,-1,2
 96.125 107 96.125 107 96.125 211 c 2,3,-1
 96.125 572 l 1,4,-1
 209.205078125 572 l 1,5,-1
 209.205078125 215 l 2,6,7
 209.205078125 142 209.205078125 142 255.46484375 103.5 c 128,-1,8
 301.724609375 65 301.724609375 65 387.8203125 65 c 0,9,10
 472.629882812 65 472.629882812 65 516.962890625 103.5 c 128,-1,11
 561.294921875 142 561.294921875 142 561.294921875 213 c 2,12,-1
 561.294921875 572 l 1,13,-1
 674.375 572 l 1,14,-1
 674.375 212 l 2,15,16
 674.375 143 674.375 143 640.322265625 94 c 128,-1,17
 606.26953125 45 606.26953125 45 540.735351562 18.5 c 128,-1,18
 475.200195312 -8 475.200195312 -8 381.39453125 -8 c 0,0,1
EndSplineSet
EndChar

StartChar: V
Encoding: 86 86 63
Width: 771
Flags: W
AnchorPoint: "Anchor-1" 377 797 basechar 0
LayerCount: 2
Fore
SplineSet
331 637 m 5,0,1
 318 660 318 660 296 686.5 c 132,-1,2
 274 713 274 713 250 739 c 132,-1,3
 226 765 226 765 208 784 c 5,4,-1
 208 797 l 5,5,-1
 268 797 l 5,6,7
 294 780 294 780 322 756 c 132,-1,8
 350 732 350 732 375 705 c 5,9,10
 402 732 402 732 430 756 c 132,-1,11
 458 780 458 780 484 797 c 5,12,-1
 546 797 l 5,13,-1
 546 784 l 5,14,15
 527 765 527 765 502.5 739 c 132,-1,16
 478 713 478 713 455.5 686.5 c 132,-1,17
 433 660 433 660 421 637 c 5,18,-1
 331 637 l 5,0,1
681 551 m 1,19,-1
 559 551 l 1,20,-1
 559 0 l 1,21,-1
 479 0 l 1,22,-1
 479 201 l 1,23,-1
 494 176 l 1,24,25
 467 155 467 155 427 136.5 c 128,-1,26
 387 118 387 118 325 118 c 0,27,28
 271 118 271 118 229 139 c 128,-1,29
 187 160 187 160 162.5 197.5 c 128,-1,30
 138 235 138 235 138 286 c 0,31,32
 138 372 138 372 195.5 418 c 128,-1,33
 253 464 253 464 347 464 c 0,34,35
 360 464 360 464 379.5 462.5 c 128,-1,36
 399 461 399 461 417.5 459 c 128,-1,37
 436 457 436 457 446 454 c 1,38,-1
 441 381 l 1,39,40
 422 385 422 385 398 388 c 128,-1,41
 374 391 374 391 351 391 c 0,42,43
 289 391 289 391 254 364 c 128,-1,44
 219 337 219 337 219 287 c 0,45,46
 219 236 219 236 250.5 212 c 128,-1,47
 282 188 282 188 327 188 c 0,48,49
 367 188 367 188 397.5 201.5 c 128,-1,50
 428 215 428 215 451.5 235 c 128,-1,51
 475 255 475 255 492 274 c 1,52,-1
 479 223 l 1,53,-1
 479 551 l 1,54,-1
 92 551 l 1,55,-1
 92 622 l 1,56,-1
 681 622 l 1,57,-1
 681 551 l 1,19,-1
EndSplineSet
EndChar

StartChar: W
Encoding: 87 87 64
Width: 771
Flags: W
AnchorPoint: "Anchor-2" 385.25 536 basechar 0
AnchorPoint: "Anchor-1" 385.25 0 basechar 0
LayerCount: 2
Fore
SplineSet
252.89453125 -10 m 0,0,1
 166.799804688 -10 166.799804688 -10 118.612304688 60 c 128,-1,2
 70.4248046875 130 70.4248046875 130 70.4248046875 263 c 0,3,4
 70.4248046875 310 70.4248046875 310 76.849609375 354.5 c 128,-1,5
 83.275390625 399 83.275390625 399 96.125 444.5 c 128,-1,6
 108.974609375 490 108.974609375 490 129.53515625 537 c 1,7,-1
 238.759765625 537 l 1,8,9
 215.629882812 488 215.629882812 488 202.780273438 442.5 c 128,-1,10
 189.9296875 397 189.9296875 397 184.790039062 353.5 c 128,-1,11
 179.650390625 310 179.650390625 310 179.650390625 266 c 0,12,13
 179.650390625 161 179.650390625 161 201.495117188 114.5 c 128,-1,14
 223.33984375 68 223.33984375 68 264.459960938 68 c 0,15,16
 301.724609375 68 301.724609375 68 318.4296875 103.5 c 128,-1,17
 335.134765625 139 335.134765625 139 335.134765625 215 c 2,18,-1
 335.134765625 348 l 1,19,-1
 435.365234375 348 l 1,20,-1
 435.365234375 215 l 2,21,22
 435.365234375 140 435.365234375 140 452.0703125 104 c 128,-1,23
 468.775390625 68 468.775390625 68 504.754882812 68 c 0,24,25
 547.16015625 68 547.16015625 68 569.647460938 116 c 128,-1,26
 592.134765625 164 592.134765625 164 592.134765625 262 c 0,27,28
 592.134765625 308 592.134765625 308 586.352539062 355 c 128,-1,29
 580.5703125 402 580.5703125 402 567.719726562 448 c 128,-1,30
 554.870117188 494 554.870117188 494 533.025390625 537 c 1,31,-1
 640.96484375 537 l 1,32,33
 670.51953125 468 670.51953125 468 685.297851562 400.5 c 128,-1,34
 700.075195312 333 700.075195312 333 700.075195312 264 c 0,35,36
 700.075195312 197 700.075195312 197 687.224609375 146 c 128,-1,37
 674.375 95 674.375 95 649.959960938 60 c 128,-1,38
 625.544921875 25 625.544921875 25 591.4921875 7.5 c 128,-1,39
 557.440429688 -10 557.440429688 -10 515.03515625 -10 c 0,40,41
 466.205078125 -10 466.205078125 -10 433.4375 14 c 128,-1,42
 400.669921875 38 400.669921875 38 386.53515625 81 c 1,43,-1
 383.96484375 81 l 1,44,45
 371.115234375 38 371.115234375 38 338.34765625 14 c 128,-1,46
 305.580078125 -10 305.580078125 -10 252.89453125 -10 c 0,0,1
EndSplineSet
EndChar

StartChar: X
Encoding: 88 88 65
Width: 771
Flags: W
AnchorPoint: "Anchor-3" 745.192 572 basechar 0
AnchorPoint: "Anchor-2" 385.393 572 basechar 0
AnchorPoint: "Anchor-1" 385.393 0 basechar 0
LayerCount: 2
Fore
SplineSet
66.712890625 0 m 1,0,-1
 314.717773438 295 l 1,1,-1
 87.2724609375 572 l 1,2,-1
 210.6328125 572 l 1,3,-1
 385.392578125 354 l 1,4,-1
 560.15234375 572 l 1,5,-1
 684.797851562 572 l 1,6,-1
 452.212890625 292 l 1,7,-1
 702.787109375 0 l 1,8,-1
 574.287109375 0 l 1,9,-1
 384.107421875 231 l 1,10,-1
 192.642578125 0 l 1,11,-1
 66.712890625 0 l 1,0,-1
EndSplineSet
EndChar

StartChar: Y
Encoding: 89 89 66
Width: 771
Flags: W
AnchorPoint: "Anchor-1" 367 798 basechar 0
LayerCount: 2
Fore
SplineSet
321 638 m 5,0,1
 308 661 308 661 286 687.5 c 132,-1,2
 264 714 264 714 240 740 c 132,-1,3
 216 766 216 766 198 785 c 5,4,-1
 198 798 l 5,5,-1
 258 798 l 5,6,7
 284 781 284 781 312 757 c 132,-1,8
 340 733 340 733 365 706 c 5,9,10
 392 733 392 733 420 757 c 132,-1,11
 448 781 448 781 474 798 c 5,12,-1
 536 798 l 5,13,-1
 536 785 l 5,14,15
 517 766 517 766 492.5 740 c 132,-1,16
 468 714 468 714 445.5 687.5 c 132,-1,17
 423 661 423 661 411 638 c 5,18,-1
 321 638 l 5,0,1
677 622 m 5,19,-1
 677 551 l 5,20,-1
 573 551 l 5,21,-1
 573 0 l 5,22,-1
 492 0 l 5,23,-1
 492 216 l 5,24,-1
 508 191 l 5,25,26
 490 177 490 177 464.5 163 c 132,-1,27
 439 149 439 149 406.5 140.5 c 132,-1,28
 374 132 374 132 335 132 c 4,29,30
 275 132 275 132 230 159.5 c 132,-1,31
 185 187 185 187 157.5 237 c 132,-1,32
 130 287 130 287 120 353 c 5,33,34
 182 366 182 366 212 389.5 c 132,-1,35
 242 413 242 413 242 457 c 4,36,37
 242 492 242 492 225.5 520 c 132,-1,38
 209 548 209 548 192 566 c 5,39,-1
 241 551 l 5,40,-1
 82 551 l 5,41,-1
 82 622 l 5,42,-1
 677 622 l 5,19,-1
257 551 m 5,43,-1
 280 572 l 5,44,45
 300 544 300 544 311 510.5 c 132,-1,46
 322 477 322 477 322 445 c 4,47,48
 322 393 322 393 294.5 356 c 132,-1,49
 267 319 267 319 211 301 c 5,50,51
 231 252 231 252 261.5 227.5 c 132,-1,52
 292 203 292 203 341 203 c 4,53,54
 398 203 398 203 439 230.5 c 132,-1,55
 480 258 480 258 507 292 c 5,56,-1
 492 239 l 5,57,-1
 492 551 l 5,58,-1
 257 551 l 5,43,-1
EndSplineSet
EndChar

StartChar: Z
Encoding: 90 90 67
Width: 771
Flags: W
AnchorPoint: "Anchor-1" 354 798 basechar 0
LayerCount: 2
Fore
SplineSet
345 638 m 1,0,1
 332 661 332 661 310 687.5 c 128,-1,2
 288 714 288 714 264 740 c 128,-1,3
 240 766 240 766 222 785 c 1,4,-1
 222 798 l 1,5,-1
 282 798 l 1,6,7
 308 781 308 781 336 757 c 128,-1,8
 364 733 364 733 389 706 c 1,9,10
 416 733 416 733 444 757 c 128,-1,11
 472 781 472 781 498 798 c 1,12,-1
 560 798 l 1,13,-1
 560 785 l 1,14,15
 541 766 541 766 516.5 740 c 128,-1,16
 492 714 492 714 469.5 687.5 c 128,-1,17
 447 661 447 661 435 638 c 1,18,-1
 345 638 l 1,0,1
653 551 m 1,19,-1
 653 0 l 1,20,-1
 572 0 l 1,21,-1
 572 370 l 1,22,-1
 435 370 l 2,23,24
 409 370 409 370 393.5 371 c 128,-1,25
 378 372 378 372 369 375 c 1,26,-1
 362 385 l 1,27,28
 404 356 404 356 431 312 c 128,-1,29
 458 268 458 268 458 218 c 0,30,31
 458 172 458 172 437.5 141 c 128,-1,32
 417 110 417 110 383.5 95 c 128,-1,33
 350 80 350 80 310 80 c 256,34,35
 270 80 270 80 233.5 97 c 128,-1,36
 197 114 197 114 162.5 151.5 c 128,-1,37
 128 189 128 189 95.5 250.5 c 128,-1,38
 63 312 63 312 31 401 c 1,39,-1
 102 426 l 1,40,41
 133 337 133 337 165 276 c 128,-1,42
 197 215 197 215 232 184 c 128,-1,43
 267 153 267 153 306 153 c 0,44,45
 338 153 338 153 358.5 170 c 128,-1,46
 379 187 379 187 379 227 c 0,47,48
 379 271 379 271 348.5 310 c 128,-1,49
 318 349 318 349 273 377 c 1,50,-1
 302 441 l 1,51,-1
 572 441 l 1,52,-1
 572 551 l 1,53,-1
 42 551 l 1,54,-1
 42 622 l 1,55,-1
 738 622 l 5,56,-1
 738 551 l 5,57,-1
 653 551 l 1,19,-1
EndSplineSet
EndChar

StartChar: a
Encoding: 97 97 68
Width: 771
Flags: W
AnchorPoint: "Anchor-3" 745.65 536 basechar 0
AnchorPoint: "Anchor-2" 392.275 536 basechar 0
AnchorPoint: "Anchor-1" 385.85 0 basechar 0
AnchorPoint: "Anchor-0" 694.25 10 basechar 0
LayerCount: 2
Fore
SplineSet
316.459960938 -10 m 4,0,1
 214.9453125 -10 214.9453125 -10 152.622070312 29 c 132,-1,2
 90.2998046875 68 90.2998046875 68 90.2998046875 147 c 4,3,4
 90.2998046875 205 90.2998046875 205 126.280273438 243.5 c 132,-1,5
 162.259765625 282 162.259765625 282 232.29296875 301.5 c 132,-1,6
 302.325195312 321 302.325195312 321 402.5546875 323 c 6,7,-1
 550.330078125 326 l 5,8,-1
 550.330078125 348 l 6,9,10
 550.330078125 420 550.330078125 420 504.0703125 446.5 c 132,-1,11
 457.809570312 473 457.809570312 473 379.424804688 473 c 4,12,13
 324.169921875 473 324.169921875 473 274.0546875 462 c 132,-1,14
 223.940429688 451 223.940429688 451 178.96484375 431 c 5,15,-1
 139.129882812 499 l 5,16,17
 187.959960938 518 187.959960938 518 247.712890625 532 c 132,-1,18
 307.46484375 546 307.46484375 546 385.849609375 546 c 4,19,20
 515.634765625 546 515.634765625 546 585.66796875 500.5 c 132,-1,21
 655.700195312 455 655.700195312 455 655.700195312 359 c 6,22,-1
 655.700195312 0 l 5,23,-1
 563.1796875 0 l 5,24,-1
 550.330078125 74 l 5,25,-1
 545.190429688 74 l 5,26,27
 516.919921875 46 516.919921875 46 482.8671875 27.5 c 132,-1,28
 448.815429688 9 448.815429688 9 407.6953125 -0.5 c 132,-1,29
 366.575195312 -10 366.575195312 -10 316.459960938 -10 c 4,0,1
335.735351562 63 m 4,30,31
 393.559570312 63 393.559570312 63 442.389648438 79.5 c 132,-1,32
 491.219726562 96 491.219726562 96 520.775390625 129.5 c 132,-1,33
 550.330078125 163 550.330078125 163 550.330078125 214 c 6,34,-1
 550.330078125 262 l 5,35,-1
 426.969726562 259 l 6,36,37
 344.73046875 257 344.73046875 257 294.615234375 243.5 c 132,-1,38
 244.5 230 244.5 230 222.012695312 206.5 c 132,-1,39
 199.525390625 183 199.525390625 183 199.525390625 150 c 4,40,41
 199.525390625 104 199.525390625 104 236.790039062 83.5 c 132,-1,42
 274.0546875 63 274.0546875 63 335.735351562 63 c 4,30,31
EndSplineSet
EndChar

StartChar: b
Encoding: 98 98 69
Width: 771
Flags: W
LayerCount: 2
Fore
SplineSet
711.247070312 473 m 5,0,-1
 620.012695312 473 l 5,1,-1
 620.012695312 2 l 5,2,-1
 515.927734375 2 l 5,3,-1
 515.927734375 154 l 5,4,-1
 535.202148438 128 l 5,5,6
 512.072265625 115 512.072265625 115 480.58984375 101.5 c 132,-1,7
 449.107421875 88 449.107421875 88 407.344726562 79.5 c 132,-1,8
 365.58203125 71 365.58203125 71 310.327148438 71 c 4,9,10
 238.3671875 71 238.3671875 71 181.184570312 92 c 132,-1,11
 124.002929688 113 124.002929688 113 91.8779296875 150.5 c 132,-1,12
 59.7529296875 188 59.7529296875 188 59.7529296875 239 c 4,13,14
 59.7529296875 296 59.7529296875 296 95.08984375 336 c 132,-1,15
 130.427734375 376 130.427734375 376 194.03515625 396.5 c 132,-1,16
 257.642578125 417 257.642578125 417 341.16796875 417 c 4,17,18
 359.157226562 417 359.157226562 417 384.857421875 415.5 c 132,-1,19
 410.557617188 414 410.557617188 414 435.615234375 412 c 132,-1,20
 460.672851562 410 460.672851562 410 474.807617188 407 c 5,21,-1
 467.09765625 338 l 5,22,23
 441.397460938 342 441.397460938 342 409.272460938 345 c 132,-1,24
 377.147460938 348 377.147460938 348 345.022460938 348 c 4,25,26
 260.212890625 348 260.212890625 348 212.025390625 320.5 c 132,-1,27
 163.837890625 293 163.837890625 293 163.837890625 240 c 4,28,29
 163.837890625 188 163.837890625 188 206.884765625 162.5 c 132,-1,30
 249.932617188 137 249.932617188 137 311.612304688 137 c 4,31,32
 364.297851562 137 364.297851562 137 406.059570312 150 c 132,-1,33
 447.822265625 163 447.822265625 163 479.3046875 183 c 132,-1,34
 510.787109375 203 510.787109375 203 532.6328125 224 c 5,35,-1
 515.927734375 173 l 5,36,-1
 515.927734375 473 l 5,37,-1
 145.84765625 473 l 5,38,-1
 145.84765625 536 l 5,39,-1
 711.247070312 536 l 5,40,-1
 711.247070312 473 l 5,0,-1
264.067382812 377 m 5,41,-1
 485.087890625 162 l 5,42,-1
 425.977539062 120 l 5,43,-1
 184.397460938 354 l 5,44,-1
 264.067382812 377 l 5,41,-1
EndSplineSet
EndChar

StartChar: c
Encoding: 99 99 70
Width: 771
Flags: W
LayerCount: 2
Fore
SplineSet
480.959960938 -10 m 0,0,1
 329 -10 329 -10 245.8046875 57 c 0,2,3
 162 124 162 124 162.280273438 245 c 0,4,5
 162 325 162 325 199.544921875 380.5 c 128,-1,6
 237 436 237 436 306.200195312 465 c 1,7,-1
 47.294921875 465 l 1,8,-1
 47.294921875 537 l 1,9,-1
 668.57 537 l 1,10,-1
 668.57 465 l 1,11,-1
 537.5 465 l 2,12,13
 417 465 417 465 347.962890625 411.5 c 128,-1,14
 279 358 279 358 279.21484375 252 c 0,15,16
 279 165 279 165 334.469726562 114.5 c 128,-1,17
 390 64 390 64 492.525390625 64 c 0,18,19
 540 64 540 64 583.759765625 73.5 c 0,20,21
 627 83 627 83 668.5703125 99 c 1,22,-1
 668.5703125 21 l 1,23,24
 631 5 631 5 586.330078125 -2.5 c 0,25,26
 541 -10 541 -10 480.959960938 -10 c 0,0,1
EndSplineSet
EndChar

StartChar: d
Encoding: 100 100 71
Width: 771
Flags: W
AnchorPoint: "Anchor-2" 393 0 basechar 0
AnchorPoint: "Anchor-1" 407 0 basechar 0
AnchorPoint: "Anchor-0" 478 622 basechar 0
LayerCount: 2
Fore
SplineSet
435 222 m 4,0,1
 406 222 406 222 377 215 c 132,-1,2
 348 208 348 208 325 197 c 5,3,4
 294 216 294 216 268.5 239 c 132,-1,5
 243 262 243 262 228.5 290 c 132,-1,6
 214 318 214 318 214 352 c 4,7,8
 214 380 214 380 224 400 c 132,-1,9
 234 420 234 420 251 433 c 4,10,11
 266 445 266 445 284.5 452 c 132,-1,12
 303 459 303 459 327.5 462 c 132,-1,13
 352 465 352 465 385 465 c 6,14,-1
 478 465 l 5,15,-1
 478 551 l 5,16,-1
 77 551 l 5,17,-1
 77 622 l 5,18,-1
 669 622 l 5,19,-1
 669 551 l 5,20,-1
 559 551 l 5,21,-1
 559 394 l 5,22,-1
 375 394 l 6,23,24
 344 394 344 394 331 391 c 132,-1,25
 318 388 318 388 309 381 c 4,26,27
 302 375 302 375 298 366.5 c 132,-1,28
 294 358 294 358 294 347 c 4,29,30
 294 323 294 323 308 306.5 c 132,-1,31
 322 290 322 290 338 277 c 5,32,33
 361 285 361 285 387 289.5 c 132,-1,34
 413 294 413 294 439 294 c 4,35,36
 513 294 513 294 562 256.5 c 132,-1,37
 611 219 611 219 611 154 c 4,38,39
 611 109 611 109 589 74.5 c 132,-1,40
 567 40 567 40 523.5 20 c 132,-1,41
 480 0 480 0 414 0 c 4,42,43
 349 0 349 0 292.5 20 c 132,-1,44
 236 40 236 40 189 76 c 132,-1,45
 142 112 142 112 102 158 c 5,46,-1
 163 207 l 5,47,48
 220 139 220 139 279.5 106.5 c 132,-1,49
 339 74 339 74 414 74 c 4,50,51
 473 74 473 74 501.5 94.5 c 132,-1,52
 530 115 530 115 530 152 c 4,53,54
 530 187 530 187 505.5 204.5 c 132,-1,55
 481 222 481 222 435 222 c 4,0,1
EndSplineSet
EndChar

StartChar: e
Encoding: 101 101 72
Width: 771
Flags: W
LayerCount: 2
Fore
SplineSet
398.280273438 546 m 4,0,1
 486.9453125 546 486.9453125 546 550.552734375 516 c 132,-1,2
 614.16015625 486 614.16015625 486 648.212890625 431.5 c 132,-1,3
 682.264648438 377 682.264648438 377 682.264648438 304 c 6,4,-1
 682.264648438 251 l 5,5,-1
 210.669921875 251 l 5,6,7
 213.240234375 160 213.240234375 160 270.422851562 112.5 c 132,-1,8
 327.60546875 65 327.60546875 65 430.405273438 65 c 4,9,10
 495.940429688 65 495.940429688 65 546.697265625 74.5 c 132,-1,11
 597.455078125 84 597.455078125 84 651.424804688 102 c 5,12,-1
 651.424804688 25 l 5,13,14
 598.740234375 7 598.740234375 7 547.33984375 -1.5 c 132,-1,15
 495.940429688 -10 495.940429688 -10 425.264648438 -10 c 4,16,17
 327.60546875 -10 327.60546875 -10 252.432617188 21 c 132,-1,18
 177.259765625 52 177.259765625 52 135.497070312 113.5 c 132,-1,19
 93.7353515625 175 93.7353515625 175 93.7353515625 264 c 4,20,21
 93.7353515625 352 93.7353515625 352 131.642578125 415 c 132,-1,22
 169.549804688 478 169.549804688 478 238.297851562 512 c 132,-1,23
 307.044921875 546 307.044921875 546 398.280273438 546 c 4,0,1
396.995117188 474 m 4,24,25
 316.040039062 474 316.040039062 474 269.137695312 433.5 c 132,-1,26
 222.235351562 393 222.235351562 393 213.240234375 321 c 5,27,-1
 564.044921875 321 l 5,28,29
 564.044921875 367 564.044921875 367 546.0546875 401 c 132,-1,30
 528.065429688 435 528.065429688 435 491.442382812 454.5 c 132,-1,31
 454.8203125 474 454.8203125 474 396.995117188 474 c 4,24,25
EndSplineSet
EndChar

StartChar: f
Encoding: 102 102 73
Width: 771
Flags: W
AnchorPoint: "Anchor-2" 419 0 basechar 0
AnchorPoint: "Anchor-1" 379 0 basechar 0
AnchorPoint: "Anchor-0" 379 536 basechar 0
LayerCount: 2
Fore
SplineSet
460 465 m 1,0,-1
 460 262 l 1,1,-1
 442 279 l 1,2,3
 470 312 470 312 503 330 c 128,-1,4
 536 348 536 348 578 348 c 0,5,6
 643 348 643 348 684 306.5 c 128,-1,7
 725 265 725 265 725 188 c 0,8,9
 725 142 725 142 710 90 c 128,-1,10
 695 38 695 38 660 -12 c 1,11,-1
 588 29 l 1,12,13
 613 61 613 61 629 103 c 128,-1,14
 645 145 645 145 645 186 c 0,15,16
 645 233 645 233 625 256 c 128,-1,17
 605 279 605 279 570 279 c 0,18,19
 550 279 550 279 528 267.5 c 128,-1,20
 506 256 506 256 484 233.5 c 128,-1,21
 462 211 462 211 440 179 c 1,22,-1
 460 242 l 1,23,-1
 460 0 l 1,24,-1
 379 0 l 1,25,-1
 379 178 l 1,26,-1
 395 155 l 1,27,28
 370 133 370 133 334.5 114 c 128,-1,29
 299 95 299 95 248 95 c 0,30,31
 208 95 208 95 176 109.5 c 128,-1,32
 144 124 144 124 125 146 c 0,33,34
 109 165 109 165 98.5 187 c 128,-1,35
 88 209 88 209 83.5 237 c 128,-1,36
 79 265 79 265 79 303 c 2,37,-1
 79 465 l 1,38,-1
 47 465 l 5,39,-1
 47 536 l 5,40,-1
 640 536 l 1,41,-1
 640 465 l 1,42,-1
 460 465 l 1,0,-1
160 465 m 1,43,-1
 160 309 l 2,44,45
 160 254 160 254 166 230 c 128,-1,46
 172 206 172 206 188 189 c 0,47,48
 199 177 199 177 214 171.5 c 128,-1,49
 229 166 229 166 248 166 c 0,50,51
 281 166 281 166 307 176.5 c 128,-1,52
 333 187 333 187 355.5 205.5 c 128,-1,53
 378 224 378 224 397 246 c 1,54,-1
 379 192 l 1,55,-1
 379 465 l 1,56,-1
 160 465 l 1,43,-1
EndSplineSet
EndChar

StartChar: g
Encoding: 103 103 74
Width: 771
Flags: W
LayerCount: 2
Fore
SplineSet
358 -21 m 4,0,1
 287 -21 287 -21 225 -13 c 132,-1,2
 163 -5 163 -5 110 7 c 5,3,-1
 110 66 l 5,4,5
 161 49 161 49 228.5 40.5 c 132,-1,6
 296 32 296 32 354 32 c 4,7,8
 471 32 471 32 517.5 63.5 c 132,-1,9
 564 95 564 95 564 149 c 6,10,-1
 564 163 l 6,11,12
 564 172 564 172 564.5 180 c 132,-1,13
 565 188 565 188 567 205 c 5,14,-1
 562 205 l 5,15,16
 526 175 526 175 478 163.5 c 132,-1,17
 430 152 430 152 362 152 c 4,18,19
 226 152 226 152 150 205 c 132,-1,20
 74 258 74 258 74 353 c 4,21,22
 74 449 74 449 149 504.5 c 132,-1,23
 224 560 224 560 355 560 c 4,24,25
 425 560 425 560 472.5 547 c 132,-1,26
 520 534 520 534 557 504 c 5,27,-1
 564 504 l 5,28,-1
 579 552 l 5,29,-1
 672 552 l 5,30,-1
 672 149 l 6,31,32
 672 93 672 93 638.5 55.5 c 132,-1,33
 605 18 605 18 535.5 -1.5 c 132,-1,34
 466 -21 466 -21 358 -21 c 4,0,1
384 205 m 4,35,36
 426 205 426 205 460 213 c 132,-1,37
 494 221 494 221 518 237.5 c 132,-1,38
 542 254 542 254 554.5 279 c 132,-1,39
 567 304 567 304 567 340 c 6,40,-1
 567 355 l 6,41,42
 567 409 567 409 544.5 442 c 132,-1,43
 522 475 522 475 480 490.5 c 132,-1,44
 438 506 438 506 380 506 c 4,45,46
 282 506 282 506 237 467 c 132,-1,47
 192 428 192 428 192 356 c 4,48,49
 192 283 192 283 239 244 c 132,-1,50
 286 205 286 205 384 205 c 4,35,36
EndSplineSet
EndChar

StartChar: h
Encoding: 104 104 75
Width: 771
Flags: W
LayerCount: 2
Fore
SplineSet
214.669921875 384 m 6,0,1
 214.669921875 365 214.669921875 365 212.7421875 345 c 132,-1,2
 210.815429688 325 210.815429688 325 208.245117188 309 c 5,3,-1
 215.955078125 309 l 5,4,5
 237.799804688 337 237.799804688 337 271.209960938 355 c 132,-1,6
 304.620117188 373 304.620117188 373 345.740234375 382.5 c 132,-1,7
 386.860351562 392 386.860351562 392 430.549804688 392 c 4,8,9
 514.075195312 392 514.075195312 392 569.97265625 371.5 c 132,-1,10
 625.870117188 351 625.870117188 351 654.139648438 308 c 132,-1,11
 682.41015625 265 682.41015625 265 682.41015625 196 c 6,12,-1
 682.41015625 0 l 5,13,-1
 570.615234375 0 l 5,14,-1
 570.615234375 190 l 6,15,16
 570.615234375 255 570.615234375 255 533.349609375 287 c 132,-1,17
 496.084960938 319 496.084960938 319 416.415039062 319 c 4,18,19
 339.315429688 319 339.315429688 319 295.625 296.5 c 132,-1,20
 251.934570312 274 251.934570312 274 233.302734375 230.5 c 132,-1,21
 214.669921875 187 214.669921875 187 214.669921875 124 c 6,22,-1
 214.669921875 0 l 5,23,-1
 101.58984375 0 l 5,24,-1
 101.58984375 580 l 5,25,-1
 214.669921875 580 l 5,26,-1
 214.669921875 384 l 6,0,1
EndSplineSet
EndChar

StartChar: i
Encoding: 105 105 76
Width: 771
Flags: W
AnchorPoint: "Anchor-4" 416.85 283 basechar 0
AnchorPoint: "Anchor-3" 645.58 760 basechar 0
AnchorPoint: "Anchor-2" 400.145 760 basechar 0
AnchorPoint: "Anchor-1" 418.135 0 basechar 0
LayerCount: 2
Fore
SplineSet
108.450195312 0 m 5,0,-1
 108.450195312 60 l 5,1,-1
 353.884765625 75 l 5,2,-1
 353.884765625 461 l 5,3,-1
 129.009765625 474 l 5,4,-1
 129.009765625 536 l 5,5,-1
 469.53515625 536 l 5,6,-1
 469.53515625 75 l 5,7,-1
 699.549804688 60 l 5,8,-1
 699.549804688 0 l 5,9,-1
 108.450195312 0 l 5,0,-1
400.14453125 633 m 260,10,11
 366.735351562 633 366.735351562 633 342.962890625 649 c 132,-1,12
 319.190429688 665 319.190429688 665 319.190429688 696 c 4,13,14
 319.190429688 729 319.190429688 729 342.962890625 744.5 c 132,-1,15
 366.735351562 760 366.735351562 760 400.14453125 760 c 260,16,17
 433.5546875 760 433.5546875 760 457.327148438 744.5 c 132,-1,18
 481.099609375 729 481.099609375 729 481.099609375 696 c 4,19,20
 481.099609375 665 481.099609375 665 457.327148438 649 c 132,-1,21
 433.5546875 633 433.5546875 633 400.14453125 633 c 260,10,11
EndSplineSet
Substitution2: "Single Substitution lookup 127 subtable" dotlessi
Substitution2: "Single Substitution lookup 126 subtable" dotlessi
EndChar

StartChar: j
Encoding: 106 106 77
Width: 771
Flags: W
LayerCount: 2
Fore
SplineSet
166 243 m 1,0,-1
 166 313 l 1,1,-1
 624 313 l 1,2,-1
 624 243 l 1,3,-1
 166 243 l 1,0,-1
115 0 m 1,4,-1
 115 61 l 1,5,-1
 520 467 l 1,6,-1
 136 467 l 1,7,-1
 136 536 l 1,8,-1
 645 536 l 1,9,-1
 645 465 l 1,10,-1
 253 76 l 1,11,-1
 655 76 l 1,12,-1
 655 0 l 1,13,-1
 115 0 l 1,4,-1
EndSplineSet
Substitution2: "Single Substitution lookup 127 subtable" uni0237
Substitution2: "Single Substitution lookup 126 subtable" uni0237
EndChar

StartChar: k
Encoding: 107 107 78
Width: 771
Flags: W
AnchorPoint: "Anchor-2" 411 0 basechar 0
AnchorPoint: "Anchor-1" 371 0 basechar 0
AnchorPoint: "Anchor-0" 371 622 basechar 0
LayerCount: 2
Fore
SplineSet
704 551 m 1,0,-1
 452 551 l 1,1,-1
 452 336 l 1,2,-1
 448 345 l 1,3,4
 472 371 472 371 503 385 c 128,-1,5
 534 399 534 399 569 399 c 0,6,7
 634 399 634 399 675 357.5 c 128,-1,8
 716 316 716 316 716 239 c 0,9,10
 716 193 716 193 701 141 c 128,-1,11
 686 89 686 89 651 39 c 1,12,-1
 579 80 l 1,13,14
 604 112 604 112 620 154 c 128,-1,15
 636 196 636 196 636 237 c 0,16,17
 636 284 636 284 616.5 307 c 128,-1,18
 597 330 597 330 562 330 c 0,19,20
 535 330 535 330 506 311 c 128,-1,21
 477 292 477 292 447 252 c 1,22,-1
 452 277 l 1,23,-1
 452 0 l 1,24,-1
 371 0 l 1,25,-1
 371 210 l 1,26,-1
 385 186 l 1,27,28
 369 172 369 172 346.5 156 c 128,-1,29
 324 140 324 140 294.5 129 c 128,-1,30
 265 118 265 118 226 118 c 0,31,32
 179 118 179 118 137.5 137 c 128,-1,33
 96 156 96 156 71 194.5 c 128,-1,34
 46 233 46 233 46 290 c 0,35,36
 46 344 46 344 71 383 c 128,-1,37
 96 422 96 422 141 443 c 128,-1,38
 186 464 186 464 244 464 c 0,39,40
 267 464 267 464 295.5 460.5 c 128,-1,41
 324 457 324 457 339 454 c 1,42,-1
 333 381 l 1,43,44
 317 385 317 385 292.5 388 c 128,-1,45
 268 391 268 391 249 391 c 0,46,47
 191 391 191 391 159 365 c 128,-1,48
 127 339 127 339 127 292 c 0,49,50
 127 239 127 239 157.5 213.5 c 128,-1,51
 188 188 188 188 228 188 c 0,52,53
 278 188 278 188 316.5 215 c 128,-1,54
 355 242 355 242 388 278 c 1,55,-1
 371 224 l 1,56,-1
 371 551 l 1,57,-1
 42 551 l 1,58,-1
 42 622 l 1,59,-1
 704 622 l 1,60,-1
 704 551 l 1,0,-1
EndSplineSet
EndChar

StartChar: l
Encoding: 108 108 79
Width: 771
Flags: W
LayerCount: 2
Fore
SplineSet
37 551 m 5,0,-1
 37 622 l 5,1,-1
 730 622 l 5,2,-1
 730 551 l 5,3,-1
 626 551 l 5,4,-1
 626 0 l 5,5,-1
 545 0 l 5,6,-1
 545 377 l 5,7,-1
 589 341 l 6,8,9
 572 351 572 351 557.5 353.5 c 132,-1,10
 543 356 543 356 531 356 c 4,11,12
 507 356 507 356 482 344 c 132,-1,13
 457 332 457 332 434 300.5 c 132,-1,14
 411 269 411 269 393 208 c 5,15,-1
 316 232 l 5,16,17
 341 327 341 327 398.5 376.5 c 132,-1,18
 456 426 456 426 536 426 c 4,19,20
 553 426 553 426 570 423 c 132,-1,21
 587 420 587 420 599 416 c 5,22,-1
 602 394 l 5,23,-1
 545 413 l 5,24,-1
 545 551 l 5,25,-1
 37 551 l 5,0,-1
374 292 m 5,26,27
 343 318 343 318 313.5 335.5 c 132,-1,28
 284 353 284 353 246 353 c 4,29,30
 206 353 206 353 184.5 330 c 132,-1,31
 163 307 163 307 163 271 c 4,32,33
 163 233 163 233 184.5 198.5 c 132,-1,34
 206 164 206 164 247 126.5 c 132,-1,35
 288 89 288 89 346 40 c 5,36,-1
 292 -12 l 5,37,38
 234 38 234 38 186 83.5 c 132,-1,39
 138 129 138 129 110 175.5 c 132,-1,40
 82 222 82 222 82 275 c 4,41,42
 82 315 82 315 96.5 343.5 c 132,-1,43
 111 372 111 372 134.5 390.5 c 132,-1,44
 158 409 158 409 186 417.5 c 132,-1,45
 214 426 214 426 241 426 c 4,46,47
 274 426 274 426 302 418 c 132,-1,48
 330 410 330 410 356 394.5 c 132,-1,49
 382 379 382 379 406 357 c 5,50,-1
 374 292 l 5,26,27
EndSplineSet
EndChar

StartChar: m
Encoding: 109 109 80
Width: 771
Flags: W
LayerCount: 2
Fore
SplineSet
574 551 m 5,0,-1
 574 0 l 5,1,-1
 493 0 l 5,2,-1
 493 250 l 5,3,-1
 272 250 l 5,4,-1
 272 213 l 6,5,6
 272 180 272 180 257.5 165.5 c 132,-1,7
 243 151 243 151 224 151 c 260,8,9
 205 151 205 151 184 163.5 c 132,-1,10
 163 176 163 176 145 195.5 c 132,-1,11
 127 215 127 215 115.5 237 c 132,-1,12
 104 259 104 259 104 278 c 4,13,14
 104 296 104 296 117.5 308.5 c 132,-1,15
 131 321 131 321 165 321 c 6,16,-1
 191 321 l 5,17,-1
 191 551 l 5,18,-1
 65 551 l 5,19,-1
 65 622 l 5,20,-1
 677 622 l 5,21,-1
 677 551 l 5,22,-1
 574 551 l 5,0,-1
493 551 m 5,23,-1
 272 551 l 5,24,-1
 272 321 l 5,25,-1
 493 321 l 5,26,-1
 493 551 l 5,23,-1
EndSplineSet
EndChar

StartChar: n
Encoding: 110 110 81
Width: 771
Flags: W
LayerCount: 2
Fore
SplineSet
93 622 m 5,0,-1
 662 622 l 5,1,-1
 662 551 l 5,2,-1
 559 551 l 5,3,-1
 559 0 l 5,4,-1
 478 0 l 5,5,-1
 478 298 l 5,6,-1
 297 298 l 5,7,-1
 297 244 l 6,8,9
 297 216 297 216 283 202 c 132,-1,10
 269 188 269 188 246 188 c 4,11,12
 228 188 228 188 207.5 200 c 132,-1,13
 187 212 187 212 169.5 232 c 132,-1,14
 152 252 152 252 141 274.5 c 132,-1,15
 130 297 130 297 130 318 c 4,16,17
 130 341 130 341 143.5 355 c 132,-1,18
 157 369 157 369 191 369 c 6,19,-1
 478 369 l 5,20,-1
 478 551 l 5,21,-1
 93 551 l 5,22,-1
 93 622 l 5,0,-1
EndSplineSet
EndChar

StartChar: o
Encoding: 111 111 82
Width: 771
Flags: W
LayerCount: 2
Fore
SplineSet
705.6796875 269 m 4,0,1
 705.6796875 202 705.6796875 202 683.192382812 150.5 c 132,-1,2
 660.705078125 99 660.705078125 99 618.942382812 63 c 132,-1,3
 577.1796875 27 577.1796875 27 517.427734375 8.5 c 132,-1,4
 457.674804688 -10 457.674804688 -10 384.4296875 -10 c 4,5,6
 316.325195312 -10 316.325195312 -10 258.5 8.5 c 132,-1,7
 200.674804688 27 200.674804688 27 158.26953125 63 c 132,-1,8
 115.865234375 99 115.865234375 99 92.0927734375 150.5 c 132,-1,9
 68.3203125 202 68.3203125 202 68.3203125 269 c 4,10,11
 68.3203125 358 68.3203125 358 106.870117188 419.5 c 132,-1,12
 145.419921875 481 145.419921875 481 217.379882812 513.5 c 132,-1,13
 289.33984375 546 289.33984375 546 388.28515625 546 c 4,14,15
 482.08984375 546 482.08984375 546 553.407226562 513.5 c 132,-1,16
 624.724609375 481 624.724609375 481 665.202148438 419.5 c 132,-1,17
 705.6796875 358 705.6796875 358 705.6796875 269 c 4,0,1
185.254882812 269 m 4,18,19
 185.254882812 206 185.254882812 206 206.45703125 159.5 c 132,-1,20
 227.66015625 113 227.66015625 113 272.634765625 88 c 132,-1,21
 317.610351562 63 317.610351562 63 387 63 c 260,22,23
 456.389648438 63 456.389648438 63 501.365234375 88 c 132,-1,24
 546.33984375 113 546.33984375 113 567.54296875 159.5 c 132,-1,25
 588.745117188 206 588.745117188 206 588.745117188 269 c 4,26,27
 588.745117188 333 588.745117188 333 566.900390625 378 c 132,-1,28
 545.0546875 423 545.0546875 423 500.72265625 447.5 c 132,-1,29
 456.389648438 472 456.389648438 472 385.71484375 472 c 4,30,31
 280.344726562 472 280.344726562 472 232.799804688 418 c 132,-1,32
 185.254882812 364 185.254882812 364 185.254882812 269 c 4,18,19
EndSplineSet
EndChar

StartChar: p
Encoding: 112 112 83
Width: 771
Flags: W
LayerCount: 2
Fore
SplineSet
565 551 m 5,0,-1
 565 0 l 5,1,-1
 484 0 l 5,2,-1
 484 227 l 5,3,-1
 503 203 l 5,4,5
 482 189 482 189 458 175.5 c 132,-1,6
 434 162 434 162 405.5 154 c 132,-1,7
 377 146 377 146 340 146 c 4,8,9
 300 146 300 146 267.5 159.5 c 132,-1,10
 235 173 235 173 214 194 c 4,11,12
 197 212 197 212 186 233.5 c 132,-1,13
 175 255 175 255 170 285 c 132,-1,14
 165 315 165 315 165 358 c 6,15,-1
 165 551 l 5,16,-1
 86 551 l 5,17,-1
 86 622 l 5,18,-1
 669 622 l 5,19,-1
 669 551 l 5,20,-1
 565 551 l 5,0,-1
484 551 m 5,21,-1
 246 551 l 5,22,-1
 246 369 l 6,23,24
 246 328 246 328 249 304 c 132,-1,25
 252 280 252 280 258.5 265.5 c 132,-1,26
 265 251 265 251 276 240 c 4,27,28
 288 228 288 228 306 222.5 c 132,-1,29
 324 217 324 217 349 217 c 4,30,31
 380 217 380 217 408.5 229 c 132,-1,32
 437 241 437 241 460.5 259.5 c 132,-1,33
 484 278 484 278 500 298 c 5,34,-1
 484 246 l 5,35,-1
 484 551 l 5,21,-1
EndSplineSet
EndChar

StartChar: q
Encoding: 113 113 84
Width: 771
Flags: W
AnchorPoint: "Anchor-1" 361 765 basechar 0
AnchorPoint: "Anchor-0" 361 0 basechar 0
LayerCount: 2
Fore
SplineSet
300 765 m 4,0,1
 319 765 319 765 337 761 c 132,-1,2
 355 757 355 757 365 752 c 5,3,-1
 365 679 l 5,4,5
 358 682 358 682 344 685.5 c 132,-1,6
 330 689 330 689 313 689 c 4,7,8
 291 689 291 689 278.5 676 c 132,-1,9
 266 663 266 663 266 631 c 6,10,-1
 266 363 l 6,11,12
 266 347 266 347 265 321 c 132,-1,13
 264 295 264 295 262 276 c 5,14,-1
 266 276 l 5,15,16
 272 285 272 285 284 299.5 c 132,-1,17
 296 314 296 314 308.5 329.5 c 132,-1,18
 321 345 321 345 330 355 c 6,19,-1
 501 536 l 5,20,-1
 604 536 l 5,21,-1
 387 307 l 5,22,-1
 619 0 l 5,23,-1
 513 0 l 5,24,-1
 327 250 l 5,25,-1
 266 197 l 5,26,-1
 266 0 l 5,27,-1
 179 0 l 5,28,-1
 179 625 l 6,29,30
 179 765 179 765 300 765 c 4,0,1
EndSplineSet
EndChar

StartChar: r
Encoding: 114 114 85
Width: 771
Flags: W
AnchorPoint: "Anchor-2" 356 0 basechar 0
AnchorPoint: "Anchor-1" 367 0 basechar 0
LayerCount: 2
Fore
SplineSet
435 551 m 1,0,-1
 463 566 l 1,1,2
 474 550 474 550 480.5 523 c 128,-1,3
 487 496 487 496 487 458 c 0,4,5
 487 402 487 402 464 363.5 c 128,-1,6
 441 325 441 325 401 298 c 128,-1,7
 361 271 361 271 310 251 c 1,8,-1
 314 259 l 1,9,10
 344 224 344 224 381.5 186.5 c 128,-1,11
 419 149 419 149 461 112.5 c 128,-1,12
 503 76 503 76 546 42 c 1,13,-1
 492 -12 l 1,14,15
 433 37 433 37 381 87 c 128,-1,16
 329 137 329 137 289 181 c 128,-1,17
 249 225 249 225 226 256 c 0,18,19
 204 287 204 287 197.5 305 c 128,-1,20
 191 323 191 323 191 340 c 0,21,22
 191 359 191 359 206 376 c 128,-1,23
 221 393 221 393 255 393 c 0,24,25
 293 393 293 393 317 368 c 128,-1,26
 341 343 341 343 360 300 c 1,27,-1
 298 335 l 1,28,29
 355 354 355 354 381 387.5 c 128,-1,30
 407 421 407 421 407 468 c 0,31,32
 407 497 407 497 399.5 525.5 c 128,-1,33
 392 554 392 554 381 565 c 1,34,-1
 426 551 l 1,35,-1
 118 551 l 5,36,-1
 118 622 l 5,37,-1
 670 622 l 1,38,-1
 670 551 l 1,39,-1
 435 551 l 1,0,-1
EndSplineSet
EndChar

StartChar: s
Encoding: 115 115 86
Width: 771
Flags: W
LayerCount: 2
Fore
SplineSet
279 551 m 5,0,-1
 307 566 l 5,1,2
 318 550 318 550 325 523 c 132,-1,3
 332 496 332 496 332 458 c 4,4,5
 332 414 332 414 321.5 381.5 c 132,-1,6
 311 349 311 349 292 328 c 5,7,-1
 291 319 l 5,8,9
 273 296 273 296 248.5 279 c 132,-1,10
 224 262 224 262 193 250 c 5,11,-1
 197 259 l 5,12,13
 238 206 238 206 294.5 149 c 132,-1,14
 351 92 351 92 414 42 c 5,15,-1
 360 -12 l 5,16,17
 304 37 304 37 254.5 87 c 132,-1,18
 205 137 205 137 167 181 c 132,-1,19
 129 225 129 225 107 256 c 260,20,21
 85 287 85 287 79.5 305 c 132,-1,22
 74 323 74 323 74 340 c 4,23,24
 74 359 74 359 89 376 c 132,-1,25
 104 393 104 393 138 393 c 4,26,27
 163 393 163 393 181.5 381.5 c 132,-1,28
 200 370 200 370 215 349.5 c 132,-1,29
 230 329 230 329 243 300 c 5,30,-1
 182 331 l 5,31,32
 210 339 210 339 224.5 359 c 132,-1,33
 239 379 239 379 245 405.5 c 132,-1,34
 251 432 251 432 251 458 c 4,35,36
 251 496 251 496 244 523.5 c 132,-1,37
 237 551 237 551 228 564 c 5,38,-1
 271 551 l 5,39,-1
 34 551 l 5,40,-1
 34 622 l 5,41,-1
 451 622 l 5,42,-1
 451 551 l 5,43,-1
 279 551 l 5,0,-1
621 551 m 5,44,-1
 621 0 l 5,45,-1
 540 0 l 5,46,-1
 540 551 l 5,47,-1
 430 551 l 5,48,-1
 430 622 l 5,49,-1
 725 622 l 5,50,-1
 725 551 l 5,51,-1
 621 551 l 5,44,-1
403 322 m 4,52,53
 437 322 437 322 465 325 c 132,-1,54
 493 328 493 328 521 334.5 c 132,-1,55
 549 341 549 341 581 353 c 5,56,-1
 581 280 l 5,57,58
 538 263 538 263 502.5 257 c 132,-1,59
 467 251 467 251 414 251 c 4,60,61
 381 251 381 251 344.5 255.5 c 132,-1,62
 308 260 308 260 276 268.5 c 132,-1,63
 244 277 244 277 224 287 c 5,64,-1
 244 347 l 5,65,66
 264 340 264 340 290 334 c 132,-1,67
 316 328 316 328 345 325 c 132,-1,68
 374 322 374 322 403 322 c 4,52,53
EndSplineSet
EndChar

StartChar: t
Encoding: 116 116 87
Width: 771
Flags: W
AnchorPoint: "Anchor-2" 390 0 basechar 0
AnchorPoint: "Anchor-1" 403 0 basechar 0
AnchorPoint: "Anchor-0" 403 622 basechar 0
LayerCount: 2
Fore
SplineSet
670 551 m 5,0,-1
 484 551 l 1,1,-1
 484 349 l 1,2,-1
 429 349 l 2,3,4
 381 349 381 349 349 341 c 128,-1,5
 317 333 317 333 294 318 c 0,6,7
 268 300 268 300 253.5 274 c 128,-1,8
 239 248 239 248 239 215 c 0,9,10
 239 167 239 167 261 135.5 c 128,-1,11
 283 104 283 104 318.5 89 c 128,-1,12
 354 74 354 74 396 74 c 0,13,14
 450 74 450 74 488 86.5 c 128,-1,15
 526 99 526 99 568 121 c 1,16,-1
 595 47 l 1,17,18
 551 27 551 27 501.5 13.5 c 128,-1,19
 452 0 452 0 399 0 c 0,20,21
 330 0 330 0 275.5 26 c 128,-1,22
 221 52 221 52 190 101 c 128,-1,23
 159 150 159 150 159 220 c 0,24,25
 159 285 159 285 193 329.5 c 128,-1,26
 227 374 227 374 282.5 397 c 128,-1,27
 338 420 338 420 401 420 c 2,28,-1
 406 420 l 1,29,-1
 403 416 l 1,30,-1
 403 551 l 1,31,-1
 113 551 l 1,32,-1
 113 622 l 1,33,-1
 670 622 l 5,34,-1
 670 551 l 5,0,-1
EndSplineSet
EndChar

StartChar: u
Encoding: 117 117 88
Width: 771
Flags: W
LayerCount: 2
Fore
SplineSet
680.6953125 536 m 5,0,-1
 680.6953125 0 l 5,1,-1
 588.174804688 0 l 5,2,-1
 571.469726562 71 l 5,3,-1
 566.330078125 71 l 5,4,5
 544.485351562 43 544.485351562 43 509.790039062 25 c 132,-1,6
 475.094726562 7 475.094726562 7 433.974609375 -1.5 c 132,-1,7
 392.85546875 -10 392.85546875 -10 347.879882812 -10 c 4,8,9
 265.639648438 -10 265.639648438 -10 209.7421875 10.5 c 132,-1,10
 153.844726562 31 153.844726562 31 125.575195312 74 c 132,-1,11
 97.3046875 117 97.3046875 117 97.3046875 185 c 6,12,-1
 97.3046875 536 l 5,13,-1
 211.669921875 536 l 5,14,-1
 211.669921875 191 l 6,15,16
 211.669921875 127 211.669921875 127 248.934570312 95 c 132,-1,17
 286.200195312 63 286.200195312 63 364.584960938 63 c 4,18,19
 441.684570312 63 441.684570312 63 486.017578125 85.5 c 132,-1,20
 530.349609375 108 530.349609375 108 548.982421875 151.5 c 132,-1,21
 567.615234375 195 567.615234375 195 567.615234375 257 c 6,22,-1
 567.615234375 536 l 5,23,-1
 680.6953125 536 l 5,0,-1
EndSplineSet
EndChar

StartChar: v
Encoding: 118 118 89
Width: 771
Flags: W
LayerCount: 2
Fore
SplineSet
688 551 m 5,0,-1
 552 551 l 1,1,-1
 552 0 l 1,2,-1
 472 0 l 1,3,-1
 472 201 l 1,4,-1
 487 176 l 1,5,6
 460 155 460 155 420 136.5 c 128,-1,7
 380 118 380 118 318 118 c 0,8,9
 264 118 264 118 222 139 c 128,-1,10
 180 160 180 160 155.5 197.5 c 128,-1,11
 131 235 131 235 131 286 c 0,12,13
 131 372 131 372 188.5 418 c 128,-1,14
 246 464 246 464 340 464 c 0,15,16
 353 464 353 464 372.5 462.5 c 128,-1,17
 392 461 392 461 410.5 459 c 128,-1,18
 429 457 429 457 439 454 c 1,19,-1
 434 381 l 1,20,21
 415 385 415 385 391 388 c 128,-1,22
 367 391 367 391 344 391 c 0,23,24
 282 391 282 391 247 364 c 128,-1,25
 212 337 212 337 212 287 c 0,26,27
 212 236 212 236 243.5 212 c 128,-1,28
 275 188 275 188 320 188 c 0,29,30
 360 188 360 188 390.5 201.5 c 128,-1,31
 421 215 421 215 444.5 235 c 128,-1,32
 468 255 468 255 485 274 c 1,33,-1
 472 223 l 1,34,-1
 472 551 l 1,35,-1
 85 551 l 1,36,-1
 85 622 l 1,37,-1
 688 622 l 5,38,-1
 688 551 l 5,0,-1
EndSplineSet
EndChar

StartChar: w
Encoding: 119 119 90
Width: 771
Flags: W
LayerCount: 2
Fore
SplineSet
289.16015625 0 m 1,0,-1
 9.0302734375 536 l 1,1,-1
 127.25 536 l 1,2,-1
 305.865234375 181 l 2,3,4
 327.709960938 140 327.709960938 140 341.202148438 108.5 c 128,-1,5
 354.6953125 77 354.6953125 77 359.834960938 62 c 1,6,-1
 364.974609375 62 l 1,7,8
 372.684570312 82 372.684570312 82 388.747070312 118.5 c 128,-1,9
 404.809570312 155 404.809570312 155 420.23046875 189 c 2,10,-1
 520.459960938 407 l 2,11,12
 544.875 459 544.875 459 566.719726562 488 c 128,-1,13
 588.565429688 517 588.565429688 517 621.33203125 529 c 128,-1,14
 654.099609375 541 654.099609375 541 706.78515625 541 c 0,15,16
 722.205078125 541 722.205078125 541 735.0546875 539 c 128,-1,17
 747.905273438 537 747.905273438 537 759.469726562 535 c 1,18,-1
 759.469726562 467 l 1,19,20
 751.759765625 469 751.759765625 469 739.552734375 470.5 c 128,-1,21
 727.344726562 472 727.344726562 472 715.780273438 472 c 0,22,23
 677.23046875 472 677.23046875 472 659.240234375 452 c 128,-1,24
 641.25 432 641.25 432 620.690429688 390 c 2,25,-1
 433.080078125 0 l 1,26,-1
 289.16015625 0 l 1,0,-1
EndSplineSet
EndChar

StartChar: x
Encoding: 120 120 91
Width: 771
Flags: W
LayerCount: 2
Fore
SplineSet
174.3671875 69 m 5,0,-1
 110.1171875 118 l 5,1,-1
 320.857421875 284 l 5,2,-1
 108.83203125 449 l 5,3,-1
 173.08203125 499 l 5,4,-1
 385.107421875 333 l 5,5,-1
 599.702148438 499 l 5,6,-1
 662.66796875 450 l 5,7,-1
 449.357421875 284 l 5,8,-1
 661.3828125 118 l 5,9,-1
 598.41796875 69 l 5,10,-1
 383.822265625 233 l 5,11,-1
 174.3671875 69 l 5,0,-1
EndSplineSet
EndChar

StartChar: y
Encoding: 121 121 92
Width: 771
Flags: W
LayerCount: 2
Fore
SplineSet
673 622 m 5,0,-1
 673 551 l 5,1,-1
 569 551 l 5,2,-1
 569 0 l 5,3,-1
 488 0 l 5,4,-1
 488 216 l 5,5,-1
 504 191 l 5,6,7
 486 177 486 177 460.5 163 c 132,-1,8
 435 149 435 149 402.5 140.5 c 132,-1,9
 370 132 370 132 331 132 c 4,10,11
 271 132 271 132 226 159.5 c 132,-1,12
 181 187 181 187 153.5 237 c 132,-1,13
 126 287 126 287 116 353 c 5,14,15
 178 366 178 366 208 389.5 c 132,-1,16
 238 413 238 413 238 457 c 4,17,18
 238 492 238 492 221.5 520 c 132,-1,19
 205 548 205 548 188 566 c 5,20,-1
 237 551 l 5,21,-1
 78 551 l 5,22,-1
 78 622 l 5,23,-1
 673 622 l 5,0,-1
253 551 m 5,24,-1
 276 572 l 5,25,26
 296 544 296 544 307 510.5 c 132,-1,27
 318 477 318 477 318 445 c 4,28,29
 318 393 318 393 290.5 356 c 132,-1,30
 263 319 263 319 207 301 c 5,31,32
 227 252 227 252 257.5 227.5 c 132,-1,33
 288 203 288 203 337 203 c 4,34,35
 394 203 394 203 435 230.5 c 132,-1,36
 476 258 476 258 503 292 c 5,37,-1
 488 239 l 5,38,-1
 488 551 l 5,39,-1
 253 551 l 5,24,-1
EndSplineSet
EndChar

StartChar: z
Encoding: 122 122 93
Width: 771
Flags: W
LayerCount: 2
Fore
SplineSet
653 551 m 1,0,-1
 653 0 l 1,1,-1
 572 0 l 1,2,-1
 572 370 l 1,3,-1
 435 370 l 2,4,5
 409 370 409 370 393.5 371 c 128,-1,6
 378 372 378 372 369 375 c 1,7,-1
 362 385 l 1,8,9
 404 356 404 356 431 312 c 128,-1,10
 458 268 458 268 458 218 c 0,11,12
 458 172 458 172 437.5 141 c 128,-1,13
 417 110 417 110 383.5 95 c 128,-1,14
 350 80 350 80 310 80 c 256,15,16
 270 80 270 80 233.5 97 c 128,-1,17
 197 114 197 114 162.5 151.5 c 128,-1,18
 128 189 128 189 95.5 250.5 c 128,-1,19
 63 312 63 312 31 401 c 1,20,-1
 102 426 l 1,21,22
 133 337 133 337 165 276 c 128,-1,23
 197 215 197 215 232 184 c 128,-1,24
 267 153 267 153 306 153 c 0,25,26
 338 153 338 153 358.5 170 c 128,-1,27
 379 187 379 187 379 227 c 0,28,29
 379 271 379 271 348.5 310 c 128,-1,30
 318 349 318 349 273 377 c 1,31,-1
 302 441 l 1,32,-1
 572 441 l 1,33,-1
 572 551 l 1,34,-1
 55 551 l 1,35,-1
 55 622 l 1,36,-1
 733 622 l 5,37,-1
 733 551 l 5,38,-1
 653 551 l 1,0,-1
EndSplineSet
EndChar

StartChar: at
Encoding: 64 64 94
Width: 771
Flags: W
LayerCount: 2
Fore
SplineSet
416.08984375 -89 m 0,0,1
 287.58984375 -89 287.58984375 -89 198.924804688 -42 c 128,-1,2
 110.259765625 5 110.259765625 5 64.642578125 91.5 c 128,-1,3
 19.025390625 178 19.025390625 178 19.025390625 294 c 0,4,5
 19.025390625 386 19.025390625 386 44.08203125 463 c 128,-1,6
 69.1396484375 540 69.1396484375 540 118.612304688 596 c 128,-1,7
 168.084960938 652 168.084960938 652 241.330078125 683 c 128,-1,8
 314.575195312 714 314.575195312 714 409.665039062 714 c 0,9,10
 513.75 714 513.75 714 590.20703125 671 c 128,-1,11
 666.665039062 628 666.665039062 628 709.0703125 548 c 128,-1,12
 751.474609375 468 751.474609375 468 751.474609375 357 c 0,13,14
 751.474609375 311 751.474609375 311 743.122070312 267 c 128,-1,15
 734.76953125 223 734.76953125 223 717.422851562 187 c 128,-1,16
 700.075195312 151 700.075195312 151 671.162109375 129.5 c 128,-1,17
 642.25 108 642.25 108 599.844726562 108 c 0,18,19
 556.155273438 108 556.155273438 108 531.740234375 135 c 128,-1,20
 507.325195312 162 507.325195312 162 500.900390625 196 c 1,21,-1
 498.330078125 196 l 1,22,23
 480.33984375 159 480.33984375 159 444.360351562 133.5 c 128,-1,24
 408.379882812 108 408.379882812 108 354.41015625 108 c 0,25,26
 276.025390625 108 276.025390625 108 233.620117188 160 c 128,-1,27
 191.21484375 212 191.21484375 212 191.21484375 296 c 0,28,29
 191.21484375 362 191.21484375 362 218.200195312 412.5 c 128,-1,30
 245.184570312 463 245.184570312 463 294.657226562 491.5 c 128,-1,31
 344.129882812 520 344.129882812 520 412.235351562 520 c 0,32,33
 458.495117188 520 458.495117188 520 503.469726562 512.5 c 128,-1,34
 548.4453125 505 548.4453125 505 572.860351562 497 c 1,35,-1
 558.724609375 294 l 2,36,37
 557.440429688 286 557.440429688 286 557.440429688 275.5 c 128,-1,38
 557.440429688 265 557.440429688 265 557.440429688 257 c 0,39,40
 557.440429688 205 557.440429688 205 571.575195312 188 c 128,-1,41
 585.709960938 171 585.709960938 171 602.415039062 171 c 0,42,43
 625.544921875 171 625.544921875 171 639.6796875 196.5 c 128,-1,44
 653.815429688 222 653.815429688 222 659.59765625 264.5 c 128,-1,45
 665.379882812 307 665.379882812 307 665.379882812 358 c 0,46,47
 665.379882812 497 665.379882812 497 594.0625 572.5 c 128,-1,48
 522.745117188 648 522.745117188 648 408.379882812 648 c 0,49,50
 310.719726562 648 310.719726562 648 243.2578125 604 c 128,-1,51
 175.794921875 560 175.794921875 560 141.7421875 481.5 c 128,-1,52
 107.690429688 403 107.690429688 403 107.690429688 297 c 0,53,54
 107.690429688 199 107.690429688 199 142.384765625 127 c 128,-1,55
 177.080078125 55 177.080078125 55 246.469726562 16.5 c 128,-1,56
 315.860351562 -22 315.860351562 -22 419.9453125 -22 c 0,57,58
 484.1953125 -22 484.1953125 -22 538.165039062 -11 c 128,-1,59
 592.134765625 0 592.134765625 0 637.110351562 16 c 1,60,-1
 637.110351562 -49 l 1,61,62
 590.849609375 -67 590.849609375 -67 538.165039062 -78 c 128,-1,63
 485.48046875 -89 485.48046875 -89 416.08984375 -89 c 0,0,1
371.115234375 171 m 0,64,65
 418.66015625 171 418.66015625 171 437.934570312 213.5 c 128,-1,66
 457.209960938 256 457.209960938 256 462.349609375 323 c 2,67,-1
 471.344726562 447 l 1,68,69
 458.495117188 451 458.495117188 451 441.790039062 454 c 128,-1,70
 425.084960938 457 425.084960938 457 407.094726562 457 c 0,71,72
 364.690429688 457 364.690429688 457 339.6328125 433 c 128,-1,73
 314.575195312 409 314.575195312 409 303.009765625 372 c 128,-1,74
 291.4453125 335 291.4453125 335 291.4453125 294 c 0,75,76
 291.4453125 229 291.4453125 229 313.290039062 200 c 128,-1,77
 335.134765625 171 335.134765625 171 371.115234375 171 c 0,64,65
EndSplineSet
EndChar

StartChar: ampersand
Encoding: 38 38 95
Width: 771
Flags: W
LayerCount: 2
Fore
SplineSet
284.740234375 -10 m 0,0,1
 208.924804688 -10 208.924804688 -10 155.59765625 14 c 128,-1,2
 102.26953125 38 102.26953125 38 74.642578125 80.5 c 128,-1,3
 47.0146484375 123 47.0146484375 123 47.0146484375 176 c 0,4,5
 47.0146484375 233 47.0146484375 233 75.927734375 275.5 c 128,-1,6
 104.83984375 318 104.83984375 318 151.099609375 351.5 c 128,-1,7
 197.360351562 385 197.360351562 385 250.044921875 414 c 0,8,9
 279.599609375 430 279.599609375 430 315.580078125 454 c 128,-1,10
 351.559570312 478 351.559570312 478 378.544921875 509.5 c 128,-1,11
 405.530273438 541 405.530273438 541 405.530273438 580 c 0,12,13
 405.530273438 616 405.530273438 616 381.115234375 636 c 128,-1,14
 356.700195312 656 356.700195312 656 316.865234375 656 c 256,15,16
 277.030273438 656 277.030273438 656 253.2578125 635 c 128,-1,17
 229.485351562 614 229.485351562 614 229.485351562 576 c 0,18,19
 229.485351562 550 229.485351562 550 240.407226562 522 c 128,-1,20
 251.330078125 494 251.330078125 494 269.962890625 468 c 128,-1,21
 288.594726562 442 288.594726562 442 310.440429688 420 c 2,22,-1
 743.485351562 0 l 1,23,-1
 605.990234375 0 l 1,24,-1
 243.620117188 364 l 2,25,26
 215.349609375 393 215.349609375 393 187.72265625 427 c 128,-1,27
 160.094726562 461 160.094726562 461 142.10546875 499.5 c 128,-1,28
 124.115234375 538 124.115234375 538 124.115234375 578 c 0,29,30
 124.115234375 644 124.115234375 644 175.514648438 684.5 c 128,-1,31
 226.915039062 725 226.915039062 725 316.865234375 725 c 256,32,33
 406.815429688 725 406.815429688 725 458.21484375 684.5 c 128,-1,34
 509.615234375 644 509.615234375 644 509.615234375 580 c 0,35,36
 509.615234375 530 509.615234375 530 480.059570312 490 c 128,-1,37
 450.504882812 450 450.504882812 450 405.530273438 418.5 c 128,-1,38
 360.5546875 387 360.5546875 387 315.580078125 359 c 0,39,40
 278.315429688 336 278.315429688 336 241.692382812 310.5 c 128,-1,41
 205.0703125 285 205.0703125 285 181.297851562 253.5 c 128,-1,42
 157.525390625 222 157.525390625 222 157.525390625 181 c 0,43,44
 157.525390625 133 157.525390625 133 194.790039062 100 c 128,-1,45
 232.0546875 67 232.0546875 67 297.58984375 67 c 0,46,47
 345.134765625 67 345.134765625 67 386.897460938 84.5 c 128,-1,48
 428.66015625 102 428.66015625 102 463.35546875 132 c 128,-1,49
 498.049804688 162 498.049804688 162 524.392578125 198.5 c 128,-1,50
 550.735351562 235 550.735351562 235 568.08203125 274 c 128,-1,51
 585.4296875 313 585.4296875 313 593.139648438 349 c 1,52,-1
 699.794921875 349 l 1,53,54
 686.9453125 292 686.9453125 292 661.887695312 239 c 128,-1,55
 636.830078125 186 636.830078125 186 599.565429688 140.5 c 128,-1,56
 562.299804688 95 562.299804688 95 514.754882812 61.5 c 128,-1,57
 467.209960938 28 467.209960938 28 409.384765625 9 c 128,-1,58
 351.559570312 -10 351.559570312 -10 284.740234375 -10 c 0,0,1
EndSplineSet
EndChar

StartChar: dollar
Encoding: 36 36 96
Width: 771
Flags: W
LayerCount: 2
Fore
SplineSet
337.705078125 34 m 1,0,1
 273.455078125 35 273.455078125 35 214.987304688 43.5 c 128,-1,2
 156.51953125 52 156.51953125 52 115.400390625 67 c 1,3,-1
 115.400390625 152 l 1,4,5
 159.08984375 136 159.08984375 136 218.842773438 124 c 128,-1,6
 278.594726562 112 278.594726562 112 337.705078125 111 c 1,7,-1
 337.705078125 328 l 1,8,9
 260.60546875 348 260.60546875 348 207.919921875 371.5 c 128,-1,10
 155.235351562 395 155.235351562 395 128.892578125 429.5 c 128,-1,11
 102.549804688 464 102.549804688 464 102.549804688 515 c 0,12,13
 102.549804688 565 102.549804688 565 131.462890625 602 c 128,-1,14
 160.375 639 160.375 639 213.059570312 660.5 c 128,-1,15
 265.745117188 682 265.745117188 682 337.705078125 686 c 1,16,-1
 337.705078125 759 l 1,17,-1
 419.9453125 759 l 1,18,-1
 419.9453125 687 l 1,19,20
 484.1953125 686 484.1953125 686 535.594726562 675.5 c 128,-1,21
 586.995117188 665 586.995117188 665 633.254882812 650 c 1,22,-1
 598.559570312 576 l 1,23,24
 557.440429688 589 557.440429688 589 512.46484375 598.5 c 128,-1,25
 467.490234375 608 467.490234375 608 419.9453125 611 c 1,26,-1
 419.9453125 395 l 1,27,28
 502.184570312 376 502.184570312 376 557.440429688 354.5 c 128,-1,29
 612.6953125 333 612.6953125 333 640.322265625 299.5 c 128,-1,30
 667.950195312 266 667.950195312 266 667.950195312 212 c 0,31,32
 667.950195312 142 667.950195312 142 603.057617188 95.5 c 128,-1,33
 538.165039062 49 538.165039062 49 419.9453125 38 c 1,34,-1
 419.9453125 -58 l 1,35,-1
 337.705078125 -58 l 1,36,-1
 337.705078125 34 l 1,0,1
419.9453125 116 m 1,37,38
 491.905273438 123 491.905273438 123 524.672851562 148.5 c 128,-1,39
 557.440429688 174 557.440429688 174 557.440429688 214 c 0,40,41
 557.440429688 239 557.440429688 239 545.232421875 255.5 c 128,-1,42
 533.025390625 272 533.025390625 272 503.469726562 284 c 128,-1,43
 473.915039062 296 473.915039062 296 419.9453125 307 c 1,44,-1
 419.9453125 116 l 1,37,38
337.705078125 609 m 1,45,46
 295.299804688 606 295.299804688 606 267.672851562 593.5 c 128,-1,47
 240.044921875 581 240.044921875 581 226.552734375 561 c 128,-1,48
 213.059570312 541 213.059570312 541 213.059570312 515 c 0,49,50
 213.059570312 490 213.059570312 490 224.625 471.5 c 128,-1,51
 236.190429688 453 236.190429688 453 263.174804688 440 c 128,-1,52
 290.16015625 427 290.16015625 427 337.705078125 417 c 1,53,-1
 337.705078125 609 l 1,45,46
EndSplineSet
EndChar

StartChar: grave
Encoding: 96 96 97
Width: 771
Flags: W
LayerCount: 2
Fore
SplineSet
145 766 m 1,0,1
 156 744 156 744 172.5 716.5 c 128,-1,2
 189 689 189 689 207.5 663 c 128,-1,3
 226 637 226 637 241 618 c 1,4,-1
 241 606 l 1,5,-1
 182 606 l 1,6,7
 165 620 165 620 144 639.5 c 128,-1,8
 123 659 123 659 102.5 680.5 c 128,-1,9
 82 702 82 702 65.5 722 c 128,-1,10
 49 742 49 742 40 756 c 1,11,-1
 40 766 l 1,12,-1
 145 766 l 1,0,1
EndSplineSet
EndChar

StartChar: uni0080
Encoding: 128 128 98
Width: 771
Flags: W
LayerCount: 2
Fore
SplineSet
121.932617188 85 m 4,0,1
 121.932617188 103 121.932617188 103 141.849609375 118 c 132,-1,2
 161.767578125 133 161.767578125 133 197.747070312 144.5 c 132,-1,3
 233.727539062 156 233.727539062 156 281.915039062 162.5 c 132,-1,4
 330.102539062 169 330.102539062 169 385.357421875 169 c 4,5,6
 441.897460938 169 441.897460938 169 490.084960938 162.5 c 132,-1,7
 538.272460938 156 538.272460938 156 573.610351562 144.5 c 132,-1,8
 608.947265625 133 608.947265625 133 629.5078125 118 c 132,-1,9
 650.067382812 103 650.067382812 103 650.067382812 85 c 4,10,11
 650.067382812 68 650.067382812 68 629.5078125 53 c 132,-1,12
 608.947265625 38 608.947265625 38 573.610351562 27 c 132,-1,13
 538.272460938 16 538.272460938 16 490.084960938 9.5 c 132,-1,14
 441.897460938 3 441.897460938 3 385.357421875 3 c 4,15,16
 330.102539062 3 330.102539062 3 281.915039062 9.5 c 132,-1,17
 233.727539062 16 233.727539062 16 197.747070312 27 c 132,-1,18
 161.767578125 38 161.767578125 38 141.849609375 53 c 132,-1,19
 121.932617188 68 121.932617188 68 121.932617188 85 c 4,0,1
224.732421875 85 m 260,20,21
 224.732421875 74 224.732421875 74 236.940429688 64.5 c 132,-1,22
 249.147460938 55 249.147460938 55 270.9921875 48.5 c 132,-1,23
 292.837890625 42 292.837890625 42 322.392578125 38 c 132,-1,24
 351.947265625 34 351.947265625 34 385.357421875 34 c 4,25,26
 420.052734375 34 420.052734375 34 448.96484375 38 c 132,-1,27
 477.877929688 42 477.877929688 42 499.72265625 48.5 c 132,-1,28
 521.567382812 55 521.567382812 55 533.775390625 64.5 c 132,-1,29
 545.982421875 74 545.982421875 74 545.982421875 85 c 260,30,31
 545.982421875 96 545.982421875 96 533.775390625 105.5 c 132,-1,32
 521.567382812 115 521.567382812 115 499.72265625 122 c 132,-1,33
 477.877929688 129 477.877929688 129 448.96484375 133 c 132,-1,34
 420.052734375 137 420.052734375 137 385.357421875 137 c 4,35,36
 351.947265625 137 351.947265625 137 322.392578125 133 c 132,-1,37
 292.837890625 129 292.837890625 129 270.9921875 122 c 132,-1,38
 249.147460938 115 249.147460938 115 236.940429688 105.5 c 132,-1,39
 224.732421875 96 224.732421875 96 224.732421875 85 c 260,20,21
121.932617188 272 m 4,40,41
 121.932617188 290 121.932617188 290 141.849609375 305 c 132,-1,42
 161.767578125 320 161.767578125 320 197.747070312 331.5 c 132,-1,43
 233.727539062 343 233.727539062 343 281.915039062 349 c 132,-1,44
 330.102539062 355 330.102539062 355 385.357421875 355 c 4,45,46
 441.897460938 355 441.897460938 355 490.084960938 349 c 132,-1,47
 538.272460938 343 538.272460938 343 573.610351562 331.5 c 132,-1,48
 608.947265625 320 608.947265625 320 629.5078125 305 c 132,-1,49
 650.067382812 290 650.067382812 290 650.067382812 272 c 4,50,51
 650.067382812 255 650.067382812 255 629.5078125 240 c 132,-1,52
 608.947265625 225 608.947265625 225 573.610351562 214 c 132,-1,53
 538.272460938 203 538.272460938 203 490.084960938 196 c 132,-1,54
 441.897460938 189 441.897460938 189 385.357421875 189 c 4,55,56
 330.102539062 189 330.102539062 189 281.915039062 196 c 132,-1,57
 233.727539062 203 233.727539062 203 197.747070312 214 c 132,-1,58
 161.767578125 225 161.767578125 225 141.849609375 240 c 132,-1,59
 121.932617188 255 121.932617188 255 121.932617188 272 c 4,40,41
224.732421875 272 m 260,60,61
 224.732421875 261 224.732421875 261 236.940429688 251.5 c 132,-1,62
 249.147460938 242 249.147460938 242 270.9921875 235 c 132,-1,63
 292.837890625 228 292.837890625 228 322.392578125 224 c 132,-1,64
 351.947265625 220 351.947265625 220 385.357421875 220 c 4,65,66
 420.052734375 220 420.052734375 220 448.96484375 224 c 132,-1,67
 477.877929688 228 477.877929688 228 499.72265625 235 c 132,-1,68
 521.567382812 242 521.567382812 242 533.775390625 251.5 c 132,-1,69
 545.982421875 261 545.982421875 261 545.982421875 272 c 260,70,71
 545.982421875 283 545.982421875 283 533.775390625 292.5 c 132,-1,72
 521.567382812 302 521.567382812 302 499.72265625 309 c 132,-1,73
 477.877929688 316 477.877929688 316 448.96484375 320 c 132,-1,74
 420.052734375 324 420.052734375 324 385.357421875 324 c 4,75,76
 351.947265625 324 351.947265625 324 322.392578125 320 c 132,-1,77
 292.837890625 316 292.837890625 316 270.9921875 309 c 132,-1,78
 249.147460938 302 249.147460938 302 236.940429688 292.5 c 132,-1,79
 224.732421875 283 224.732421875 283 224.732421875 272 c 260,60,61
121.932617188 461 m 260,80,81
 121.932617188 478 121.932617188 478 141.849609375 493.5 c 132,-1,82
 161.767578125 509 161.767578125 509 197.747070312 520 c 132,-1,83
 233.727539062 531 233.727539062 531 281.915039062 537.5 c 132,-1,84
 330.102539062 544 330.102539062 544 385.357421875 544 c 4,85,86
 441.897460938 544 441.897460938 544 490.084960938 537.5 c 132,-1,87
 538.272460938 531 538.272460938 531 573.610351562 520 c 132,-1,88
 608.947265625 509 608.947265625 509 629.5078125 493.5 c 132,-1,89
 650.067382812 478 650.067382812 478 650.067382812 461 c 260,90,91
 650.067382812 444 650.067382812 444 629.5078125 429 c 132,-1,92
 608.947265625 414 608.947265625 414 573.610351562 402.5 c 132,-1,93
 538.272460938 391 538.272460938 391 490.084960938 384.5 c 132,-1,94
 441.897460938 378 441.897460938 378 385.357421875 378 c 4,95,96
 330.102539062 378 330.102539062 378 281.915039062 384.5 c 132,-1,97
 233.727539062 391 233.727539062 391 197.747070312 402.5 c 132,-1,98
 161.767578125 414 161.767578125 414 141.849609375 429 c 132,-1,99
 121.932617188 444 121.932617188 444 121.932617188 461 c 260,80,81
224.732421875 461 m 260,100,101
 224.732421875 450 224.732421875 450 236.940429688 440.5 c 132,-1,102
 249.147460938 431 249.147460938 431 270.9921875 424 c 132,-1,103
 292.837890625 417 292.837890625 417 322.392578125 413 c 132,-1,104
 351.947265625 409 351.947265625 409 385.357421875 409 c 4,105,106
 420.052734375 409 420.052734375 409 448.96484375 413 c 132,-1,107
 477.877929688 417 477.877929688 417 499.72265625 424 c 132,-1,108
 521.567382812 431 521.567382812 431 533.775390625 440.5 c 132,-1,109
 545.982421875 450 545.982421875 450 545.982421875 461 c 260,110,111
 545.982421875 472 545.982421875 472 533.775390625 481.5 c 132,-1,112
 521.567382812 491 521.567382812 491 499.72265625 498 c 132,-1,113
 477.877929688 505 477.877929688 505 448.96484375 509 c 132,-1,114
 420.052734375 513 420.052734375 513 385.357421875 513 c 4,115,116
 351.947265625 513 351.947265625 513 322.392578125 509 c 132,-1,117
 292.837890625 505 292.837890625 505 270.9921875 498 c 132,-1,118
 249.147460938 491 249.147460938 491 236.940429688 481.5 c 132,-1,119
 224.732421875 472 224.732421875 472 224.732421875 461 c 260,100,101
121.932617188 648 m 260,120,121
 121.932617188 665 121.932617188 665 141.849609375 680.5 c 132,-1,122
 161.767578125 696 161.767578125 696 197.747070312 707 c 132,-1,123
 233.727539062 718 233.727539062 718 281.915039062 724.5 c 132,-1,124
 330.102539062 731 330.102539062 731 385.357421875 731 c 4,125,126
 441.897460938 731 441.897460938 731 490.084960938 724.5 c 132,-1,127
 538.272460938 718 538.272460938 718 573.610351562 707 c 132,-1,128
 608.947265625 696 608.947265625 696 629.5078125 680.5 c 132,-1,129
 650.067382812 665 650.067382812 665 650.067382812 648 c 260,130,131
 650.067382812 631 650.067382812 631 629.5078125 616 c 132,-1,132
 608.947265625 601 608.947265625 601 573.610351562 589.5 c 132,-1,133
 538.272460938 578 538.272460938 578 490.084960938 571.5 c 132,-1,134
 441.897460938 565 441.897460938 565 385.357421875 565 c 4,135,136
 330.102539062 565 330.102539062 565 281.915039062 571.5 c 132,-1,137
 233.727539062 578 233.727539062 578 197.747070312 589.5 c 132,-1,138
 161.767578125 601 161.767578125 601 141.849609375 616 c 132,-1,139
 121.932617188 631 121.932617188 631 121.932617188 648 c 260,120,121
224.732421875 648 m 4,140,141
 224.732421875 637 224.732421875 637 236.940429688 627.5 c 132,-1,142
 249.147460938 618 249.147460938 618 270.9921875 611 c 132,-1,143
 292.837890625 604 292.837890625 604 322.392578125 600 c 132,-1,144
 351.947265625 596 351.947265625 596 385.357421875 596 c 4,145,146
 420.052734375 596 420.052734375 596 448.96484375 600 c 132,-1,147
 477.877929688 604 477.877929688 604 499.72265625 611 c 132,-1,148
 521.567382812 618 521.567382812 618 533.775390625 627.5 c 132,-1,149
 545.982421875 637 545.982421875 637 545.982421875 648 c 4,150,151
 545.982421875 658 545.982421875 658 533.775390625 668 c 132,-1,152
 521.567382812 678 521.567382812 678 499.72265625 685 c 132,-1,153
 477.877929688 692 477.877929688 692 448.96484375 696 c 132,-1,154
 420.052734375 700 420.052734375 700 385.357421875 700 c 4,155,156
 351.947265625 700 351.947265625 700 322.392578125 696 c 132,-1,157
 292.837890625 692 292.837890625 692 270.9921875 685 c 132,-1,158
 249.147460938 678 249.147460938 678 236.940429688 668 c 132,-1,159
 224.732421875 658 224.732421875 658 224.732421875 648 c 4,140,141
EndSplineSet
EndChar

StartChar: uni0081
Encoding: 129 129 99
Width: 771
Flags: W
LayerCount: 2
Fore
SplineSet
121.932617188 85 m 0,0,1
 121.932617188 103 121.932617188 103 141.849609375 118 c 128,-1,2
 161.767578125 133 161.767578125 133 197.747070312 144.5 c 128,-1,3
 233.727539062 156 233.727539062 156 281.915039062 162.5 c 128,-1,4
 330.102539062 169 330.102539062 169 385.357421875 169 c 0,5,6
 441.897460938 169 441.897460938 169 490.084960938 162.5 c 128,-1,7
 538.272460938 156 538.272460938 156 573.610351562 144.5 c 128,-1,8
 608.947265625 133 608.947265625 133 629.5078125 118 c 128,-1,9
 650.067382812 103 650.067382812 103 650.067382812 85 c 0,10,11
 650.067382812 68 650.067382812 68 629.5078125 53 c 128,-1,12
 608.947265625 38 608.947265625 38 573.610351562 27 c 128,-1,13
 538.272460938 16 538.272460938 16 490.084960938 9.5 c 128,-1,14
 441.897460938 3 441.897460938 3 385.357421875 3 c 0,15,16
 330.102539062 3 330.102539062 3 281.915039062 9.5 c 128,-1,17
 233.727539062 16 233.727539062 16 197.747070312 27 c 128,-1,18
 161.767578125 38 161.767578125 38 141.849609375 53 c 128,-1,19
 121.932617188 68 121.932617188 68 121.932617188 85 c 0,0,1
121.932617188 272 m 0,20,21
 121.932617188 290 121.932617188 290 141.849609375 305 c 128,-1,22
 161.767578125 320 161.767578125 320 197.747070312 331.5 c 128,-1,23
 233.727539062 343 233.727539062 343 281.915039062 349 c 128,-1,24
 330.102539062 355 330.102539062 355 385.357421875 355 c 0,25,26
 441.897460938 355 441.897460938 355 490.084960938 349 c 128,-1,27
 538.272460938 343 538.272460938 343 573.610351562 331.5 c 128,-1,28
 608.947265625 320 608.947265625 320 629.5078125 305 c 128,-1,29
 650.067382812 290 650.067382812 290 650.067382812 272 c 0,30,31
 650.067382812 255 650.067382812 255 629.5078125 240 c 128,-1,32
 608.947265625 225 608.947265625 225 573.610351562 214 c 128,-1,33
 538.272460938 203 538.272460938 203 490.084960938 196 c 128,-1,34
 441.897460938 189 441.897460938 189 385.357421875 189 c 0,35,36
 330.102539062 189 330.102539062 189 281.915039062 196 c 128,-1,37
 233.727539062 203 233.727539062 203 197.747070312 214 c 128,-1,38
 161.767578125 225 161.767578125 225 141.849609375 240 c 128,-1,39
 121.932617188 255 121.932617188 255 121.932617188 272 c 0,20,21
224.732421875 272 m 256,40,41
 224.732421875 261 224.732421875 261 236.940429688 251.5 c 128,-1,42
 249.147460938 242 249.147460938 242 270.9921875 235 c 128,-1,43
 292.837890625 228 292.837890625 228 322.392578125 224 c 128,-1,44
 351.947265625 220 351.947265625 220 385.357421875 220 c 0,45,46
 420.052734375 220 420.052734375 220 448.96484375 224 c 128,-1,47
 477.877929688 228 477.877929688 228 499.72265625 235 c 128,-1,48
 521.567382812 242 521.567382812 242 533.775390625 251.5 c 128,-1,49
 545.982421875 261 545.982421875 261 545.982421875 272 c 256,50,51
 545.982421875 283 545.982421875 283 533.775390625 292.5 c 128,-1,52
 521.567382812 302 521.567382812 302 499.72265625 309 c 128,-1,53
 477.877929688 316 477.877929688 316 448.96484375 320 c 128,-1,54
 420.052734375 324 420.052734375 324 385.357421875 324 c 0,55,56
 351.947265625 324 351.947265625 324 322.392578125 320 c 128,-1,57
 292.837890625 316 292.837890625 316 270.9921875 309 c 128,-1,58
 249.147460938 302 249.147460938 302 236.940429688 292.5 c 128,-1,59
 224.732421875 283 224.732421875 283 224.732421875 272 c 256,40,41
121.932617188 461 m 256,60,61
 121.932617188 478 121.932617188 478 141.849609375 493.5 c 128,-1,62
 161.767578125 509 161.767578125 509 197.747070312 520 c 128,-1,63
 233.727539062 531 233.727539062 531 281.915039062 537.5 c 128,-1,64
 330.102539062 544 330.102539062 544 385.357421875 544 c 0,65,66
 441.897460938 544 441.897460938 544 490.084960938 537.5 c 128,-1,67
 538.272460938 531 538.272460938 531 573.610351562 520 c 128,-1,68
 608.947265625 509 608.947265625 509 629.5078125 493.5 c 128,-1,69
 650.067382812 478 650.067382812 478 650.067382812 461 c 256,70,71
 650.067382812 444 650.067382812 444 629.5078125 429 c 128,-1,72
 608.947265625 414 608.947265625 414 573.610351562 402.5 c 128,-1,73
 538.272460938 391 538.272460938 391 490.084960938 384.5 c 128,-1,74
 441.897460938 378 441.897460938 378 385.357421875 378 c 0,75,76
 330.102539062 378 330.102539062 378 281.915039062 384.5 c 128,-1,77
 233.727539062 391 233.727539062 391 197.747070312 402.5 c 128,-1,78
 161.767578125 414 161.767578125 414 141.849609375 429 c 128,-1,79
 121.932617188 444 121.932617188 444 121.932617188 461 c 256,60,61
224.732421875 461 m 256,80,81
 224.732421875 450 224.732421875 450 236.940429688 440.5 c 128,-1,82
 249.147460938 431 249.147460938 431 270.9921875 424 c 128,-1,83
 292.837890625 417 292.837890625 417 322.392578125 413 c 128,-1,84
 351.947265625 409 351.947265625 409 385.357421875 409 c 0,85,86
 420.052734375 409 420.052734375 409 448.96484375 413 c 128,-1,87
 477.877929688 417 477.877929688 417 499.72265625 424 c 128,-1,88
 521.567382812 431 521.567382812 431 533.775390625 440.5 c 128,-1,89
 545.982421875 450 545.982421875 450 545.982421875 461 c 256,90,91
 545.982421875 472 545.982421875 472 533.775390625 481.5 c 128,-1,92
 521.567382812 491 521.567382812 491 499.72265625 498 c 128,-1,93
 477.877929688 505 477.877929688 505 448.96484375 509 c 128,-1,94
 420.052734375 513 420.052734375 513 385.357421875 513 c 0,95,96
 351.947265625 513 351.947265625 513 322.392578125 509 c 128,-1,97
 292.837890625 505 292.837890625 505 270.9921875 498 c 128,-1,98
 249.147460938 491 249.147460938 491 236.940429688 481.5 c 128,-1,99
 224.732421875 472 224.732421875 472 224.732421875 461 c 256,80,81
121.932617188 648 m 256,100,101
 121.932617188 665 121.932617188 665 141.849609375 680.5 c 128,-1,102
 161.767578125 696 161.767578125 696 197.747070312 707 c 128,-1,103
 233.727539062 718 233.727539062 718 281.915039062 724.5 c 128,-1,104
 330.102539062 731 330.102539062 731 385.357421875 731 c 0,105,106
 441.897460938 731 441.897460938 731 490.084960938 724.5 c 128,-1,107
 538.272460938 718 538.272460938 718 573.610351562 707 c 128,-1,108
 608.947265625 696 608.947265625 696 629.5078125 680.5 c 128,-1,109
 650.067382812 665 650.067382812 665 650.067382812 648 c 256,110,111
 650.067382812 631 650.067382812 631 629.5078125 616 c 128,-1,112
 608.947265625 601 608.947265625 601 573.610351562 589.5 c 128,-1,113
 538.272460938 578 538.272460938 578 490.084960938 571.5 c 128,-1,114
 441.897460938 565 441.897460938 565 385.357421875 565 c 0,115,116
 330.102539062 565 330.102539062 565 281.915039062 571.5 c 128,-1,117
 233.727539062 578 233.727539062 578 197.747070312 589.5 c 128,-1,118
 161.767578125 601 161.767578125 601 141.849609375 616 c 128,-1,119
 121.932617188 631 121.932617188 631 121.932617188 648 c 256,100,101
224.732421875 648 m 0,120,121
 224.732421875 637 224.732421875 637 236.940429688 627.5 c 128,-1,122
 249.147460938 618 249.147460938 618 270.9921875 611 c 128,-1,123
 292.837890625 604 292.837890625 604 322.392578125 600 c 128,-1,124
 351.947265625 596 351.947265625 596 385.357421875 596 c 0,125,126
 420.052734375 596 420.052734375 596 448.96484375 600 c 128,-1,127
 477.877929688 604 477.877929688 604 499.72265625 611 c 128,-1,128
 521.567382812 618 521.567382812 618 533.775390625 627.5 c 128,-1,129
 545.982421875 637 545.982421875 637 545.982421875 648 c 0,130,131
 545.982421875 658 545.982421875 658 533.775390625 668 c 128,-1,132
 521.567382812 678 521.567382812 678 499.72265625 685 c 128,-1,133
 477.877929688 692 477.877929688 692 448.96484375 696 c 128,-1,134
 420.052734375 700 420.052734375 700 385.357421875 700 c 0,135,136
 351.947265625 700 351.947265625 700 322.392578125 696 c 128,-1,137
 292.837890625 692 292.837890625 692 270.9921875 685 c 128,-1,138
 249.147460938 678 249.147460938 678 236.940429688 668 c 128,-1,139
 224.732421875 658 224.732421875 658 224.732421875 648 c 0,120,121
EndSplineSet
EndChar

StartChar: uni0082
Encoding: 130 130 100
Width: 771
Flags: W
LayerCount: 2
Fore
SplineSet
121.932617188 85 m 0,0,1
 121.932617188 103 121.932617188 103 141.849609375 118 c 128,-1,2
 161.767578125 133 161.767578125 133 197.747070312 144.5 c 128,-1,3
 233.727539062 156 233.727539062 156 281.915039062 162.5 c 128,-1,4
 330.102539062 169 330.102539062 169 385.357421875 169 c 0,5,6
 441.897460938 169 441.897460938 169 490.084960938 162.5 c 128,-1,7
 538.272460938 156 538.272460938 156 573.610351562 144.5 c 128,-1,8
 608.947265625 133 608.947265625 133 629.5078125 118 c 128,-1,9
 650.067382812 103 650.067382812 103 650.067382812 85 c 0,10,11
 650.067382812 68 650.067382812 68 629.5078125 53 c 128,-1,12
 608.947265625 38 608.947265625 38 573.610351562 27 c 128,-1,13
 538.272460938 16 538.272460938 16 490.084960938 9.5 c 128,-1,14
 441.897460938 3 441.897460938 3 385.357421875 3 c 0,15,16
 330.102539062 3 330.102539062 3 281.915039062 9.5 c 128,-1,17
 233.727539062 16 233.727539062 16 197.747070312 27 c 128,-1,18
 161.767578125 38 161.767578125 38 141.849609375 53 c 128,-1,19
 121.932617188 68 121.932617188 68 121.932617188 85 c 0,0,1
224.732421875 85 m 256,20,21
 224.732421875 74 224.732421875 74 236.940429688 64.5 c 128,-1,22
 249.147460938 55 249.147460938 55 270.9921875 48.5 c 128,-1,23
 292.837890625 42 292.837890625 42 322.392578125 38 c 128,-1,24
 351.947265625 34 351.947265625 34 385.357421875 34 c 0,25,26
 420.052734375 34 420.052734375 34 448.96484375 38 c 128,-1,27
 477.877929688 42 477.877929688 42 499.72265625 48.5 c 128,-1,28
 521.567382812 55 521.567382812 55 533.775390625 64.5 c 128,-1,29
 545.982421875 74 545.982421875 74 545.982421875 85 c 256,30,31
 545.982421875 96 545.982421875 96 533.775390625 105.5 c 128,-1,32
 521.567382812 115 521.567382812 115 499.72265625 122 c 128,-1,33
 477.877929688 129 477.877929688 129 448.96484375 133 c 128,-1,34
 420.052734375 137 420.052734375 137 385.357421875 137 c 0,35,36
 351.947265625 137 351.947265625 137 322.392578125 133 c 128,-1,37
 292.837890625 129 292.837890625 129 270.9921875 122 c 128,-1,38
 249.147460938 115 249.147460938 115 236.940429688 105.5 c 128,-1,39
 224.732421875 96 224.732421875 96 224.732421875 85 c 256,20,21
121.932617188 272 m 0,40,41
 121.932617188 290 121.932617188 290 141.849609375 305 c 128,-1,42
 161.767578125 320 161.767578125 320 197.747070312 331.5 c 128,-1,43
 233.727539062 343 233.727539062 343 281.915039062 349 c 128,-1,44
 330.102539062 355 330.102539062 355 385.357421875 355 c 0,45,46
 441.897460938 355 441.897460938 355 490.084960938 349 c 128,-1,47
 538.272460938 343 538.272460938 343 573.610351562 331.5 c 128,-1,48
 608.947265625 320 608.947265625 320 629.5078125 305 c 128,-1,49
 650.067382812 290 650.067382812 290 650.067382812 272 c 0,50,51
 650.067382812 255 650.067382812 255 629.5078125 240 c 128,-1,52
 608.947265625 225 608.947265625 225 573.610351562 214 c 128,-1,53
 538.272460938 203 538.272460938 203 490.084960938 196 c 128,-1,54
 441.897460938 189 441.897460938 189 385.357421875 189 c 0,55,56
 330.102539062 189 330.102539062 189 281.915039062 196 c 128,-1,57
 233.727539062 203 233.727539062 203 197.747070312 214 c 128,-1,58
 161.767578125 225 161.767578125 225 141.849609375 240 c 128,-1,59
 121.932617188 255 121.932617188 255 121.932617188 272 c 0,40,41
121.932617188 461 m 256,60,61
 121.932617188 478 121.932617188 478 141.849609375 493.5 c 128,-1,62
 161.767578125 509 161.767578125 509 197.747070312 520 c 128,-1,63
 233.727539062 531 233.727539062 531 281.915039062 537.5 c 128,-1,64
 330.102539062 544 330.102539062 544 385.357421875 544 c 0,65,66
 441.897460938 544 441.897460938 544 490.084960938 537.5 c 128,-1,67
 538.272460938 531 538.272460938 531 573.610351562 520 c 128,-1,68
 608.947265625 509 608.947265625 509 629.5078125 493.5 c 128,-1,69
 650.067382812 478 650.067382812 478 650.067382812 461 c 256,70,71
 650.067382812 444 650.067382812 444 629.5078125 429 c 128,-1,72
 608.947265625 414 608.947265625 414 573.610351562 402.5 c 128,-1,73
 538.272460938 391 538.272460938 391 490.084960938 384.5 c 128,-1,74
 441.897460938 378 441.897460938 378 385.357421875 378 c 0,75,76
 330.102539062 378 330.102539062 378 281.915039062 384.5 c 128,-1,77
 233.727539062 391 233.727539062 391 197.747070312 402.5 c 128,-1,78
 161.767578125 414 161.767578125 414 141.849609375 429 c 128,-1,79
 121.932617188 444 121.932617188 444 121.932617188 461 c 256,60,61
224.732421875 461 m 256,80,81
 224.732421875 450 224.732421875 450 236.940429688 440.5 c 128,-1,82
 249.147460938 431 249.147460938 431 270.9921875 424 c 128,-1,83
 292.837890625 417 292.837890625 417 322.392578125 413 c 128,-1,84
 351.947265625 409 351.947265625 409 385.357421875 409 c 0,85,86
 420.052734375 409 420.052734375 409 448.96484375 413 c 128,-1,87
 477.877929688 417 477.877929688 417 499.72265625 424 c 128,-1,88
 521.567382812 431 521.567382812 431 533.775390625 440.5 c 128,-1,89
 545.982421875 450 545.982421875 450 545.982421875 461 c 256,90,91
 545.982421875 472 545.982421875 472 533.775390625 481.5 c 128,-1,92
 521.567382812 491 521.567382812 491 499.72265625 498 c 128,-1,93
 477.877929688 505 477.877929688 505 448.96484375 509 c 128,-1,94
 420.052734375 513 420.052734375 513 385.357421875 513 c 0,95,96
 351.947265625 513 351.947265625 513 322.392578125 509 c 128,-1,97
 292.837890625 505 292.837890625 505 270.9921875 498 c 128,-1,98
 249.147460938 491 249.147460938 491 236.940429688 481.5 c 128,-1,99
 224.732421875 472 224.732421875 472 224.732421875 461 c 256,80,81
121.932617188 648 m 256,100,101
 121.932617188 665 121.932617188 665 141.849609375 680.5 c 128,-1,102
 161.767578125 696 161.767578125 696 197.747070312 707 c 128,-1,103
 233.727539062 718 233.727539062 718 281.915039062 724.5 c 128,-1,104
 330.102539062 731 330.102539062 731 385.357421875 731 c 0,105,106
 441.897460938 731 441.897460938 731 490.084960938 724.5 c 128,-1,107
 538.272460938 718 538.272460938 718 573.610351562 707 c 128,-1,108
 608.947265625 696 608.947265625 696 629.5078125 680.5 c 128,-1,109
 650.067382812 665 650.067382812 665 650.067382812 648 c 256,110,111
 650.067382812 631 650.067382812 631 629.5078125 616 c 128,-1,112
 608.947265625 601 608.947265625 601 573.610351562 589.5 c 128,-1,113
 538.272460938 578 538.272460938 578 490.084960938 571.5 c 128,-1,114
 441.897460938 565 441.897460938 565 385.357421875 565 c 0,115,116
 330.102539062 565 330.102539062 565 281.915039062 571.5 c 128,-1,117
 233.727539062 578 233.727539062 578 197.747070312 589.5 c 128,-1,118
 161.767578125 601 161.767578125 601 141.849609375 616 c 128,-1,119
 121.932617188 631 121.932617188 631 121.932617188 648 c 256,100,101
224.732421875 648 m 0,120,121
 224.732421875 637 224.732421875 637 236.940429688 627.5 c 128,-1,122
 249.147460938 618 249.147460938 618 270.9921875 611 c 128,-1,123
 292.837890625 604 292.837890625 604 322.392578125 600 c 128,-1,124
 351.947265625 596 351.947265625 596 385.357421875 596 c 0,125,126
 420.052734375 596 420.052734375 596 448.96484375 600 c 128,-1,127
 477.877929688 604 477.877929688 604 499.72265625 611 c 128,-1,128
 521.567382812 618 521.567382812 618 533.775390625 627.5 c 128,-1,129
 545.982421875 637 545.982421875 637 545.982421875 648 c 0,130,131
 545.982421875 658 545.982421875 658 533.775390625 668 c 128,-1,132
 521.567382812 678 521.567382812 678 499.72265625 685 c 128,-1,133
 477.877929688 692 477.877929688 692 448.96484375 696 c 128,-1,134
 420.052734375 700 420.052734375 700 385.357421875 700 c 0,135,136
 351.947265625 700 351.947265625 700 322.392578125 696 c 128,-1,137
 292.837890625 692 292.837890625 692 270.9921875 685 c 128,-1,138
 249.147460938 678 249.147460938 678 236.940429688 668 c 128,-1,139
 224.732421875 658 224.732421875 658 224.732421875 648 c 0,120,121
EndSplineSet
EndChar

StartChar: uni0083
Encoding: 131 131 101
Width: 771
Flags: W
LayerCount: 2
Fore
SplineSet
121.932617188 85 m 0,0,1
 121.932617188 103 121.932617188 103 141.849609375 118 c 128,-1,2
 161.767578125 133 161.767578125 133 197.747070312 144.5 c 128,-1,3
 233.727539062 156 233.727539062 156 281.915039062 162.5 c 128,-1,4
 330.102539062 169 330.102539062 169 385.357421875 169 c 0,5,6
 441.897460938 169 441.897460938 169 490.084960938 162.5 c 128,-1,7
 538.272460938 156 538.272460938 156 573.610351562 144.5 c 128,-1,8
 608.947265625 133 608.947265625 133 629.5078125 118 c 128,-1,9
 650.067382812 103 650.067382812 103 650.067382812 85 c 0,10,11
 650.067382812 68 650.067382812 68 629.5078125 53 c 128,-1,12
 608.947265625 38 608.947265625 38 573.610351562 27 c 128,-1,13
 538.272460938 16 538.272460938 16 490.084960938 9.5 c 128,-1,14
 441.897460938 3 441.897460938 3 385.357421875 3 c 0,15,16
 330.102539062 3 330.102539062 3 281.915039062 9.5 c 128,-1,17
 233.727539062 16 233.727539062 16 197.747070312 27 c 128,-1,18
 161.767578125 38 161.767578125 38 141.849609375 53 c 128,-1,19
 121.932617188 68 121.932617188 68 121.932617188 85 c 0,0,1
121.932617188 272 m 0,20,21
 121.932617188 290 121.932617188 290 141.849609375 305 c 128,-1,22
 161.767578125 320 161.767578125 320 197.747070312 331.5 c 128,-1,23
 233.727539062 343 233.727539062 343 281.915039062 349 c 128,-1,24
 330.102539062 355 330.102539062 355 385.357421875 355 c 0,25,26
 441.897460938 355 441.897460938 355 490.084960938 349 c 128,-1,27
 538.272460938 343 538.272460938 343 573.610351562 331.5 c 128,-1,28
 608.947265625 320 608.947265625 320 629.5078125 305 c 128,-1,29
 650.067382812 290 650.067382812 290 650.067382812 272 c 0,30,31
 650.067382812 255 650.067382812 255 629.5078125 240 c 128,-1,32
 608.947265625 225 608.947265625 225 573.610351562 214 c 128,-1,33
 538.272460938 203 538.272460938 203 490.084960938 196 c 128,-1,34
 441.897460938 189 441.897460938 189 385.357421875 189 c 0,35,36
 330.102539062 189 330.102539062 189 281.915039062 196 c 128,-1,37
 233.727539062 203 233.727539062 203 197.747070312 214 c 128,-1,38
 161.767578125 225 161.767578125 225 141.849609375 240 c 128,-1,39
 121.932617188 255 121.932617188 255 121.932617188 272 c 0,20,21
121.932617188 461 m 256,40,41
 121.932617188 478 121.932617188 478 141.849609375 493.5 c 128,-1,42
 161.767578125 509 161.767578125 509 197.747070312 520 c 128,-1,43
 233.727539062 531 233.727539062 531 281.915039062 537.5 c 128,-1,44
 330.102539062 544 330.102539062 544 385.357421875 544 c 0,45,46
 441.897460938 544 441.897460938 544 490.084960938 537.5 c 128,-1,47
 538.272460938 531 538.272460938 531 573.610351562 520 c 128,-1,48
 608.947265625 509 608.947265625 509 629.5078125 493.5 c 128,-1,49
 650.067382812 478 650.067382812 478 650.067382812 461 c 256,50,51
 650.067382812 444 650.067382812 444 629.5078125 429 c 128,-1,52
 608.947265625 414 608.947265625 414 573.610351562 402.5 c 128,-1,53
 538.272460938 391 538.272460938 391 490.084960938 384.5 c 128,-1,54
 441.897460938 378 441.897460938 378 385.357421875 378 c 0,55,56
 330.102539062 378 330.102539062 378 281.915039062 384.5 c 128,-1,57
 233.727539062 391 233.727539062 391 197.747070312 402.5 c 128,-1,58
 161.767578125 414 161.767578125 414 141.849609375 429 c 128,-1,59
 121.932617188 444 121.932617188 444 121.932617188 461 c 256,40,41
224.732421875 461 m 256,60,61
 224.732421875 450 224.732421875 450 236.940429688 440.5 c 128,-1,62
 249.147460938 431 249.147460938 431 270.9921875 424 c 128,-1,63
 292.837890625 417 292.837890625 417 322.392578125 413 c 128,-1,64
 351.947265625 409 351.947265625 409 385.357421875 409 c 0,65,66
 420.052734375 409 420.052734375 409 448.96484375 413 c 128,-1,67
 477.877929688 417 477.877929688 417 499.72265625 424 c 128,-1,68
 521.567382812 431 521.567382812 431 533.775390625 440.5 c 128,-1,69
 545.982421875 450 545.982421875 450 545.982421875 461 c 256,70,71
 545.982421875 472 545.982421875 472 533.775390625 481.5 c 128,-1,72
 521.567382812 491 521.567382812 491 499.72265625 498 c 128,-1,73
 477.877929688 505 477.877929688 505 448.96484375 509 c 128,-1,74
 420.052734375 513 420.052734375 513 385.357421875 513 c 0,75,76
 351.947265625 513 351.947265625 513 322.392578125 509 c 128,-1,77
 292.837890625 505 292.837890625 505 270.9921875 498 c 128,-1,78
 249.147460938 491 249.147460938 491 236.940429688 481.5 c 128,-1,79
 224.732421875 472 224.732421875 472 224.732421875 461 c 256,60,61
121.932617188 648 m 256,80,81
 121.932617188 665 121.932617188 665 141.849609375 680.5 c 128,-1,82
 161.767578125 696 161.767578125 696 197.747070312 707 c 128,-1,83
 233.727539062 718 233.727539062 718 281.915039062 724.5 c 128,-1,84
 330.102539062 731 330.102539062 731 385.357421875 731 c 0,85,86
 441.897460938 731 441.897460938 731 490.084960938 724.5 c 128,-1,87
 538.272460938 718 538.272460938 718 573.610351562 707 c 128,-1,88
 608.947265625 696 608.947265625 696 629.5078125 680.5 c 128,-1,89
 650.067382812 665 650.067382812 665 650.067382812 648 c 256,90,91
 650.067382812 631 650.067382812 631 629.5078125 616 c 128,-1,92
 608.947265625 601 608.947265625 601 573.610351562 589.5 c 128,-1,93
 538.272460938 578 538.272460938 578 490.084960938 571.5 c 128,-1,94
 441.897460938 565 441.897460938 565 385.357421875 565 c 0,95,96
 330.102539062 565 330.102539062 565 281.915039062 571.5 c 128,-1,97
 233.727539062 578 233.727539062 578 197.747070312 589.5 c 128,-1,98
 161.767578125 601 161.767578125 601 141.849609375 616 c 128,-1,99
 121.932617188 631 121.932617188 631 121.932617188 648 c 256,80,81
224.732421875 648 m 0,100,101
 224.732421875 637 224.732421875 637 236.940429688 627.5 c 128,-1,102
 249.147460938 618 249.147460938 618 270.9921875 611 c 128,-1,103
 292.837890625 604 292.837890625 604 322.392578125 600 c 128,-1,104
 351.947265625 596 351.947265625 596 385.357421875 596 c 0,105,106
 420.052734375 596 420.052734375 596 448.96484375 600 c 128,-1,107
 477.877929688 604 477.877929688 604 499.72265625 611 c 128,-1,108
 521.567382812 618 521.567382812 618 533.775390625 627.5 c 128,-1,109
 545.982421875 637 545.982421875 637 545.982421875 648 c 0,110,111
 545.982421875 658 545.982421875 658 533.775390625 668 c 128,-1,112
 521.567382812 678 521.567382812 678 499.72265625 685 c 128,-1,113
 477.877929688 692 477.877929688 692 448.96484375 696 c 128,-1,114
 420.052734375 700 420.052734375 700 385.357421875 700 c 0,115,116
 351.947265625 700 351.947265625 700 322.392578125 696 c 128,-1,117
 292.837890625 692 292.837890625 692 270.9921875 685 c 128,-1,118
 249.147460938 678 249.147460938 678 236.940429688 668 c 128,-1,119
 224.732421875 658 224.732421875 658 224.732421875 648 c 0,100,101
EndSplineSet
EndChar

StartChar: uni0084
Encoding: 132 132 102
Width: 771
Flags: W
LayerCount: 2
Fore
SplineSet
121.932617188 85 m 0,0,1
 121.932617188 103 121.932617188 103 141.849609375 118 c 128,-1,2
 161.767578125 133 161.767578125 133 197.747070312 144.5 c 128,-1,3
 233.727539062 156 233.727539062 156 281.915039062 162.5 c 128,-1,4
 330.102539062 169 330.102539062 169 385.357421875 169 c 0,5,6
 441.897460938 169 441.897460938 169 490.084960938 162.5 c 128,-1,7
 538.272460938 156 538.272460938 156 573.610351562 144.5 c 128,-1,8
 608.947265625 133 608.947265625 133 629.5078125 118 c 128,-1,9
 650.067382812 103 650.067382812 103 650.067382812 85 c 0,10,11
 650.067382812 68 650.067382812 68 629.5078125 53 c 128,-1,12
 608.947265625 38 608.947265625 38 573.610351562 27 c 128,-1,13
 538.272460938 16 538.272460938 16 490.084960938 9.5 c 128,-1,14
 441.897460938 3 441.897460938 3 385.357421875 3 c 0,15,16
 330.102539062 3 330.102539062 3 281.915039062 9.5 c 128,-1,17
 233.727539062 16 233.727539062 16 197.747070312 27 c 128,-1,18
 161.767578125 38 161.767578125 38 141.849609375 53 c 128,-1,19
 121.932617188 68 121.932617188 68 121.932617188 85 c 0,0,1
224.732421875 85 m 256,20,21
 224.732421875 74 224.732421875 74 236.940429688 64.5 c 128,-1,22
 249.147460938 55 249.147460938 55 270.9921875 48.5 c 128,-1,23
 292.837890625 42 292.837890625 42 322.392578125 38 c 128,-1,24
 351.947265625 34 351.947265625 34 385.357421875 34 c 0,25,26
 420.052734375 34 420.052734375 34 448.96484375 38 c 128,-1,27
 477.877929688 42 477.877929688 42 499.72265625 48.5 c 128,-1,28
 521.567382812 55 521.567382812 55 533.775390625 64.5 c 128,-1,29
 545.982421875 74 545.982421875 74 545.982421875 85 c 256,30,31
 545.982421875 96 545.982421875 96 533.775390625 105.5 c 128,-1,32
 521.567382812 115 521.567382812 115 499.72265625 122 c 128,-1,33
 477.877929688 129 477.877929688 129 448.96484375 133 c 128,-1,34
 420.052734375 137 420.052734375 137 385.357421875 137 c 0,35,36
 351.947265625 137 351.947265625 137 322.392578125 133 c 128,-1,37
 292.837890625 129 292.837890625 129 270.9921875 122 c 128,-1,38
 249.147460938 115 249.147460938 115 236.940429688 105.5 c 128,-1,39
 224.732421875 96 224.732421875 96 224.732421875 85 c 256,20,21
121.932617188 272 m 0,40,41
 121.932617188 290 121.932617188 290 141.849609375 305 c 128,-1,42
 161.767578125 320 161.767578125 320 197.747070312 331.5 c 128,-1,43
 233.727539062 343 233.727539062 343 281.915039062 349 c 128,-1,44
 330.102539062 355 330.102539062 355 385.357421875 355 c 0,45,46
 441.897460938 355 441.897460938 355 490.084960938 349 c 128,-1,47
 538.272460938 343 538.272460938 343 573.610351562 331.5 c 128,-1,48
 608.947265625 320 608.947265625 320 629.5078125 305 c 128,-1,49
 650.067382812 290 650.067382812 290 650.067382812 272 c 0,50,51
 650.067382812 255 650.067382812 255 629.5078125 240 c 128,-1,52
 608.947265625 225 608.947265625 225 573.610351562 214 c 128,-1,53
 538.272460938 203 538.272460938 203 490.084960938 196 c 128,-1,54
 441.897460938 189 441.897460938 189 385.357421875 189 c 0,55,56
 330.102539062 189 330.102539062 189 281.915039062 196 c 128,-1,57
 233.727539062 203 233.727539062 203 197.747070312 214 c 128,-1,58
 161.767578125 225 161.767578125 225 141.849609375 240 c 128,-1,59
 121.932617188 255 121.932617188 255 121.932617188 272 c 0,40,41
224.732421875 272 m 256,60,61
 224.732421875 261 224.732421875 261 236.940429688 251.5 c 128,-1,62
 249.147460938 242 249.147460938 242 270.9921875 235 c 128,-1,63
 292.837890625 228 292.837890625 228 322.392578125 224 c 128,-1,64
 351.947265625 220 351.947265625 220 385.357421875 220 c 0,65,66
 420.052734375 220 420.052734375 220 448.96484375 224 c 128,-1,67
 477.877929688 228 477.877929688 228 499.72265625 235 c 128,-1,68
 521.567382812 242 521.567382812 242 533.775390625 251.5 c 128,-1,69
 545.982421875 261 545.982421875 261 545.982421875 272 c 256,70,71
 545.982421875 283 545.982421875 283 533.775390625 292.5 c 128,-1,72
 521.567382812 302 521.567382812 302 499.72265625 309 c 128,-1,73
 477.877929688 316 477.877929688 316 448.96484375 320 c 128,-1,74
 420.052734375 324 420.052734375 324 385.357421875 324 c 0,75,76
 351.947265625 324 351.947265625 324 322.392578125 320 c 128,-1,77
 292.837890625 316 292.837890625 316 270.9921875 309 c 128,-1,78
 249.147460938 302 249.147460938 302 236.940429688 292.5 c 128,-1,79
 224.732421875 283 224.732421875 283 224.732421875 272 c 256,60,61
121.932617188 461 m 256,80,81
 121.932617188 478 121.932617188 478 141.849609375 493.5 c 128,-1,82
 161.767578125 509 161.767578125 509 197.747070312 520 c 128,-1,83
 233.727539062 531 233.727539062 531 281.915039062 537.5 c 128,-1,84
 330.102539062 544 330.102539062 544 385.357421875 544 c 0,85,86
 441.897460938 544 441.897460938 544 490.084960938 537.5 c 128,-1,87
 538.272460938 531 538.272460938 531 573.610351562 520 c 128,-1,88
 608.947265625 509 608.947265625 509 629.5078125 493.5 c 128,-1,89
 650.067382812 478 650.067382812 478 650.067382812 461 c 256,90,91
 650.067382812 444 650.067382812 444 629.5078125 429 c 128,-1,92
 608.947265625 414 608.947265625 414 573.610351562 402.5 c 128,-1,93
 538.272460938 391 538.272460938 391 490.084960938 384.5 c 128,-1,94
 441.897460938 378 441.897460938 378 385.357421875 378 c 0,95,96
 330.102539062 378 330.102539062 378 281.915039062 384.5 c 128,-1,97
 233.727539062 391 233.727539062 391 197.747070312 402.5 c 128,-1,98
 161.767578125 414 161.767578125 414 141.849609375 429 c 128,-1,99
 121.932617188 444 121.932617188 444 121.932617188 461 c 256,80,81
121.932617188 648 m 256,100,101
 121.932617188 665 121.932617188 665 141.849609375 680.5 c 128,-1,102
 161.767578125 696 161.767578125 696 197.747070312 707 c 128,-1,103
 233.727539062 718 233.727539062 718 281.915039062 724.5 c 128,-1,104
 330.102539062 731 330.102539062 731 385.357421875 731 c 0,105,106
 441.897460938 731 441.897460938 731 490.084960938 724.5 c 128,-1,107
 538.272460938 718 538.272460938 718 573.610351562 707 c 128,-1,108
 608.947265625 696 608.947265625 696 629.5078125 680.5 c 128,-1,109
 650.067382812 665 650.067382812 665 650.067382812 648 c 256,110,111
 650.067382812 631 650.067382812 631 629.5078125 616 c 128,-1,112
 608.947265625 601 608.947265625 601 573.610351562 589.5 c 128,-1,113
 538.272460938 578 538.272460938 578 490.084960938 571.5 c 128,-1,114
 441.897460938 565 441.897460938 565 385.357421875 565 c 0,115,116
 330.102539062 565 330.102539062 565 281.915039062 571.5 c 128,-1,117
 233.727539062 578 233.727539062 578 197.747070312 589.5 c 128,-1,118
 161.767578125 601 161.767578125 601 141.849609375 616 c 128,-1,119
 121.932617188 631 121.932617188 631 121.932617188 648 c 256,100,101
224.732421875 648 m 0,120,121
 224.732421875 637 224.732421875 637 236.940429688 627.5 c 128,-1,122
 249.147460938 618 249.147460938 618 270.9921875 611 c 128,-1,123
 292.837890625 604 292.837890625 604 322.392578125 600 c 128,-1,124
 351.947265625 596 351.947265625 596 385.357421875 596 c 0,125,126
 420.052734375 596 420.052734375 596 448.96484375 600 c 128,-1,127
 477.877929688 604 477.877929688 604 499.72265625 611 c 128,-1,128
 521.567382812 618 521.567382812 618 533.775390625 627.5 c 128,-1,129
 545.982421875 637 545.982421875 637 545.982421875 648 c 0,130,131
 545.982421875 658 545.982421875 658 533.775390625 668 c 128,-1,132
 521.567382812 678 521.567382812 678 499.72265625 685 c 128,-1,133
 477.877929688 692 477.877929688 692 448.96484375 696 c 128,-1,134
 420.052734375 700 420.052734375 700 385.357421875 700 c 0,135,136
 351.947265625 700 351.947265625 700 322.392578125 696 c 128,-1,137
 292.837890625 692 292.837890625 692 270.9921875 685 c 128,-1,138
 249.147460938 678 249.147460938 678 236.940429688 668 c 128,-1,139
 224.732421875 658 224.732421875 658 224.732421875 648 c 0,120,121
EndSplineSet
EndChar

StartChar: uni0085
Encoding: 133 133 103
Width: 771
Flags: W
LayerCount: 2
Fore
SplineSet
121.932617188 85 m 0,0,1
 121.932617188 103 121.932617188 103 141.849609375 118 c 128,-1,2
 161.767578125 133 161.767578125 133 197.747070312 144.5 c 128,-1,3
 233.727539062 156 233.727539062 156 281.915039062 162.5 c 128,-1,4
 330.102539062 169 330.102539062 169 385.357421875 169 c 0,5,6
 441.897460938 169 441.897460938 169 490.084960938 162.5 c 128,-1,7
 538.272460938 156 538.272460938 156 573.610351562 144.5 c 128,-1,8
 608.947265625 133 608.947265625 133 629.5078125 118 c 128,-1,9
 650.067382812 103 650.067382812 103 650.067382812 85 c 0,10,11
 650.067382812 68 650.067382812 68 629.5078125 53 c 128,-1,12
 608.947265625 38 608.947265625 38 573.610351562 27 c 128,-1,13
 538.272460938 16 538.272460938 16 490.084960938 9.5 c 128,-1,14
 441.897460938 3 441.897460938 3 385.357421875 3 c 0,15,16
 330.102539062 3 330.102539062 3 281.915039062 9.5 c 128,-1,17
 233.727539062 16 233.727539062 16 197.747070312 27 c 128,-1,18
 161.767578125 38 161.767578125 38 141.849609375 53 c 128,-1,19
 121.932617188 68 121.932617188 68 121.932617188 85 c 0,0,1
121.932617188 272 m 0,20,21
 121.932617188 290 121.932617188 290 141.849609375 305 c 128,-1,22
 161.767578125 320 161.767578125 320 197.747070312 331.5 c 128,-1,23
 233.727539062 343 233.727539062 343 281.915039062 349 c 128,-1,24
 330.102539062 355 330.102539062 355 385.357421875 355 c 0,25,26
 441.897460938 355 441.897460938 355 490.084960938 349 c 128,-1,27
 538.272460938 343 538.272460938 343 573.610351562 331.5 c 128,-1,28
 608.947265625 320 608.947265625 320 629.5078125 305 c 128,-1,29
 650.067382812 290 650.067382812 290 650.067382812 272 c 0,30,31
 650.067382812 255 650.067382812 255 629.5078125 240 c 128,-1,32
 608.947265625 225 608.947265625 225 573.610351562 214 c 128,-1,33
 538.272460938 203 538.272460938 203 490.084960938 196 c 128,-1,34
 441.897460938 189 441.897460938 189 385.357421875 189 c 0,35,36
 330.102539062 189 330.102539062 189 281.915039062 196 c 128,-1,37
 233.727539062 203 233.727539062 203 197.747070312 214 c 128,-1,38
 161.767578125 225 161.767578125 225 141.849609375 240 c 128,-1,39
 121.932617188 255 121.932617188 255 121.932617188 272 c 0,20,21
224.732421875 272 m 256,40,41
 224.732421875 261 224.732421875 261 236.940429688 251.5 c 128,-1,42
 249.147460938 242 249.147460938 242 270.9921875 235 c 128,-1,43
 292.837890625 228 292.837890625 228 322.392578125 224 c 128,-1,44
 351.947265625 220 351.947265625 220 385.357421875 220 c 0,45,46
 420.052734375 220 420.052734375 220 448.96484375 224 c 128,-1,47
 477.877929688 228 477.877929688 228 499.72265625 235 c 128,-1,48
 521.567382812 242 521.567382812 242 533.775390625 251.5 c 128,-1,49
 545.982421875 261 545.982421875 261 545.982421875 272 c 256,50,51
 545.982421875 283 545.982421875 283 533.775390625 292.5 c 128,-1,52
 521.567382812 302 521.567382812 302 499.72265625 309 c 128,-1,53
 477.877929688 316 477.877929688 316 448.96484375 320 c 128,-1,54
 420.052734375 324 420.052734375 324 385.357421875 324 c 0,55,56
 351.947265625 324 351.947265625 324 322.392578125 320 c 128,-1,57
 292.837890625 316 292.837890625 316 270.9921875 309 c 128,-1,58
 249.147460938 302 249.147460938 302 236.940429688 292.5 c 128,-1,59
 224.732421875 283 224.732421875 283 224.732421875 272 c 256,40,41
121.932617188 461 m 256,60,61
 121.932617188 478 121.932617188 478 141.849609375 493.5 c 128,-1,62
 161.767578125 509 161.767578125 509 197.747070312 520 c 128,-1,63
 233.727539062 531 233.727539062 531 281.915039062 537.5 c 128,-1,64
 330.102539062 544 330.102539062 544 385.357421875 544 c 0,65,66
 441.897460938 544 441.897460938 544 490.084960938 537.5 c 128,-1,67
 538.272460938 531 538.272460938 531 573.610351562 520 c 128,-1,68
 608.947265625 509 608.947265625 509 629.5078125 493.5 c 128,-1,69
 650.067382812 478 650.067382812 478 650.067382812 461 c 256,70,71
 650.067382812 444 650.067382812 444 629.5078125 429 c 128,-1,72
 608.947265625 414 608.947265625 414 573.610351562 402.5 c 128,-1,73
 538.272460938 391 538.272460938 391 490.084960938 384.5 c 128,-1,74
 441.897460938 378 441.897460938 378 385.357421875 378 c 0,75,76
 330.102539062 378 330.102539062 378 281.915039062 384.5 c 128,-1,77
 233.727539062 391 233.727539062 391 197.747070312 402.5 c 128,-1,78
 161.767578125 414 161.767578125 414 141.849609375 429 c 128,-1,79
 121.932617188 444 121.932617188 444 121.932617188 461 c 256,60,61
121.932617188 648 m 256,80,81
 121.932617188 665 121.932617188 665 141.849609375 680.5 c 128,-1,82
 161.767578125 696 161.767578125 696 197.747070312 707 c 128,-1,83
 233.727539062 718 233.727539062 718 281.915039062 724.5 c 128,-1,84
 330.102539062 731 330.102539062 731 385.357421875 731 c 0,85,86
 441.897460938 731 441.897460938 731 490.084960938 724.5 c 128,-1,87
 538.272460938 718 538.272460938 718 573.610351562 707 c 128,-1,88
 608.947265625 696 608.947265625 696 629.5078125 680.5 c 128,-1,89
 650.067382812 665 650.067382812 665 650.067382812 648 c 256,90,91
 650.067382812 631 650.067382812 631 629.5078125 616 c 128,-1,92
 608.947265625 601 608.947265625 601 573.610351562 589.5 c 128,-1,93
 538.272460938 578 538.272460938 578 490.084960938 571.5 c 128,-1,94
 441.897460938 565 441.897460938 565 385.357421875 565 c 0,95,96
 330.102539062 565 330.102539062 565 281.915039062 571.5 c 128,-1,97
 233.727539062 578 233.727539062 578 197.747070312 589.5 c 128,-1,98
 161.767578125 601 161.767578125 601 141.849609375 616 c 128,-1,99
 121.932617188 631 121.932617188 631 121.932617188 648 c 256,80,81
224.732421875 648 m 0,100,101
 224.732421875 637 224.732421875 637 236.940429688 627.5 c 128,-1,102
 249.147460938 618 249.147460938 618 270.9921875 611 c 128,-1,103
 292.837890625 604 292.837890625 604 322.392578125 600 c 128,-1,104
 351.947265625 596 351.947265625 596 385.357421875 596 c 0,105,106
 420.052734375 596 420.052734375 596 448.96484375 600 c 128,-1,107
 477.877929688 604 477.877929688 604 499.72265625 611 c 128,-1,108
 521.567382812 618 521.567382812 618 533.775390625 627.5 c 128,-1,109
 545.982421875 637 545.982421875 637 545.982421875 648 c 0,110,111
 545.982421875 658 545.982421875 658 533.775390625 668 c 128,-1,112
 521.567382812 678 521.567382812 678 499.72265625 685 c 128,-1,113
 477.877929688 692 477.877929688 692 448.96484375 696 c 128,-1,114
 420.052734375 700 420.052734375 700 385.357421875 700 c 0,115,116
 351.947265625 700 351.947265625 700 322.392578125 696 c 128,-1,117
 292.837890625 692 292.837890625 692 270.9921875 685 c 128,-1,118
 249.147460938 678 249.147460938 678 236.940429688 668 c 128,-1,119
 224.732421875 658 224.732421875 658 224.732421875 648 c 0,100,101
EndSplineSet
EndChar

StartChar: uni0086
Encoding: 134 134 104
Width: 771
Flags: W
LayerCount: 2
Fore
SplineSet
121.932617188 85 m 0,0,1
 121.932617188 103 121.932617188 103 141.849609375 118 c 128,-1,2
 161.767578125 133 161.767578125 133 197.747070312 144.5 c 128,-1,3
 233.727539062 156 233.727539062 156 281.915039062 162.5 c 128,-1,4
 330.102539062 169 330.102539062 169 385.357421875 169 c 0,5,6
 441.897460938 169 441.897460938 169 490.084960938 162.5 c 128,-1,7
 538.272460938 156 538.272460938 156 573.610351562 144.5 c 128,-1,8
 608.947265625 133 608.947265625 133 629.5078125 118 c 128,-1,9
 650.067382812 103 650.067382812 103 650.067382812 85 c 0,10,11
 650.067382812 68 650.067382812 68 629.5078125 53 c 128,-1,12
 608.947265625 38 608.947265625 38 573.610351562 27 c 128,-1,13
 538.272460938 16 538.272460938 16 490.084960938 9.5 c 128,-1,14
 441.897460938 3 441.897460938 3 385.357421875 3 c 0,15,16
 330.102539062 3 330.102539062 3 281.915039062 9.5 c 128,-1,17
 233.727539062 16 233.727539062 16 197.747070312 27 c 128,-1,18
 161.767578125 38 161.767578125 38 141.849609375 53 c 128,-1,19
 121.932617188 68 121.932617188 68 121.932617188 85 c 0,0,1
224.732421875 85 m 256,20,21
 224.732421875 74 224.732421875 74 236.940429688 64.5 c 128,-1,22
 249.147460938 55 249.147460938 55 270.9921875 48.5 c 128,-1,23
 292.837890625 42 292.837890625 42 322.392578125 38 c 128,-1,24
 351.947265625 34 351.947265625 34 385.357421875 34 c 0,25,26
 420.052734375 34 420.052734375 34 448.96484375 38 c 128,-1,27
 477.877929688 42 477.877929688 42 499.72265625 48.5 c 128,-1,28
 521.567382812 55 521.567382812 55 533.775390625 64.5 c 128,-1,29
 545.982421875 74 545.982421875 74 545.982421875 85 c 256,30,31
 545.982421875 96 545.982421875 96 533.775390625 105.5 c 128,-1,32
 521.567382812 115 521.567382812 115 499.72265625 122 c 128,-1,33
 477.877929688 129 477.877929688 129 448.96484375 133 c 128,-1,34
 420.052734375 137 420.052734375 137 385.357421875 137 c 0,35,36
 351.947265625 137 351.947265625 137 322.392578125 133 c 128,-1,37
 292.837890625 129 292.837890625 129 270.9921875 122 c 128,-1,38
 249.147460938 115 249.147460938 115 236.940429688 105.5 c 128,-1,39
 224.732421875 96 224.732421875 96 224.732421875 85 c 256,20,21
121.932617188 272 m 0,40,41
 121.932617188 290 121.932617188 290 141.849609375 305 c 128,-1,42
 161.767578125 320 161.767578125 320 197.747070312 331.5 c 128,-1,43
 233.727539062 343 233.727539062 343 281.915039062 349 c 128,-1,44
 330.102539062 355 330.102539062 355 385.357421875 355 c 0,45,46
 441.897460938 355 441.897460938 355 490.084960938 349 c 128,-1,47
 538.272460938 343 538.272460938 343 573.610351562 331.5 c 128,-1,48
 608.947265625 320 608.947265625 320 629.5078125 305 c 128,-1,49
 650.067382812 290 650.067382812 290 650.067382812 272 c 0,50,51
 650.067382812 255 650.067382812 255 629.5078125 240 c 128,-1,52
 608.947265625 225 608.947265625 225 573.610351562 214 c 128,-1,53
 538.272460938 203 538.272460938 203 490.084960938 196 c 128,-1,54
 441.897460938 189 441.897460938 189 385.357421875 189 c 0,55,56
 330.102539062 189 330.102539062 189 281.915039062 196 c 128,-1,57
 233.727539062 203 233.727539062 203 197.747070312 214 c 128,-1,58
 161.767578125 225 161.767578125 225 141.849609375 240 c 128,-1,59
 121.932617188 255 121.932617188 255 121.932617188 272 c 0,40,41
121.932617188 461 m 256,60,61
 121.932617188 478 121.932617188 478 141.849609375 493.5 c 128,-1,62
 161.767578125 509 161.767578125 509 197.747070312 520 c 128,-1,63
 233.727539062 531 233.727539062 531 281.915039062 537.5 c 128,-1,64
 330.102539062 544 330.102539062 544 385.357421875 544 c 0,65,66
 441.897460938 544 441.897460938 544 490.084960938 537.5 c 128,-1,67
 538.272460938 531 538.272460938 531 573.610351562 520 c 128,-1,68
 608.947265625 509 608.947265625 509 629.5078125 493.5 c 128,-1,69
 650.067382812 478 650.067382812 478 650.067382812 461 c 256,70,71
 650.067382812 444 650.067382812 444 629.5078125 429 c 128,-1,72
 608.947265625 414 608.947265625 414 573.610351562 402.5 c 128,-1,73
 538.272460938 391 538.272460938 391 490.084960938 384.5 c 128,-1,74
 441.897460938 378 441.897460938 378 385.357421875 378 c 0,75,76
 330.102539062 378 330.102539062 378 281.915039062 384.5 c 128,-1,77
 233.727539062 391 233.727539062 391 197.747070312 402.5 c 128,-1,78
 161.767578125 414 161.767578125 414 141.849609375 429 c 128,-1,79
 121.932617188 444 121.932617188 444 121.932617188 461 c 256,60,61
121.932617188 648 m 256,80,81
 121.932617188 665 121.932617188 665 141.849609375 680.5 c 128,-1,82
 161.767578125 696 161.767578125 696 197.747070312 707 c 128,-1,83
 233.727539062 718 233.727539062 718 281.915039062 724.5 c 128,-1,84
 330.102539062 731 330.102539062 731 385.357421875 731 c 0,85,86
 441.897460938 731 441.897460938 731 490.084960938 724.5 c 128,-1,87
 538.272460938 718 538.272460938 718 573.610351562 707 c 128,-1,88
 608.947265625 696 608.947265625 696 629.5078125 680.5 c 128,-1,89
 650.067382812 665 650.067382812 665 650.067382812 648 c 256,90,91
 650.067382812 631 650.067382812 631 629.5078125 616 c 128,-1,92
 608.947265625 601 608.947265625 601 573.610351562 589.5 c 128,-1,93
 538.272460938 578 538.272460938 578 490.084960938 571.5 c 128,-1,94
 441.897460938 565 441.897460938 565 385.357421875 565 c 0,95,96
 330.102539062 565 330.102539062 565 281.915039062 571.5 c 128,-1,97
 233.727539062 578 233.727539062 578 197.747070312 589.5 c 128,-1,98
 161.767578125 601 161.767578125 601 141.849609375 616 c 128,-1,99
 121.932617188 631 121.932617188 631 121.932617188 648 c 256,80,81
224.732421875 648 m 0,100,101
 224.732421875 637 224.732421875 637 236.940429688 627.5 c 128,-1,102
 249.147460938 618 249.147460938 618 270.9921875 611 c 128,-1,103
 292.837890625 604 292.837890625 604 322.392578125 600 c 128,-1,104
 351.947265625 596 351.947265625 596 385.357421875 596 c 0,105,106
 420.052734375 596 420.052734375 596 448.96484375 600 c 128,-1,107
 477.877929688 604 477.877929688 604 499.72265625 611 c 128,-1,108
 521.567382812 618 521.567382812 618 533.775390625 627.5 c 128,-1,109
 545.982421875 637 545.982421875 637 545.982421875 648 c 0,110,111
 545.982421875 658 545.982421875 658 533.775390625 668 c 128,-1,112
 521.567382812 678 521.567382812 678 499.72265625 685 c 128,-1,113
 477.877929688 692 477.877929688 692 448.96484375 696 c 128,-1,114
 420.052734375 700 420.052734375 700 385.357421875 700 c 0,115,116
 351.947265625 700 351.947265625 700 322.392578125 696 c 128,-1,117
 292.837890625 692 292.837890625 692 270.9921875 685 c 128,-1,118
 249.147460938 678 249.147460938 678 236.940429688 668 c 128,-1,119
 224.732421875 658 224.732421875 658 224.732421875 648 c 0,100,101
EndSplineSet
EndChar

StartChar: uni0087
Encoding: 135 135 105
Width: 771
Flags: W
LayerCount: 2
Fore
SplineSet
121.932617188 85 m 0,0,1
 121.932617188 103 121.932617188 103 141.849609375 118 c 128,-1,2
 161.767578125 133 161.767578125 133 197.747070312 144.5 c 128,-1,3
 233.727539062 156 233.727539062 156 281.915039062 162.5 c 128,-1,4
 330.102539062 169 330.102539062 169 385.357421875 169 c 0,5,6
 441.897460938 169 441.897460938 169 490.084960938 162.5 c 128,-1,7
 538.272460938 156 538.272460938 156 573.610351562 144.5 c 128,-1,8
 608.947265625 133 608.947265625 133 629.5078125 118 c 128,-1,9
 650.067382812 103 650.067382812 103 650.067382812 85 c 0,10,11
 650.067382812 68 650.067382812 68 629.5078125 53 c 128,-1,12
 608.947265625 38 608.947265625 38 573.610351562 27 c 128,-1,13
 538.272460938 16 538.272460938 16 490.084960938 9.5 c 128,-1,14
 441.897460938 3 441.897460938 3 385.357421875 3 c 0,15,16
 330.102539062 3 330.102539062 3 281.915039062 9.5 c 128,-1,17
 233.727539062 16 233.727539062 16 197.747070312 27 c 128,-1,18
 161.767578125 38 161.767578125 38 141.849609375 53 c 128,-1,19
 121.932617188 68 121.932617188 68 121.932617188 85 c 0,0,1
121.932617188 272 m 0,20,21
 121.932617188 290 121.932617188 290 141.849609375 305 c 128,-1,22
 161.767578125 320 161.767578125 320 197.747070312 331.5 c 128,-1,23
 233.727539062 343 233.727539062 343 281.915039062 349 c 128,-1,24
 330.102539062 355 330.102539062 355 385.357421875 355 c 0,25,26
 441.897460938 355 441.897460938 355 490.084960938 349 c 128,-1,27
 538.272460938 343 538.272460938 343 573.610351562 331.5 c 128,-1,28
 608.947265625 320 608.947265625 320 629.5078125 305 c 128,-1,29
 650.067382812 290 650.067382812 290 650.067382812 272 c 0,30,31
 650.067382812 255 650.067382812 255 629.5078125 240 c 128,-1,32
 608.947265625 225 608.947265625 225 573.610351562 214 c 128,-1,33
 538.272460938 203 538.272460938 203 490.084960938 196 c 128,-1,34
 441.897460938 189 441.897460938 189 385.357421875 189 c 0,35,36
 330.102539062 189 330.102539062 189 281.915039062 196 c 128,-1,37
 233.727539062 203 233.727539062 203 197.747070312 214 c 128,-1,38
 161.767578125 225 161.767578125 225 141.849609375 240 c 128,-1,39
 121.932617188 255 121.932617188 255 121.932617188 272 c 0,20,21
121.932617188 461 m 256,40,41
 121.932617188 478 121.932617188 478 141.849609375 493.5 c 128,-1,42
 161.767578125 509 161.767578125 509 197.747070312 520 c 128,-1,43
 233.727539062 531 233.727539062 531 281.915039062 537.5 c 128,-1,44
 330.102539062 544 330.102539062 544 385.357421875 544 c 0,45,46
 441.897460938 544 441.897460938 544 490.084960938 537.5 c 128,-1,47
 538.272460938 531 538.272460938 531 573.610351562 520 c 128,-1,48
 608.947265625 509 608.947265625 509 629.5078125 493.5 c 128,-1,49
 650.067382812 478 650.067382812 478 650.067382812 461 c 256,50,51
 650.067382812 444 650.067382812 444 629.5078125 429 c 128,-1,52
 608.947265625 414 608.947265625 414 573.610351562 402.5 c 128,-1,53
 538.272460938 391 538.272460938 391 490.084960938 384.5 c 128,-1,54
 441.897460938 378 441.897460938 378 385.357421875 378 c 0,55,56
 330.102539062 378 330.102539062 378 281.915039062 384.5 c 128,-1,57
 233.727539062 391 233.727539062 391 197.747070312 402.5 c 128,-1,58
 161.767578125 414 161.767578125 414 141.849609375 429 c 128,-1,59
 121.932617188 444 121.932617188 444 121.932617188 461 c 256,40,41
121.932617188 648 m 256,60,61
 121.932617188 665 121.932617188 665 141.849609375 680.5 c 128,-1,62
 161.767578125 696 161.767578125 696 197.747070312 707 c 128,-1,63
 233.727539062 718 233.727539062 718 281.915039062 724.5 c 128,-1,64
 330.102539062 731 330.102539062 731 385.357421875 731 c 0,65,66
 441.897460938 731 441.897460938 731 490.084960938 724.5 c 128,-1,67
 538.272460938 718 538.272460938 718 573.610351562 707 c 128,-1,68
 608.947265625 696 608.947265625 696 629.5078125 680.5 c 128,-1,69
 650.067382812 665 650.067382812 665 650.067382812 648 c 256,70,71
 650.067382812 631 650.067382812 631 629.5078125 616 c 128,-1,72
 608.947265625 601 608.947265625 601 573.610351562 589.5 c 128,-1,73
 538.272460938 578 538.272460938 578 490.084960938 571.5 c 128,-1,74
 441.897460938 565 441.897460938 565 385.357421875 565 c 0,75,76
 330.102539062 565 330.102539062 565 281.915039062 571.5 c 128,-1,77
 233.727539062 578 233.727539062 578 197.747070312 589.5 c 128,-1,78
 161.767578125 601 161.767578125 601 141.849609375 616 c 128,-1,79
 121.932617188 631 121.932617188 631 121.932617188 648 c 256,60,61
224.732421875 648 m 0,80,81
 224.732421875 637 224.732421875 637 236.940429688 627.5 c 128,-1,82
 249.147460938 618 249.147460938 618 270.9921875 611 c 128,-1,83
 292.837890625 604 292.837890625 604 322.392578125 600 c 128,-1,84
 351.947265625 596 351.947265625 596 385.357421875 596 c 0,85,86
 420.052734375 596 420.052734375 596 448.96484375 600 c 128,-1,87
 477.877929688 604 477.877929688 604 499.72265625 611 c 128,-1,88
 521.567382812 618 521.567382812 618 533.775390625 627.5 c 128,-1,89
 545.982421875 637 545.982421875 637 545.982421875 648 c 0,90,91
 545.982421875 658 545.982421875 658 533.775390625 668 c 128,-1,92
 521.567382812 678 521.567382812 678 499.72265625 685 c 128,-1,93
 477.877929688 692 477.877929688 692 448.96484375 696 c 128,-1,94
 420.052734375 700 420.052734375 700 385.357421875 700 c 0,95,96
 351.947265625 700 351.947265625 700 322.392578125 696 c 128,-1,97
 292.837890625 692 292.837890625 692 270.9921875 685 c 128,-1,98
 249.147460938 678 249.147460938 678 236.940429688 668 c 128,-1,99
 224.732421875 658 224.732421875 658 224.732421875 648 c 0,80,81
EndSplineSet
EndChar

StartChar: uni0088
Encoding: 136 136 106
Width: 771
Flags: W
LayerCount: 2
Fore
SplineSet
121.932617188 85 m 0,0,1
 121.932617188 103 121.932617188 103 141.849609375 118 c 128,-1,2
 161.767578125 133 161.767578125 133 197.747070312 144.5 c 128,-1,3
 233.727539062 156 233.727539062 156 281.915039062 162.5 c 128,-1,4
 330.102539062 169 330.102539062 169 385.357421875 169 c 0,5,6
 441.897460938 169 441.897460938 169 490.084960938 162.5 c 128,-1,7
 538.272460938 156 538.272460938 156 573.610351562 144.5 c 128,-1,8
 608.947265625 133 608.947265625 133 629.5078125 118 c 128,-1,9
 650.067382812 103 650.067382812 103 650.067382812 85 c 0,10,11
 650.067382812 68 650.067382812 68 629.5078125 53 c 128,-1,12
 608.947265625 38 608.947265625 38 573.610351562 27 c 128,-1,13
 538.272460938 16 538.272460938 16 490.084960938 9.5 c 128,-1,14
 441.897460938 3 441.897460938 3 385.357421875 3 c 0,15,16
 330.102539062 3 330.102539062 3 281.915039062 9.5 c 128,-1,17
 233.727539062 16 233.727539062 16 197.747070312 27 c 128,-1,18
 161.767578125 38 161.767578125 38 141.849609375 53 c 128,-1,19
 121.932617188 68 121.932617188 68 121.932617188 85 c 0,0,1
224.732421875 85 m 256,20,21
 224.732421875 74 224.732421875 74 236.940429688 64.5 c 128,-1,22
 249.147460938 55 249.147460938 55 270.9921875 48.5 c 128,-1,23
 292.837890625 42 292.837890625 42 322.392578125 38 c 128,-1,24
 351.947265625 34 351.947265625 34 385.357421875 34 c 0,25,26
 420.052734375 34 420.052734375 34 448.96484375 38 c 128,-1,27
 477.877929688 42 477.877929688 42 499.72265625 48.5 c 128,-1,28
 521.567382812 55 521.567382812 55 533.775390625 64.5 c 128,-1,29
 545.982421875 74 545.982421875 74 545.982421875 85 c 256,30,31
 545.982421875 96 545.982421875 96 533.775390625 105.5 c 128,-1,32
 521.567382812 115 521.567382812 115 499.72265625 122 c 128,-1,33
 477.877929688 129 477.877929688 129 448.96484375 133 c 128,-1,34
 420.052734375 137 420.052734375 137 385.357421875 137 c 0,35,36
 351.947265625 137 351.947265625 137 322.392578125 133 c 128,-1,37
 292.837890625 129 292.837890625 129 270.9921875 122 c 128,-1,38
 249.147460938 115 249.147460938 115 236.940429688 105.5 c 128,-1,39
 224.732421875 96 224.732421875 96 224.732421875 85 c 256,20,21
121.932617188 272 m 0,40,41
 121.932617188 290 121.932617188 290 141.849609375 305 c 128,-1,42
 161.767578125 320 161.767578125 320 197.747070312 331.5 c 128,-1,43
 233.727539062 343 233.727539062 343 281.915039062 349 c 128,-1,44
 330.102539062 355 330.102539062 355 385.357421875 355 c 0,45,46
 441.897460938 355 441.897460938 355 490.084960938 349 c 128,-1,47
 538.272460938 343 538.272460938 343 573.610351562 331.5 c 128,-1,48
 608.947265625 320 608.947265625 320 629.5078125 305 c 128,-1,49
 650.067382812 290 650.067382812 290 650.067382812 272 c 0,50,51
 650.067382812 255 650.067382812 255 629.5078125 240 c 128,-1,52
 608.947265625 225 608.947265625 225 573.610351562 214 c 128,-1,53
 538.272460938 203 538.272460938 203 490.084960938 196 c 128,-1,54
 441.897460938 189 441.897460938 189 385.357421875 189 c 0,55,56
 330.102539062 189 330.102539062 189 281.915039062 196 c 128,-1,57
 233.727539062 203 233.727539062 203 197.747070312 214 c 128,-1,58
 161.767578125 225 161.767578125 225 141.849609375 240 c 128,-1,59
 121.932617188 255 121.932617188 255 121.932617188 272 c 0,40,41
224.732421875 272 m 256,60,61
 224.732421875 261 224.732421875 261 236.940429688 251.5 c 128,-1,62
 249.147460938 242 249.147460938 242 270.9921875 235 c 128,-1,63
 292.837890625 228 292.837890625 228 322.392578125 224 c 128,-1,64
 351.947265625 220 351.947265625 220 385.357421875 220 c 0,65,66
 420.052734375 220 420.052734375 220 448.96484375 224 c 128,-1,67
 477.877929688 228 477.877929688 228 499.72265625 235 c 128,-1,68
 521.567382812 242 521.567382812 242 533.775390625 251.5 c 128,-1,69
 545.982421875 261 545.982421875 261 545.982421875 272 c 256,70,71
 545.982421875 283 545.982421875 283 533.775390625 292.5 c 128,-1,72
 521.567382812 302 521.567382812 302 499.72265625 309 c 128,-1,73
 477.877929688 316 477.877929688 316 448.96484375 320 c 128,-1,74
 420.052734375 324 420.052734375 324 385.357421875 324 c 0,75,76
 351.947265625 324 351.947265625 324 322.392578125 320 c 128,-1,77
 292.837890625 316 292.837890625 316 270.9921875 309 c 128,-1,78
 249.147460938 302 249.147460938 302 236.940429688 292.5 c 128,-1,79
 224.732421875 283 224.732421875 283 224.732421875 272 c 256,60,61
121.932617188 461 m 256,80,81
 121.932617188 478 121.932617188 478 141.849609375 493.5 c 128,-1,82
 161.767578125 509 161.767578125 509 197.747070312 520 c 128,-1,83
 233.727539062 531 233.727539062 531 281.915039062 537.5 c 128,-1,84
 330.102539062 544 330.102539062 544 385.357421875 544 c 0,85,86
 441.897460938 544 441.897460938 544 490.084960938 537.5 c 128,-1,87
 538.272460938 531 538.272460938 531 573.610351562 520 c 128,-1,88
 608.947265625 509 608.947265625 509 629.5078125 493.5 c 128,-1,89
 650.067382812 478 650.067382812 478 650.067382812 461 c 256,90,91
 650.067382812 444 650.067382812 444 629.5078125 429 c 128,-1,92
 608.947265625 414 608.947265625 414 573.610351562 402.5 c 128,-1,93
 538.272460938 391 538.272460938 391 490.084960938 384.5 c 128,-1,94
 441.897460938 378 441.897460938 378 385.357421875 378 c 0,95,96
 330.102539062 378 330.102539062 378 281.915039062 384.5 c 128,-1,97
 233.727539062 391 233.727539062 391 197.747070312 402.5 c 128,-1,98
 161.767578125 414 161.767578125 414 141.849609375 429 c 128,-1,99
 121.932617188 444 121.932617188 444 121.932617188 461 c 256,80,81
224.732421875 461 m 256,100,101
 224.732421875 450 224.732421875 450 236.940429688 440.5 c 128,-1,102
 249.147460938 431 249.147460938 431 270.9921875 424 c 128,-1,103
 292.837890625 417 292.837890625 417 322.392578125 413 c 128,-1,104
 351.947265625 409 351.947265625 409 385.357421875 409 c 0,105,106
 420.052734375 409 420.052734375 409 448.96484375 413 c 128,-1,107
 477.877929688 417 477.877929688 417 499.72265625 424 c 128,-1,108
 521.567382812 431 521.567382812 431 533.775390625 440.5 c 128,-1,109
 545.982421875 450 545.982421875 450 545.982421875 461 c 256,110,111
 545.982421875 472 545.982421875 472 533.775390625 481.5 c 128,-1,112
 521.567382812 491 521.567382812 491 499.72265625 498 c 128,-1,113
 477.877929688 505 477.877929688 505 448.96484375 509 c 128,-1,114
 420.052734375 513 420.052734375 513 385.357421875 513 c 0,115,116
 351.947265625 513 351.947265625 513 322.392578125 509 c 128,-1,117
 292.837890625 505 292.837890625 505 270.9921875 498 c 128,-1,118
 249.147460938 491 249.147460938 491 236.940429688 481.5 c 128,-1,119
 224.732421875 472 224.732421875 472 224.732421875 461 c 256,100,101
121.932617188 648 m 256,120,121
 121.932617188 665 121.932617188 665 141.849609375 680.5 c 128,-1,122
 161.767578125 696 161.767578125 696 197.747070312 707 c 128,-1,123
 233.727539062 718 233.727539062 718 281.915039062 724.5 c 128,-1,124
 330.102539062 731 330.102539062 731 385.357421875 731 c 0,125,126
 441.897460938 731 441.897460938 731 490.084960938 724.5 c 128,-1,127
 538.272460938 718 538.272460938 718 573.610351562 707 c 128,-1,128
 608.947265625 696 608.947265625 696 629.5078125 680.5 c 128,-1,129
 650.067382812 665 650.067382812 665 650.067382812 648 c 256,130,131
 650.067382812 631 650.067382812 631 629.5078125 616 c 128,-1,132
 608.947265625 601 608.947265625 601 573.610351562 589.5 c 128,-1,133
 538.272460938 578 538.272460938 578 490.084960938 571.5 c 128,-1,134
 441.897460938 565 441.897460938 565 385.357421875 565 c 0,135,136
 330.102539062 565 330.102539062 565 281.915039062 571.5 c 128,-1,137
 233.727539062 578 233.727539062 578 197.747070312 589.5 c 128,-1,138
 161.767578125 601 161.767578125 601 141.849609375 616 c 128,-1,139
 121.932617188 631 121.932617188 631 121.932617188 648 c 256,120,121
EndSplineSet
EndChar

StartChar: uni0089
Encoding: 137 137 107
Width: 771
Flags: W
LayerCount: 2
Fore
SplineSet
121.932617188 85 m 0,0,1
 121.932617188 103 121.932617188 103 141.849609375 118 c 128,-1,2
 161.767578125 133 161.767578125 133 197.747070312 144.5 c 128,-1,3
 233.727539062 156 233.727539062 156 281.915039062 162.5 c 128,-1,4
 330.102539062 169 330.102539062 169 385.357421875 169 c 0,5,6
 441.897460938 169 441.897460938 169 490.084960938 162.5 c 128,-1,7
 538.272460938 156 538.272460938 156 573.610351562 144.5 c 128,-1,8
 608.947265625 133 608.947265625 133 629.5078125 118 c 128,-1,9
 650.067382812 103 650.067382812 103 650.067382812 85 c 0,10,11
 650.067382812 68 650.067382812 68 629.5078125 53 c 128,-1,12
 608.947265625 38 608.947265625 38 573.610351562 27 c 128,-1,13
 538.272460938 16 538.272460938 16 490.084960938 9.5 c 128,-1,14
 441.897460938 3 441.897460938 3 385.357421875 3 c 0,15,16
 330.102539062 3 330.102539062 3 281.915039062 9.5 c 128,-1,17
 233.727539062 16 233.727539062 16 197.747070312 27 c 128,-1,18
 161.767578125 38 161.767578125 38 141.849609375 53 c 128,-1,19
 121.932617188 68 121.932617188 68 121.932617188 85 c 0,0,1
121.932617188 272 m 0,20,21
 121.932617188 290 121.932617188 290 141.849609375 305 c 128,-1,22
 161.767578125 320 161.767578125 320 197.747070312 331.5 c 128,-1,23
 233.727539062 343 233.727539062 343 281.915039062 349 c 128,-1,24
 330.102539062 355 330.102539062 355 385.357421875 355 c 0,25,26
 441.897460938 355 441.897460938 355 490.084960938 349 c 128,-1,27
 538.272460938 343 538.272460938 343 573.610351562 331.5 c 128,-1,28
 608.947265625 320 608.947265625 320 629.5078125 305 c 128,-1,29
 650.067382812 290 650.067382812 290 650.067382812 272 c 0,30,31
 650.067382812 255 650.067382812 255 629.5078125 240 c 128,-1,32
 608.947265625 225 608.947265625 225 573.610351562 214 c 128,-1,33
 538.272460938 203 538.272460938 203 490.084960938 196 c 128,-1,34
 441.897460938 189 441.897460938 189 385.357421875 189 c 0,35,36
 330.102539062 189 330.102539062 189 281.915039062 196 c 128,-1,37
 233.727539062 203 233.727539062 203 197.747070312 214 c 128,-1,38
 161.767578125 225 161.767578125 225 141.849609375 240 c 128,-1,39
 121.932617188 255 121.932617188 255 121.932617188 272 c 0,20,21
224.732421875 272 m 256,40,41
 224.732421875 261 224.732421875 261 236.940429688 251.5 c 128,-1,42
 249.147460938 242 249.147460938 242 270.9921875 235 c 128,-1,43
 292.837890625 228 292.837890625 228 322.392578125 224 c 128,-1,44
 351.947265625 220 351.947265625 220 385.357421875 220 c 0,45,46
 420.052734375 220 420.052734375 220 448.96484375 224 c 128,-1,47
 477.877929688 228 477.877929688 228 499.72265625 235 c 128,-1,48
 521.567382812 242 521.567382812 242 533.775390625 251.5 c 128,-1,49
 545.982421875 261 545.982421875 261 545.982421875 272 c 256,50,51
 545.982421875 283 545.982421875 283 533.775390625 292.5 c 128,-1,52
 521.567382812 302 521.567382812 302 499.72265625 309 c 128,-1,53
 477.877929688 316 477.877929688 316 448.96484375 320 c 128,-1,54
 420.052734375 324 420.052734375 324 385.357421875 324 c 0,55,56
 351.947265625 324 351.947265625 324 322.392578125 320 c 128,-1,57
 292.837890625 316 292.837890625 316 270.9921875 309 c 128,-1,58
 249.147460938 302 249.147460938 302 236.940429688 292.5 c 128,-1,59
 224.732421875 283 224.732421875 283 224.732421875 272 c 256,40,41
121.932617188 461 m 256,60,61
 121.932617188 478 121.932617188 478 141.849609375 493.5 c 128,-1,62
 161.767578125 509 161.767578125 509 197.747070312 520 c 128,-1,63
 233.727539062 531 233.727539062 531 281.915039062 537.5 c 128,-1,64
 330.102539062 544 330.102539062 544 385.357421875 544 c 0,65,66
 441.897460938 544 441.897460938 544 490.084960938 537.5 c 128,-1,67
 538.272460938 531 538.272460938 531 573.610351562 520 c 128,-1,68
 608.947265625 509 608.947265625 509 629.5078125 493.5 c 128,-1,69
 650.067382812 478 650.067382812 478 650.067382812 461 c 256,70,71
 650.067382812 444 650.067382812 444 629.5078125 429 c 128,-1,72
 608.947265625 414 608.947265625 414 573.610351562 402.5 c 128,-1,73
 538.272460938 391 538.272460938 391 490.084960938 384.5 c 128,-1,74
 441.897460938 378 441.897460938 378 385.357421875 378 c 0,75,76
 330.102539062 378 330.102539062 378 281.915039062 384.5 c 128,-1,77
 233.727539062 391 233.727539062 391 197.747070312 402.5 c 128,-1,78
 161.767578125 414 161.767578125 414 141.849609375 429 c 128,-1,79
 121.932617188 444 121.932617188 444 121.932617188 461 c 256,60,61
224.732421875 461 m 256,80,81
 224.732421875 450 224.732421875 450 236.940429688 440.5 c 128,-1,82
 249.147460938 431 249.147460938 431 270.9921875 424 c 128,-1,83
 292.837890625 417 292.837890625 417 322.392578125 413 c 128,-1,84
 351.947265625 409 351.947265625 409 385.357421875 409 c 0,85,86
 420.052734375 409 420.052734375 409 448.96484375 413 c 128,-1,87
 477.877929688 417 477.877929688 417 499.72265625 424 c 128,-1,88
 521.567382812 431 521.567382812 431 533.775390625 440.5 c 128,-1,89
 545.982421875 450 545.982421875 450 545.982421875 461 c 256,90,91
 545.982421875 472 545.982421875 472 533.775390625 481.5 c 128,-1,92
 521.567382812 491 521.567382812 491 499.72265625 498 c 128,-1,93
 477.877929688 505 477.877929688 505 448.96484375 509 c 128,-1,94
 420.052734375 513 420.052734375 513 385.357421875 513 c 0,95,96
 351.947265625 513 351.947265625 513 322.392578125 509 c 128,-1,97
 292.837890625 505 292.837890625 505 270.9921875 498 c 128,-1,98
 249.147460938 491 249.147460938 491 236.940429688 481.5 c 128,-1,99
 224.732421875 472 224.732421875 472 224.732421875 461 c 256,80,81
121.932617188 648 m 256,100,101
 121.932617188 665 121.932617188 665 141.849609375 680.5 c 128,-1,102
 161.767578125 696 161.767578125 696 197.747070312 707 c 128,-1,103
 233.727539062 718 233.727539062 718 281.915039062 724.5 c 128,-1,104
 330.102539062 731 330.102539062 731 385.357421875 731 c 0,105,106
 441.897460938 731 441.897460938 731 490.084960938 724.5 c 128,-1,107
 538.272460938 718 538.272460938 718 573.610351562 707 c 128,-1,108
 608.947265625 696 608.947265625 696 629.5078125 680.5 c 128,-1,109
 650.067382812 665 650.067382812 665 650.067382812 648 c 256,110,111
 650.067382812 631 650.067382812 631 629.5078125 616 c 128,-1,112
 608.947265625 601 608.947265625 601 573.610351562 589.5 c 128,-1,113
 538.272460938 578 538.272460938 578 490.084960938 571.5 c 128,-1,114
 441.897460938 565 441.897460938 565 385.357421875 565 c 0,115,116
 330.102539062 565 330.102539062 565 281.915039062 571.5 c 128,-1,117
 233.727539062 578 233.727539062 578 197.747070312 589.5 c 128,-1,118
 161.767578125 601 161.767578125 601 141.849609375 616 c 128,-1,119
 121.932617188 631 121.932617188 631 121.932617188 648 c 256,100,101
EndSplineSet
EndChar

StartChar: uni008A
Encoding: 138 138 108
Width: 771
Flags: W
LayerCount: 2
Fore
SplineSet
121.932617188 85 m 0,0,1
 121.932617188 103 121.932617188 103 141.849609375 118 c 128,-1,2
 161.767578125 133 161.767578125 133 197.747070312 144.5 c 128,-1,3
 233.727539062 156 233.727539062 156 281.915039062 162.5 c 128,-1,4
 330.102539062 169 330.102539062 169 385.357421875 169 c 0,5,6
 441.897460938 169 441.897460938 169 490.084960938 162.5 c 128,-1,7
 538.272460938 156 538.272460938 156 573.610351562 144.5 c 128,-1,8
 608.947265625 133 608.947265625 133 629.5078125 118 c 128,-1,9
 650.067382812 103 650.067382812 103 650.067382812 85 c 0,10,11
 650.067382812 68 650.067382812 68 629.5078125 53 c 128,-1,12
 608.947265625 38 608.947265625 38 573.610351562 27 c 128,-1,13
 538.272460938 16 538.272460938 16 490.084960938 9.5 c 128,-1,14
 441.897460938 3 441.897460938 3 385.357421875 3 c 0,15,16
 330.102539062 3 330.102539062 3 281.915039062 9.5 c 128,-1,17
 233.727539062 16 233.727539062 16 197.747070312 27 c 128,-1,18
 161.767578125 38 161.767578125 38 141.849609375 53 c 128,-1,19
 121.932617188 68 121.932617188 68 121.932617188 85 c 0,0,1
224.732421875 85 m 256,20,21
 224.732421875 74 224.732421875 74 236.940429688 64.5 c 128,-1,22
 249.147460938 55 249.147460938 55 270.9921875 48.5 c 128,-1,23
 292.837890625 42 292.837890625 42 322.392578125 38 c 128,-1,24
 351.947265625 34 351.947265625 34 385.357421875 34 c 0,25,26
 420.052734375 34 420.052734375 34 448.96484375 38 c 128,-1,27
 477.877929688 42 477.877929688 42 499.72265625 48.5 c 128,-1,28
 521.567382812 55 521.567382812 55 533.775390625 64.5 c 128,-1,29
 545.982421875 74 545.982421875 74 545.982421875 85 c 256,30,31
 545.982421875 96 545.982421875 96 533.775390625 105.5 c 128,-1,32
 521.567382812 115 521.567382812 115 499.72265625 122 c 128,-1,33
 477.877929688 129 477.877929688 129 448.96484375 133 c 128,-1,34
 420.052734375 137 420.052734375 137 385.357421875 137 c 0,35,36
 351.947265625 137 351.947265625 137 322.392578125 133 c 128,-1,37
 292.837890625 129 292.837890625 129 270.9921875 122 c 128,-1,38
 249.147460938 115 249.147460938 115 236.940429688 105.5 c 128,-1,39
 224.732421875 96 224.732421875 96 224.732421875 85 c 256,20,21
121.932617188 272 m 0,40,41
 121.932617188 290 121.932617188 290 141.849609375 305 c 128,-1,42
 161.767578125 320 161.767578125 320 197.747070312 331.5 c 128,-1,43
 233.727539062 343 233.727539062 343 281.915039062 349 c 128,-1,44
 330.102539062 355 330.102539062 355 385.357421875 355 c 0,45,46
 441.897460938 355 441.897460938 355 490.084960938 349 c 128,-1,47
 538.272460938 343 538.272460938 343 573.610351562 331.5 c 128,-1,48
 608.947265625 320 608.947265625 320 629.5078125 305 c 128,-1,49
 650.067382812 290 650.067382812 290 650.067382812 272 c 0,50,51
 650.067382812 255 650.067382812 255 629.5078125 240 c 128,-1,52
 608.947265625 225 608.947265625 225 573.610351562 214 c 128,-1,53
 538.272460938 203 538.272460938 203 490.084960938 196 c 128,-1,54
 441.897460938 189 441.897460938 189 385.357421875 189 c 0,55,56
 330.102539062 189 330.102539062 189 281.915039062 196 c 128,-1,57
 233.727539062 203 233.727539062 203 197.747070312 214 c 128,-1,58
 161.767578125 225 161.767578125 225 141.849609375 240 c 128,-1,59
 121.932617188 255 121.932617188 255 121.932617188 272 c 0,40,41
121.932617188 461 m 256,60,61
 121.932617188 478 121.932617188 478 141.849609375 493.5 c 128,-1,62
 161.767578125 509 161.767578125 509 197.747070312 520 c 128,-1,63
 233.727539062 531 233.727539062 531 281.915039062 537.5 c 128,-1,64
 330.102539062 544 330.102539062 544 385.357421875 544 c 0,65,66
 441.897460938 544 441.897460938 544 490.084960938 537.5 c 128,-1,67
 538.272460938 531 538.272460938 531 573.610351562 520 c 128,-1,68
 608.947265625 509 608.947265625 509 629.5078125 493.5 c 128,-1,69
 650.067382812 478 650.067382812 478 650.067382812 461 c 256,70,71
 650.067382812 444 650.067382812 444 629.5078125 429 c 128,-1,72
 608.947265625 414 608.947265625 414 573.610351562 402.5 c 128,-1,73
 538.272460938 391 538.272460938 391 490.084960938 384.5 c 128,-1,74
 441.897460938 378 441.897460938 378 385.357421875 378 c 0,75,76
 330.102539062 378 330.102539062 378 281.915039062 384.5 c 128,-1,77
 233.727539062 391 233.727539062 391 197.747070312 402.5 c 128,-1,78
 161.767578125 414 161.767578125 414 141.849609375 429 c 128,-1,79
 121.932617188 444 121.932617188 444 121.932617188 461 c 256,60,61
224.732421875 461 m 256,80,81
 224.732421875 450 224.732421875 450 236.940429688 440.5 c 128,-1,82
 249.147460938 431 249.147460938 431 270.9921875 424 c 128,-1,83
 292.837890625 417 292.837890625 417 322.392578125 413 c 128,-1,84
 351.947265625 409 351.947265625 409 385.357421875 409 c 0,85,86
 420.052734375 409 420.052734375 409 448.96484375 413 c 128,-1,87
 477.877929688 417 477.877929688 417 499.72265625 424 c 128,-1,88
 521.567382812 431 521.567382812 431 533.775390625 440.5 c 128,-1,89
 545.982421875 450 545.982421875 450 545.982421875 461 c 256,90,91
 545.982421875 472 545.982421875 472 533.775390625 481.5 c 128,-1,92
 521.567382812 491 521.567382812 491 499.72265625 498 c 128,-1,93
 477.877929688 505 477.877929688 505 448.96484375 509 c 128,-1,94
 420.052734375 513 420.052734375 513 385.357421875 513 c 0,95,96
 351.947265625 513 351.947265625 513 322.392578125 509 c 128,-1,97
 292.837890625 505 292.837890625 505 270.9921875 498 c 128,-1,98
 249.147460938 491 249.147460938 491 236.940429688 481.5 c 128,-1,99
 224.732421875 472 224.732421875 472 224.732421875 461 c 256,80,81
121.932617188 648 m 256,100,101
 121.932617188 665 121.932617188 665 141.849609375 680.5 c 128,-1,102
 161.767578125 696 161.767578125 696 197.747070312 707 c 128,-1,103
 233.727539062 718 233.727539062 718 281.915039062 724.5 c 128,-1,104
 330.102539062 731 330.102539062 731 385.357421875 731 c 0,105,106
 441.897460938 731 441.897460938 731 490.084960938 724.5 c 128,-1,107
 538.272460938 718 538.272460938 718 573.610351562 707 c 128,-1,108
 608.947265625 696 608.947265625 696 629.5078125 680.5 c 128,-1,109
 650.067382812 665 650.067382812 665 650.067382812 648 c 256,110,111
 650.067382812 631 650.067382812 631 629.5078125 616 c 128,-1,112
 608.947265625 601 608.947265625 601 573.610351562 589.5 c 128,-1,113
 538.272460938 578 538.272460938 578 490.084960938 571.5 c 128,-1,114
 441.897460938 565 441.897460938 565 385.357421875 565 c 0,115,116
 330.102539062 565 330.102539062 565 281.915039062 571.5 c 128,-1,117
 233.727539062 578 233.727539062 578 197.747070312 589.5 c 128,-1,118
 161.767578125 601 161.767578125 601 141.849609375 616 c 128,-1,119
 121.932617188 631 121.932617188 631 121.932617188 648 c 256,100,101
EndSplineSet
EndChar

StartChar: uni008B
Encoding: 139 139 109
Width: 771
Flags: W
LayerCount: 2
Fore
SplineSet
121.932617188 85 m 0,0,1
 121.932617188 103 121.932617188 103 141.849609375 118 c 128,-1,2
 161.767578125 133 161.767578125 133 197.747070312 144.5 c 128,-1,3
 233.727539062 156 233.727539062 156 281.915039062 162.5 c 128,-1,4
 330.102539062 169 330.102539062 169 385.357421875 169 c 0,5,6
 441.897460938 169 441.897460938 169 490.084960938 162.5 c 128,-1,7
 538.272460938 156 538.272460938 156 573.610351562 144.5 c 128,-1,8
 608.947265625 133 608.947265625 133 629.5078125 118 c 128,-1,9
 650.067382812 103 650.067382812 103 650.067382812 85 c 0,10,11
 650.067382812 68 650.067382812 68 629.5078125 53 c 128,-1,12
 608.947265625 38 608.947265625 38 573.610351562 27 c 128,-1,13
 538.272460938 16 538.272460938 16 490.084960938 9.5 c 128,-1,14
 441.897460938 3 441.897460938 3 385.357421875 3 c 0,15,16
 330.102539062 3 330.102539062 3 281.915039062 9.5 c 128,-1,17
 233.727539062 16 233.727539062 16 197.747070312 27 c 128,-1,18
 161.767578125 38 161.767578125 38 141.849609375 53 c 128,-1,19
 121.932617188 68 121.932617188 68 121.932617188 85 c 0,0,1
121.932617188 272 m 0,20,21
 121.932617188 290 121.932617188 290 141.849609375 305 c 128,-1,22
 161.767578125 320 161.767578125 320 197.747070312 331.5 c 128,-1,23
 233.727539062 343 233.727539062 343 281.915039062 349 c 128,-1,24
 330.102539062 355 330.102539062 355 385.357421875 355 c 0,25,26
 441.897460938 355 441.897460938 355 490.084960938 349 c 128,-1,27
 538.272460938 343 538.272460938 343 573.610351562 331.5 c 128,-1,28
 608.947265625 320 608.947265625 320 629.5078125 305 c 128,-1,29
 650.067382812 290 650.067382812 290 650.067382812 272 c 0,30,31
 650.067382812 255 650.067382812 255 629.5078125 240 c 128,-1,32
 608.947265625 225 608.947265625 225 573.610351562 214 c 128,-1,33
 538.272460938 203 538.272460938 203 490.084960938 196 c 128,-1,34
 441.897460938 189 441.897460938 189 385.357421875 189 c 0,35,36
 330.102539062 189 330.102539062 189 281.915039062 196 c 128,-1,37
 233.727539062 203 233.727539062 203 197.747070312 214 c 128,-1,38
 161.767578125 225 161.767578125 225 141.849609375 240 c 128,-1,39
 121.932617188 255 121.932617188 255 121.932617188 272 c 0,20,21
121.932617188 461 m 256,40,41
 121.932617188 478 121.932617188 478 141.849609375 493.5 c 128,-1,42
 161.767578125 509 161.767578125 509 197.747070312 520 c 128,-1,43
 233.727539062 531 233.727539062 531 281.915039062 537.5 c 128,-1,44
 330.102539062 544 330.102539062 544 385.357421875 544 c 0,45,46
 441.897460938 544 441.897460938 544 490.084960938 537.5 c 128,-1,47
 538.272460938 531 538.272460938 531 573.610351562 520 c 128,-1,48
 608.947265625 509 608.947265625 509 629.5078125 493.5 c 128,-1,49
 650.067382812 478 650.067382812 478 650.067382812 461 c 256,50,51
 650.067382812 444 650.067382812 444 629.5078125 429 c 128,-1,52
 608.947265625 414 608.947265625 414 573.610351562 402.5 c 128,-1,53
 538.272460938 391 538.272460938 391 490.084960938 384.5 c 128,-1,54
 441.897460938 378 441.897460938 378 385.357421875 378 c 0,55,56
 330.102539062 378 330.102539062 378 281.915039062 384.5 c 128,-1,57
 233.727539062 391 233.727539062 391 197.747070312 402.5 c 128,-1,58
 161.767578125 414 161.767578125 414 141.849609375 429 c 128,-1,59
 121.932617188 444 121.932617188 444 121.932617188 461 c 256,40,41
224.732421875 461 m 256,60,61
 224.732421875 450 224.732421875 450 236.940429688 440.5 c 128,-1,62
 249.147460938 431 249.147460938 431 270.9921875 424 c 128,-1,63
 292.837890625 417 292.837890625 417 322.392578125 413 c 128,-1,64
 351.947265625 409 351.947265625 409 385.357421875 409 c 0,65,66
 420.052734375 409 420.052734375 409 448.96484375 413 c 128,-1,67
 477.877929688 417 477.877929688 417 499.72265625 424 c 128,-1,68
 521.567382812 431 521.567382812 431 533.775390625 440.5 c 128,-1,69
 545.982421875 450 545.982421875 450 545.982421875 461 c 256,70,71
 545.982421875 472 545.982421875 472 533.775390625 481.5 c 128,-1,72
 521.567382812 491 521.567382812 491 499.72265625 498 c 128,-1,73
 477.877929688 505 477.877929688 505 448.96484375 509 c 128,-1,74
 420.052734375 513 420.052734375 513 385.357421875 513 c 0,75,76
 351.947265625 513 351.947265625 513 322.392578125 509 c 128,-1,77
 292.837890625 505 292.837890625 505 270.9921875 498 c 128,-1,78
 249.147460938 491 249.147460938 491 236.940429688 481.5 c 128,-1,79
 224.732421875 472 224.732421875 472 224.732421875 461 c 256,60,61
121.932617188 648 m 256,80,81
 121.932617188 665 121.932617188 665 141.849609375 680.5 c 128,-1,82
 161.767578125 696 161.767578125 696 197.747070312 707 c 128,-1,83
 233.727539062 718 233.727539062 718 281.915039062 724.5 c 128,-1,84
 330.102539062 731 330.102539062 731 385.357421875 731 c 0,85,86
 441.897460938 731 441.897460938 731 490.084960938 724.5 c 128,-1,87
 538.272460938 718 538.272460938 718 573.610351562 707 c 128,-1,88
 608.947265625 696 608.947265625 696 629.5078125 680.5 c 128,-1,89
 650.067382812 665 650.067382812 665 650.067382812 648 c 256,90,91
 650.067382812 631 650.067382812 631 629.5078125 616 c 128,-1,92
 608.947265625 601 608.947265625 601 573.610351562 589.5 c 128,-1,93
 538.272460938 578 538.272460938 578 490.084960938 571.5 c 128,-1,94
 441.897460938 565 441.897460938 565 385.357421875 565 c 0,95,96
 330.102539062 565 330.102539062 565 281.915039062 571.5 c 128,-1,97
 233.727539062 578 233.727539062 578 197.747070312 589.5 c 128,-1,98
 161.767578125 601 161.767578125 601 141.849609375 616 c 128,-1,99
 121.932617188 631 121.932617188 631 121.932617188 648 c 256,80,81
EndSplineSet
EndChar

